<?xml version="1.0" encoding="UTF-8" standalone="no"?><svg xmlns="http://www.w3.org/2000/svg" xmlns:xlink="http://www.w3.org/1999/xlink" clip-rule="evenodd" stroke-miterlimit="4.00" viewBox="0 0 385 37"><desc>SVG generated by Keynote</desc><defs></defs><g transform="matrix(1.00, 0.00, -0.00, -1.00, 0.0, 37.0)"><text xml:space="preserve" font-family="AvenirNext-DemiBold" font-weight="bold" font-size="45.0" fill="#FFFFFF" transform="matrix(1.00, 0.00, -0.00, -1.00, 0.0, 3.0)">C</text><text xml:space="preserve" font-family="AvenirNext-DemiBold" font-weight="bold" font-size="45.0" fill="#FFFFFF" transform="matrix(1.00, 0.00, -0.00, -1.00, 31.3, 3.0)">R</text><text xml:space="preserve" font-family="AvenirNext-DemiBold" font-weight="bold" font-size="45.0" fill="#FFFFFF" transform="matrix(1.00, 0.00, -0.00, -1.00, 59.6, 3.0)">O</text><text xml:space="preserve" font-family="AvenirNext-DemiBold" font-weight="bold" font-size="45.0" fill="#FFFFFF" transform="matrix(1.00, 0.00, -0.00, -1.00, 97.8, 3.0)">S</text><text xml:space="preserve" font-family="AvenirNext-DemiBold" font-weight="bold" font-size="45.0" fill="#FFFFFF" transform="matrix(1.00, 0.00, -0.00, -1.00, 123.7, 3.0)">S</text><text xml:space="preserve" font-family="AvenirNext-DemiBold" font-weight="bold" font-size="45.0" fill="#FFFFFF" transform="matrix(1.00, 0.00, -0.00, -1.00, 149.5, 3.0)"> </text><text xml:space="preserve" font-family="AvenirNext-DemiBold" font-weight="bold" font-size="45.0" fill="#FFFFFF" transform="matrix(1.00, 0.00, -0.00, -1.00, 160.7, 3.0)">C</text><text xml:space="preserve" font-family="AvenirNext-DemiBold" font-weight="bold" font-size="45.0" fill="#FFFFFF" transform="matrix(1.00, 0.00, -0.00, -1.00, 191.5, 3.0)">O</text><text xml:space="preserve" font-family="AvenirNext-DemiBold" font-weight="bold" font-size="45.0" fill="#FFFFFF" transform="matrix(1.00, 0.00, -0.00, -1.00, 229.7, 3.0)">N</text><text xml:space="preserve" font-family="AvenirNext-DemiBold" font-weight="bold" font-size="45.0" fill="#FFFFFF" transform="matrix(1.00, 0.00, -0.00, -1.00, 264.8, 3.0)">N</text><text xml:space="preserve" font-family="AvenirNext-DemiBold" font-weight="bold" font-size="45.0" fill="#FFFFFF" transform="matrix(1.00, 0.00, -0.00, -1.00, 299.9, 3.0)">E</text><text xml:space="preserve" font-family="AvenirNext-DemiBold" font-weight="bold" font-size="45.0" fill="#FFFFFF" transform="matrix(1.00, 0.00, -0.00, -1.00, 327.4, 3.0)">C</text><text xml:space="preserve" font-family="AvenirNext-DemiBold" font-weight="bold" font-size="45.0" fill="#FFFFFF" transform="matrix(1.00, 0.00, -0.00, -1.00, 358.4, 3.0)">T</text></g></svg>