<?xml version="1.0" encoding="UTF-8" standalone="no"?><svg xmlns="http://www.w3.org/2000/svg" xmlns:xlink="http://www.w3.org/1999/xlink" clip-rule="evenodd" stroke-miterlimit="4.00" viewBox="0 0 344 53"><desc>SVG generated by Keynote</desc><defs></defs><g transform="matrix(1.00, 0.00, -0.00, -1.00, 0.0, 53.0)"><g><clipPath id="clip-588"><path d="M 0.0 0.0 L 344.0 0.0 L 344.0 51.4 L 0.0 51.4 Z M 0.0 0.0 "></path></clipPath><g clip-path="url(#clip-588)"><text xml:space="preserve" font-family="DINCondensed-Bold" font-weight="bold" font-size="68.9" fill="#34A4DA" transform="matrix(1.00, 0.00, -0.00, -1.00, 2.0, 2.0)">T</text><text xml:space="preserve" font-family="DINCondensed-Bold" font-weight="bold" font-size="68.9" fill="#34A4DA" transform="matrix(1.00, 0.00, -0.00, -1.00, 21.1, 2.0)">A</text><text xml:space="preserve" font-family="DINCondensed-Bold" font-weight="bold" font-size="68.9" fill="#34A4DA" transform="matrix(1.00, 0.00, -0.00, -1.00, 49.1, 2.0)">R</text><text xml:space="preserve" font-family="DINCondensed-Bold" font-weight="bold" font-size="68.9" fill="#34A4DA" transform="matrix(1.00, 0.00, -0.00, -1.00, 78.5, 2.0)">G</text><text xml:space="preserve" font-family="DINCondensed-Bold" font-weight="bold" font-size="68.9" fill="#34A4DA" transform="matrix(1.00, 0.00, -0.00, -1.00, 107.8, 2.0)">E</text><text xml:space="preserve" font-family="DINCondensed-Bold" font-weight="bold" font-size="68.9" fill="#34A4DA" transform="matrix(1.00, 0.00, -0.00, -1.00, 133.3, 2.0)">T</text><text xml:space="preserve" font-family="DINCondensed-Bold" font-weight="bold" font-size="68.9" fill="#34A4DA" transform="matrix(1.00, 0.00, -0.00, -1.00, 156.2, 2.0)"> </text><text xml:space="preserve" font-family="DINCondensed-Bold" font-weight="bold" font-size="68.9" fill="#34A4DA" transform="matrix(1.00, 0.00, -0.00, -1.00, 169.0, 2.0)">M</text><text xml:space="preserve" font-family="DINCondensed-Bold" font-weight="bold" font-size="68.9" fill="#34A4DA" transform="matrix(1.00, 0.00, -0.00, -1.00, 207.3, 2.0)">A</text><text xml:space="preserve" font-family="DINCondensed-Bold" font-weight="bold" font-size="68.9" fill="#34A4DA" transform="matrix(1.00, 0.00, -0.00, -1.00, 235.3, 2.0)">R</text><text xml:space="preserve" font-family="DINCondensed-Bold" font-weight="bold" font-size="68.9" fill="#34A4DA" transform="matrix(1.00, 0.00, -0.00, -1.00, 264.6, 2.0)">K</text><text xml:space="preserve" font-family="DINCondensed-Bold" font-weight="bold" font-size="68.9" fill="#34A4DA" transform="matrix(1.00, 0.00, -0.00, -1.00, 294.0, 2.0)">E</text><text xml:space="preserve" font-family="DINCondensed-Bold" font-weight="bold" font-size="68.9" fill="#34A4DA" transform="matrix(1.00, 0.00, -0.00, -1.00, 319.5, 2.0)">T</text></g></g></g></svg>