<?xml version="1.0" encoding="UTF-8" standalone="no"?><svg xmlns="http://www.w3.org/2000/svg" xmlns:xlink="http://www.w3.org/1999/xlink" clip-rule="evenodd" stroke-miterlimit="4.00" viewBox="0 0 1614 725"><desc>SVG generated by Keynote</desc><defs></defs><g transform="matrix(1.00, 0.00, -0.00, -1.00, 0.0, 725.0)"><g><clipPath id="clip-590"><path d="M 842.5 161.2 L 886.2 161.2 L 886.2 211.5 L 842.5 211.5 Z M 842.5 161.2 "></path></clipPath><g clip-path="url(#clip-590)"><path d="M 843.5 210.5 L 885.2 210.5 L 885.2 162.2 L 843.5 162.2 Z M 843.5 210.5 " fill="#34A4DA"></path></g></g><g><clipPath id="clip-591"><path d="M 468.4 163.4 L 478.7 163.4 L 478.7 408.9 L 468.4 408.9 Z M 468.4 163.4 "></path></clipPath><g clip-path="url(#clip-591)"><path d="M 469.4 407.9 L 477.7 407.9 L 477.7 164.4 L 469.4 164.4 Z M 469.4 407.9 " fill="#34A4DA"></path></g></g><g><clipPath id="clip-592"><path d="M 432.1 357.6 L 432.1 369.3 L 515.0 369.3 L 515.0 357.6 Z M 432.1 357.6 "></path></clipPath><g clip-path="url(#clip-592)"><path d="M 433.1 358.6 L 433.1 368.3 L 514.0 368.3 L 514.0 358.6 Z M 433.1 358.6 " fill="#34A4DA"></path></g></g><g><clipPath id="clip-593"><path d="M 432.1 387.8 L 432.1 399.5 L 515.0 399.5 L 515.0 387.8 Z M 432.1 387.8 "></path></clipPath><g clip-path="url(#clip-593)"><path d="M 433.1 388.8 L 433.1 398.5 L 514.0 398.5 L 514.0 388.8 Z M 433.1 388.8 " fill="#34A4DA"></path></g></g><g><clipPath id="clip-594"><path d="M 479.7 479.5 L 490.0 479.5 L 490.0 724.9 L 479.7 724.9 Z M 479.7 479.5 "></path></clipPath><g clip-path="url(#clip-594)"><path d="M 480.7 723.9 L 489.0 723.9 L 489.0 480.5 L 480.7 480.5 Z M 480.7 723.9 " fill="#34A4DA"></path></g></g><g><clipPath id="clip-595"><path d="M 443.4 673.6 L 443.4 685.4 L 526.3 685.4 L 526.3 673.6 Z M 443.4 673.6 "></path></clipPath><g clip-path="url(#clip-595)"><path d="M 444.4 674.6 L 444.4 684.4 L 525.3 684.4 L 525.3 674.6 Z M 444.4 674.6 " fill="#34A4DA"></path></g></g><g><clipPath id="clip-596"><path d="M 443.4 703.8 L 443.4 715.5 L 526.3 715.5 L 526.3 703.8 Z M 443.4 703.8 "></path></clipPath><g clip-path="url(#clip-596)"><path d="M 444.4 704.8 L 444.4 714.5 L 525.3 714.5 L 525.3 704.8 Z M 444.4 704.8 " fill="#34A4DA"></path></g></g><g><clipPath id="clip-597"><path d="M 148.6 161.2 L 250.6 161.2 L 250.6 243.3 L 148.6 243.3 Z M 148.6 161.2 "></path></clipPath><g clip-path="url(#clip-597)"><path d="M 149.6 242.3 L 249.6 242.3 L 249.6 162.2 L 149.6 162.2 Z M 149.6 242.3 " fill="#34A4DA"></path></g></g><g><clipPath id="clip-598"><path d="M 129.7 228.7 L 269.5 228.7 L 269.5 278.9 L 129.7 278.9 Z M 129.7 228.7 "></path></clipPath><g clip-path="url(#clip-598)"><path d="M 199.6 277.9 L 268.5 229.7 L 130.7 229.7 Z M 199.6 277.9 " fill="#34A4DA"></path></g></g><g><clipPath id="clip-599"><path d="M 228.8 220.4 L 249.7 220.4 L 249.7 275.5 L 228.8 275.5 Z M 228.8 220.4 "></path></clipPath><g clip-path="url(#clip-599)"><path d="M 229.8 274.5 L 248.7 274.5 L 248.7 221.4 L 229.8 221.4 Z M 229.8 274.5 " fill="#34A4DA"></path></g></g><g><clipPath id="clip-600"><path d="M 19.2 241.2 L 121.2 241.2 L 121.2 323.3 L 19.2 323.3 Z M 19.2 241.2 "></path></clipPath><g clip-path="url(#clip-600)"><path d="M 20.2 322.3 L 120.2 322.3 L 120.2 242.2 L 20.2 242.2 Z M 20.2 322.3 " fill="#34A4DA"></path></g></g><g><clipPath id="clip-601"><path d="M 0.3 308.7 L 140.0 308.7 L 140.0 358.9 L 0.3 358.9 Z M 0.3 308.7 "></path></clipPath><g clip-path="url(#clip-601)"><path d="M 70.2 357.9 L 139.0 309.7 L 1.3 309.7 Z M 70.2 357.9 " fill="#34A4DA"></path></g></g><g><clipPath id="clip-602"><path d="M 99.3 300.4 L 120.3 300.4 L 120.3 355.5 L 99.3 355.5 Z M 99.3 300.4 "></path></clipPath><g clip-path="url(#clip-602)"><path d="M 100.3 354.5 L 119.3 354.5 L 119.3 301.4 L 100.3 301.4 Z M 100.3 354.5 " fill="#34A4DA"></path></g></g><g><clipPath id="clip-603"><path d="M 159.9 477.2 L 261.9 477.2 L 261.9 559.4 L 159.9 559.4 Z M 159.9 477.2 "></path></clipPath><g clip-path="url(#clip-603)"><path d="M 160.9 558.4 L 260.9 558.4 L 260.9 478.2 L 160.9 478.2 Z M 160.9 558.4 " fill="#34A4DA"></path></g></g><g><clipPath id="clip-604"><path d="M 141.1 544.7 L 280.8 544.7 L 280.8 594.9 L 141.1 594.9 Z M 141.1 544.7 "></path></clipPath><g clip-path="url(#clip-604)"><path d="M 210.9 593.9 L 279.8 545.7 L 142.1 545.7 Z M 210.9 593.9 " fill="#34A4DA"></path></g></g><g><clipPath id="clip-605"><path d="M 240.1 536.4 L 261.1 536.4 L 261.1 591.5 L 240.1 591.5 Z M 240.1 536.4 "></path></clipPath><g clip-path="url(#clip-605)"><path d="M 241.1 590.5 L 260.1 590.5 L 260.1 537.4 L 241.1 537.4 Z M 241.1 590.5 " fill="#34A4DA"></path></g></g><g><clipPath id="clip-606"><path d="M 30.5 557.2 L 132.5 557.2 L 132.5 639.4 L 30.5 639.4 Z M 30.5 557.2 "></path></clipPath><g clip-path="url(#clip-606)"><path d="M 31.5 638.4 L 131.5 638.4 L 131.5 558.2 L 31.5 558.2 Z M 31.5 638.4 " fill="#34A4DA"></path></g></g><g><clipPath id="clip-607"><path d="M 11.6 624.7 L 151.4 624.7 L 151.4 674.9 L 11.6 674.9 Z M 11.6 624.7 "></path></clipPath><g clip-path="url(#clip-607)"><path d="M 81.5 673.9 L 150.4 625.7 L 12.6 625.7 Z M 81.5 673.9 " fill="#34A4DA"></path></g></g><g><clipPath id="clip-608"><path d="M 110.7 616.4 L 131.7 616.4 L 131.7 671.5 L 110.7 671.5 Z M 110.7 616.4 "></path></clipPath><g clip-path="url(#clip-608)"><path d="M 111.7 670.5 L 130.7 670.5 L 130.7 617.4 L 111.7 617.4 Z M 111.7 670.5 " fill="#34A4DA"></path></g></g><g><clipPath id="clip-609"><path d="M 198.5 216.6 L 439.0 216.6 L 439.0 364.8 L 198.5 364.8 Z M 198.5 216.6 "></path></clipPath><g clip-path="url(#clip-609)"><path d="M 236.9 0.0 C 210.2 103.9 131.2 151.7 0.0 143.4 " fill="none" stroke="#34A4DA" stroke-width="3.00" transform="matrix(1.00, 0.00, 0.00, -1.00, 199.6, 363.5)"></path></g></g><g><clipPath id="clip-610"><path d="M 69.2 297.4 L 438.7 297.4 L 438.7 395.5 L 69.2 395.5 Z M 69.2 297.4 "></path></clipPath><g clip-path="url(#clip-610)"><path d="M 0.0 93.6 C 196.2 96.2 318.3 65.0 366.3 0.0 " fill="none" stroke="#34A4DA" stroke-width="3.00" transform="matrix(1.00, 0.00, 0.00, -1.00, 70.2, 393.6)"></path></g></g><g><clipPath id="clip-611"><path d="M 209.8 532.7 L 450.3 532.7 L 450.3 680.9 L 209.8 680.9 Z M 209.8 532.7 "></path></clipPath><g clip-path="url(#clip-611)"><path d="M 236.9 0.0 C 210.2 103.9 131.2 151.7 0.0 143.4 " fill="none" stroke="#34A4DA" stroke-width="3.00" transform="matrix(1.00, 0.00, 0.00, -1.00, 210.9, 679.5)"></path></g></g><g><clipPath id="clip-612"><path d="M 80.5 613.4 L 450.1 613.4 L 450.1 711.5 L 80.5 711.5 Z M 80.5 613.4 "></path></clipPath><g clip-path="url(#clip-612)"><path d="M 0.0 93.6 C 196.2 96.2 318.3 65.0 366.3 0.0 " fill="none" stroke="#34A4DA" stroke-width="3.00" transform="matrix(1.00, 0.00, 0.00, -1.00, 81.5, 709.6)"></path></g></g><g><clipPath id="clip-613"><path d="M 509.2 183.9 L 865.6 183.9 L 865.6 395.5 L 509.2 395.5 Z M 509.2 183.9 "></path></clipPath><g clip-path="url(#clip-613)"><path d="M 0.0 0.0 C 79.3 115.4 197.0 184.5 353.0 207.3 " fill="none" stroke="#34A4DA" stroke-width="3.00" transform="matrix(1.00, 0.00, 0.00, -1.00, 511.4, 393.6)"></path></g></g><g><clipPath id="clip-614"><path d="M 508.9 183.9 L 865.4 183.9 L 865.4 366.6 L 508.9 366.6 Z M 508.9 183.9 "></path></clipPath><g clip-path="url(#clip-614)"><path d="M 0.0 0.0 C 39.7 114.6 157.3 174.2 353.0 178.7 " fill="none" stroke="#34A4DA" stroke-width="3.00" transform="matrix(1.00, 0.00, 0.00, -1.00, 511.4, 365.1)"></path></g></g><g><clipPath id="clip-615"><path d="M 521.1 184.2 L 866.4 184.2 L 866.4 713.7 L 521.1 713.7 Z M 521.1 184.2 "></path></clipPath><g clip-path="url(#clip-615)"><path d="M 340.8 525.9 C 179.8 381.4 66.1 206.1 0.0 0.0 " fill="none" stroke="#34A4DA" stroke-width="3.00" transform="matrix(1.00, 0.00, 0.00, -1.00, 523.5, 712.2)"></path></g></g><g><clipPath id="clip-616"><path d="M 521.2 184.2 L 866.3 184.2 L 866.3 684.0 L 521.2 684.0 Z M 521.2 184.2 "></path></clipPath><g clip-path="url(#clip-616)"><path d="M 340.8 496.1 C 180.6 362.8 67.0 197.4 0.0 0.0 " fill="none" stroke="#34A4DA" stroke-width="3.00" transform="matrix(1.00, 0.00, 0.00, -1.00, 523.6, 682.5)"></path></g></g><g><clipPath id="clip-617"><path d="M 1213.8 159.8 L 1613.1 159.8 L 1613.1 346.0 L 1213.8 346.0 Z M 1213.8 159.8 "></path></clipPath><g clip-path="url(#clip-617)"><path d="M 1214.8 345.0 L 1612.1 345.0 L 1612.1 160.8 L 1214.8 160.8 Z M 1214.8 345.0 " fill="#34A4DA"></path></g></g><g><clipPath id="clip-618"><path d="M 1417.6 411.2 L 1450.3 411.2 L 1450.3 443.9 L 1417.6 443.9 Z M 1417.6 411.2 "></path></clipPath><g clip-path="url(#clip-618)"><path d="M 1444.8 438.4 C 1450.7 432.4 1450.7 422.7 1444.8 416.7 C 1438.8 410.7 1429.1 410.7 1423.1 416.7 C 1417.1 422.7 1417.1 432.4 1423.1 438.4 C 1429.1 444.4 1438.8 444.4 1444.8 438.4 Z M 1444.8 438.4 " fill="#A6AAA8"></path></g></g><g><clipPath id="clip-619"><path d="M 1398.0 434.3 L 1451.5 434.3 L 1451.5 487.9 L 1398.0 487.9 Z M 1398.0 434.3 "></path></clipPath><g clip-path="url(#clip-619)"><path d="M 1442.9 479.3 C 1453.0 469.3 1453.0 452.9 1442.9 442.9 C 1432.9 432.8 1416.6 432.8 1406.5 442.9 C 1396.4 452.9 1396.4 469.3 1406.5 479.3 C 1416.6 489.4 1432.9 489.4 1442.9 479.3 Z M 1442.9 479.3 " fill="#A6AAA8"></path></g></g><g><clipPath id="clip-620"><path d="M 1401.6 470.7 L 1469.9 470.7 L 1469.9 539.0 L 1401.6 539.0 Z M 1401.6 470.7 "></path></clipPath><g clip-path="url(#clip-620)"><path d="M 1459.2 528.3 C 1472.1 515.4 1472.1 494.4 1459.2 481.5 C 1446.3 468.5 1425.3 468.5 1412.3 481.5 C 1399.4 494.4 1399.4 515.4 1412.3 528.3 C 1425.3 541.2 1446.3 541.2 1459.2 528.3 Z M 1459.2 528.3 " fill="#A6AAA8"></path></g></g><g><clipPath id="clip-621"><path d="M 1407.2 262.5 L 1460.7 262.5 L 1460.7 419.4 L 1407.2 419.4 Z M 1407.2 262.5 "></path></clipPath><g clip-path="url(#clip-621)"><path d="M 1408.2 418.4 L 1459.7 418.4 L 1459.7 263.5 L 1408.2 263.5 Z M 1408.2 418.4 " fill="#34A4DA"></path></g></g><g><clipPath id="clip-622"><path d="M 1553.5 432.4 L 1586.1 432.4 L 1586.1 465.1 L 1553.5 465.1 Z M 1553.5 432.4 "></path></clipPath><g clip-path="url(#clip-622)"><path d="M 1580.6 459.6 C 1586.6 453.6 1586.6 443.9 1580.6 437.9 C 1574.6 431.9 1564.9 431.9 1558.9 437.9 C 1553.0 443.9 1553.0 453.6 1558.9 459.6 C 1564.9 465.6 1574.6 465.6 1580.6 459.6 Z M 1580.6 459.6 " fill="#A6AAA8"></path></g></g><g><clipPath id="clip-623"><path d="M 1546.7 455.5 L 1600.2 455.5 L 1600.2 509.1 L 1546.7 509.1 Z M 1546.7 455.5 "></path></clipPath><g clip-path="url(#clip-623)"><path d="M 1591.7 500.5 C 1601.8 490.4 1601.8 474.1 1591.7 464.1 C 1581.6 454.0 1565.3 454.0 1555.3 464.1 C 1545.2 474.1 1545.2 490.4 1555.3 500.5 C 1565.3 510.6 1581.6 510.6 1591.7 500.5 Z M 1591.7 500.5 " fill="#A6AAA8"></path></g></g><g><clipPath id="clip-624"><path d="M 1537.5 491.9 L 1605.8 491.9 L 1605.8 560.2 L 1537.5 560.2 Z M 1537.5 491.9 "></path></clipPath><g clip-path="url(#clip-624)"><path d="M 1595.1 549.5 C 1608.0 536.5 1608.0 515.6 1595.1 502.6 C 1582.1 489.7 1561.1 489.7 1548.2 502.6 C 1535.3 515.6 1535.3 536.5 1548.2 549.5 C 1561.1 562.4 1582.1 562.4 1595.1 549.5 Z M 1595.1 549.5 " fill="#A6AAA8"></path></g></g><g><clipPath id="clip-625"><path d="M 1483.7 389.1 L 1516.3 389.1 L 1516.3 421.8 L 1483.7 421.8 Z M 1483.7 389.1 "></path></clipPath><g clip-path="url(#clip-625)"><path d="M 1510.9 416.3 C 1516.8 410.3 1516.8 400.6 1510.9 394.6 C 1504.9 388.6 1495.2 388.6 1489.2 394.6 C 1483.2 400.6 1483.2 410.3 1489.2 416.3 C 1495.2 422.3 1504.9 422.3 1510.9 416.3 Z M 1510.9 416.3 " fill="#A6AAA8"></path></g></g><g><clipPath id="clip-626"><path d="M 1482.5 412.2 L 1536.0 412.2 L 1536.0 465.8 L 1482.5 465.8 Z M 1482.5 412.2 "></path></clipPath><g clip-path="url(#clip-626)"><path d="M 1527.4 457.2 C 1537.5 447.2 1537.5 430.8 1527.4 420.8 C 1517.4 410.7 1501.1 410.7 1491.0 420.8 C 1480.9 430.8 1480.9 447.2 1491.0 457.2 C 1501.1 467.3 1517.4 467.3 1527.4 457.2 Z M 1527.4 457.2 " fill="#A6AAA8"></path></g></g><g><clipPath id="clip-627"><path d="M 1475.1 448.6 L 1543.4 448.6 L 1543.4 516.9 L 1475.1 516.9 Z M 1475.1 448.6 "></path></clipPath><g clip-path="url(#clip-627)"><path d="M 1532.7 506.2 C 1545.6 493.3 1545.6 472.3 1532.7 459.3 C 1519.7 446.4 1498.7 446.4 1485.8 459.3 C 1472.9 472.3 1472.9 493.3 1485.8 506.2 C 1498.7 519.1 1519.7 519.1 1532.7 506.2 Z M 1532.7 506.2 " fill="#A6AAA8"></path></g></g><g><clipPath id="clip-628"><path d="M 1475.1 242.3 L 1528.6 242.3 L 1528.6 399.1 L 1475.1 399.1 Z M 1475.1 242.3 "></path></clipPath><g clip-path="url(#clip-628)"><path d="M 1476.1 398.1 L 1527.6 398.1 L 1527.6 243.3 L 1476.1 243.3 Z M 1476.1 398.1 " fill="#34A4DA"></path></g></g><g><clipPath id="clip-629"><path d="M 1543.0 288.3 L 1596.6 288.3 L 1596.6 445.1 L 1543.0 445.1 Z M 1543.0 288.3 "></path></clipPath><g clip-path="url(#clip-629)"><path d="M 1544.0 444.1 L 1595.6 444.1 L 1595.6 289.3 L 1544.0 289.3 Z M 1544.0 444.1 " fill="#34A4DA"></path></g></g><g><clipPath id="clip-630"><path d="M 866.6 131.3 L 1265.9 131.3 L 1265.9 162.8 L 866.6 162.8 Z M 866.6 131.3 "></path></clipPath><g clip-path="url(#clip-630)"><path d="M 0.0 0.0 L 0.0 28.0 L 394.3 28.0 L 394.3 0.9 " fill="none" stroke="#34A4DA" stroke-width="3.00" stroke-dasharray="6.0, 6.0" transform="matrix(1.00, 0.00, 0.00, -1.00, 869.1, 161.8)"></path></g></g><g><clipPath id="clip-631"><path d="M 851.9 119.9 L 1280.5 119.9 L 1280.5 162.8 L 851.9 162.8 Z M 851.9 119.9 "></path></clipPath><g clip-path="url(#clip-631)"><path d="M 0.0 0.0 L 0.0 39.4 L 423.6 39.4 L 423.6 1.2 " fill="none" stroke="#34A4DA" stroke-width="3.00" transform="matrix(1.00, 0.00, 0.00, -1.00, 854.4, 161.8)"></path></g></g><g><clipPath id="clip-632"><path d="M 33.1 15.0 L 316.2 15.0 L 316.2 115.0 L 33.1 115.0 Z M 33.1 15.0 "></path></clipPath><g clip-path="url(#clip-632)"><text xml:space="preserve" font-family="AvenirNext-DemiBold" font-weight="bold" font-size="38.0" fill="#FFFFFF" transform="matrix(1.00, 0.00, -0.00, -1.00, 70.0, 53.0)">E</text><text xml:space="preserve" font-family="AvenirNext-DemiBold" font-weight="bold" font-size="38.0" fill="#FFFFFF" transform="matrix(1.00, 0.00, -0.00, -1.00, 93.2, 53.0)">N</text><text xml:space="preserve" font-family="AvenirNext-DemiBold" font-weight="bold" font-size="38.0" fill="#FFFFFF" transform="matrix(1.00, 0.00, -0.00, -1.00, 122.8, 53.0)">D</text><text xml:space="preserve" font-family="AvenirNext-DemiBold" font-weight="bold" font-size="38.0" fill="#FFFFFF" transform="matrix(1.00, 0.00, -0.00, -1.00, 151.9, 53.0)"> </text><text xml:space="preserve" font-family="AvenirNext-DemiBold" font-weight="bold" font-size="38.0" fill="#FFFFFF" transform="matrix(1.00, 0.00, -0.00, -1.00, 161.4, 53.0)">U</text><text xml:space="preserve" font-family="AvenirNext-DemiBold" font-weight="bold" font-size="38.0" fill="#FFFFFF" transform="matrix(1.00, 0.00, -0.00, -1.00, 188.5, 53.0)">S</text><text xml:space="preserve" font-family="AvenirNext-DemiBold" font-weight="bold" font-size="38.0" fill="#FFFFFF" transform="matrix(1.00, 0.00, -0.00, -1.00, 210.3, 53.0)">E</text><text xml:space="preserve" font-family="AvenirNext-DemiBold" font-weight="bold" font-size="38.0" fill="#FFFFFF" transform="matrix(1.00, 0.00, -0.00, -1.00, 233.5, 53.0)">R</text><text xml:space="preserve" font-family="AvenirNext-DemiBold" font-weight="bold" font-size="38.0" fill="#FFFFFF" transform="matrix(1.00, 0.00, -0.00, -1.00, 257.4, 53.0)">S</text></g></g><g><clipPath id="clip-633"><path d="M 665.6 -7.2 L 1063.1 -7.2 L 1063.1 112.4 L 665.6 112.4 Z M 665.6 -7.2 "></path></clipPath><g clip-path="url(#clip-633)"><text xml:space="preserve" font-family="AvenirNext-DemiBold" font-weight="bold" font-size="38.0" fill="#FFFFFF" transform="matrix(1.00, 0.00, -0.00, -1.00, 703.0, 61.0)">C</text><text xml:space="preserve" font-family="AvenirNext-DemiBold" font-weight="bold" font-size="38.0" fill="#FFFFFF" transform="matrix(1.00, 0.00, -0.00, -1.00, 729.4, 61.0)">R</text><text xml:space="preserve" font-family="AvenirNext-DemiBold" font-weight="bold" font-size="38.0" fill="#FFFFFF" transform="matrix(1.00, 0.00, -0.00, -1.00, 753.4, 61.0)">O</text><text xml:space="preserve" font-family="AvenirNext-DemiBold" font-weight="bold" font-size="38.0" fill="#FFFFFF" transform="matrix(1.00, 0.00, -0.00, -1.00, 785.6, 61.0)">S</text><text xml:space="preserve" font-family="AvenirNext-DemiBold" font-weight="bold" font-size="38.0" fill="#FFFFFF" transform="matrix(1.00, 0.00, -0.00, -1.00, 807.4, 61.0)">S</text><text xml:space="preserve" font-family="AvenirNext-DemiBold" font-weight="bold" font-size="38.0" fill="#FFFFFF" transform="matrix(1.00, 0.00, -0.00, -1.00, 829.2, 61.0)"> </text><text xml:space="preserve" font-family="AvenirNext-DemiBold" font-weight="bold" font-size="38.0" fill="#FFFFFF" transform="matrix(1.00, 0.00, -0.00, -1.00, 838.7, 61.0)">C</text><text xml:space="preserve" font-family="AvenirNext-DemiBold" font-weight="bold" font-size="38.0" fill="#FFFFFF" transform="matrix(1.00, 0.00, -0.00, -1.00, 864.7, 61.0)">O</text><text xml:space="preserve" font-family="AvenirNext-DemiBold" font-weight="bold" font-size="38.0" fill="#FFFFFF" transform="matrix(1.00, 0.00, -0.00, -1.00, 897.0, 61.0)">N</text><text xml:space="preserve" font-family="AvenirNext-DemiBold" font-weight="bold" font-size="38.0" fill="#FFFFFF" transform="matrix(1.00, 0.00, -0.00, -1.00, 926.6, 61.0)">N</text><text xml:space="preserve" font-family="AvenirNext-DemiBold" font-weight="bold" font-size="38.0" fill="#FFFFFF" transform="matrix(1.00, 0.00, -0.00, -1.00, 956.3, 61.0)">E</text><text xml:space="preserve" font-family="AvenirNext-DemiBold" font-weight="bold" font-size="38.0" fill="#FFFFFF" transform="matrix(1.00, 0.00, -0.00, -1.00, 979.5, 61.0)">C</text><text xml:space="preserve" font-family="AvenirNext-DemiBold" font-weight="bold" font-size="38.0" fill="#FFFFFF" transform="matrix(1.00, 0.00, -0.00, -1.00, 1005.7, 61.0)">T</text><text xml:space="preserve" font-family="AvenirNext-DemiBold" font-weight="bold" font-size="38.0" fill="#FFFFFF" transform="matrix(1.00, 0.00, -0.00, -1.00, 1026.3, 61.0)"> </text></g></g><g><clipPath id="clip-634"><path d="M 665.6 6.7 L 1063.1 6.7 L 1063.1 99.4 L 665.6 99.4 Z M 665.6 6.7 "></path></clipPath><g clip-path="url(#clip-634)"><text xml:space="preserve" font-family="AvenirNext-DemiBold" font-weight="bold" font-size="38.0" fill="#FFFFFF" transform="matrix(1.00, 0.00, -0.00, -1.00, 753.0, 20.0)">W</text><text xml:space="preserve" font-family="AvenirNext-DemiBold" font-weight="bold" font-size="38.0" fill="#FFFFFF" transform="matrix(1.00, 0.00, -0.00, -1.00, 791.2, 20.0)">I</text><text xml:space="preserve" font-family="AvenirNext-DemiBold" font-weight="bold" font-size="38.0" fill="#FFFFFF" transform="matrix(1.00, 0.00, -0.00, -1.00, 801.9, 20.0)">T</text><text xml:space="preserve" font-family="AvenirNext-DemiBold" font-weight="bold" font-size="38.0" fill="#FFFFFF" transform="matrix(1.00, 0.00, -0.00, -1.00, 823.5, 20.0)">H</text><text xml:space="preserve" font-family="AvenirNext-DemiBold" font-weight="bold" font-size="38.0" fill="#FFFFFF" transform="matrix(1.00, 0.00, -0.00, -1.00, 851.5, 20.0)"> </text><text xml:space="preserve" font-family="AvenirNext-DemiBold" font-weight="bold" font-size="38.0" fill="#FFFFFF" transform="matrix(1.00, 0.00, -0.00, -1.00, 861.0, 20.0)">M</text><text xml:space="preserve" font-family="AvenirNext-DemiBold" font-weight="bold" font-size="38.0" fill="#FFFFFF" transform="matrix(1.00, 0.00, -0.00, -1.00, 896.0, 20.0)">O</text><text xml:space="preserve" font-family="AvenirNext-DemiBold" font-weight="bold" font-size="38.0" fill="#FFFFFF" transform="matrix(1.00, 0.00, -0.00, -1.00, 928.3, 20.0)">S</text><text xml:space="preserve" font-family="AvenirNext-DemiBold" font-weight="bold" font-size="38.0" fill="#FFFFFF" transform="matrix(1.00, 0.00, -0.00, -1.00, 950.1, 20.0)">C</text></g></g><g><clipPath id="clip-635"><path d="M 1214.7 15.0 L 1612.2 15.0 L 1612.2 115.0 L 1214.7 115.0 Z M 1214.7 15.0 "></path></clipPath><g clip-path="url(#clip-635)"><text xml:space="preserve" font-family="AvenirNext-DemiBold" font-weight="bold" font-size="38.0" fill="#FFFFFF" transform="matrix(1.00, 0.00, -0.00, -1.00, 1256.0, 53.0)">C</text><text xml:space="preserve" font-family="AvenirNext-DemiBold" font-weight="bold" font-size="38.0" fill="#FFFFFF" transform="matrix(1.00, 0.00, -0.00, -1.00, 1282.4, 53.0)">E</text><text xml:space="preserve" font-family="AvenirNext-DemiBold" font-weight="bold" font-size="38.0" fill="#FFFFFF" transform="matrix(1.00, 0.00, -0.00, -1.00, 1305.6, 53.0)">N</text><text xml:space="preserve" font-family="AvenirNext-DemiBold" font-weight="bold" font-size="38.0" fill="#FFFFFF" transform="matrix(1.00, 0.00, -0.00, -1.00, 1335.3, 53.0)">T</text><text xml:space="preserve" font-family="AvenirNext-DemiBold" font-weight="bold" font-size="38.0" fill="#FFFFFF" transform="matrix(1.00, 0.00, -0.00, -1.00, 1356.9, 53.0)">R</text><text xml:space="preserve" font-family="AvenirNext-DemiBold" font-weight="bold" font-size="38.0" fill="#FFFFFF" transform="matrix(1.00, 0.00, -0.00, -1.00, 1380.8, 53.0)">A</text><text xml:space="preserve" font-family="AvenirNext-DemiBold" font-weight="bold" font-size="38.0" fill="#FFFFFF" transform="matrix(1.00, 0.00, -0.00, -1.00, 1407.6, 53.0)">L</text><text xml:space="preserve" font-family="AvenirNext-DemiBold" font-weight="bold" font-size="38.0" fill="#FFFFFF" transform="matrix(1.00, 0.00, -0.00, -1.00, 1426.1, 53.0)"> </text><text xml:space="preserve" font-family="AvenirNext-DemiBold" font-weight="bold" font-size="38.0" fill="#FFFFFF" transform="matrix(1.00, 0.00, -0.00, -1.00, 1435.6, 53.0)">O</text><text xml:space="preserve" font-family="AvenirNext-DemiBold" font-weight="bold" font-size="38.0" fill="#FFFFFF" transform="matrix(1.00, 0.00, -0.00, -1.00, 1467.8, 53.0)">F</text><text xml:space="preserve" font-family="AvenirNext-DemiBold" font-weight="bold" font-size="38.0" fill="#FFFFFF" transform="matrix(1.00, 0.00, -0.00, -1.00, 1489.6, 53.0)">F</text><text xml:space="preserve" font-family="AvenirNext-DemiBold" font-weight="bold" font-size="38.0" fill="#FFFFFF" transform="matrix(1.00, 0.00, -0.00, -1.00, 1511.4, 53.0)">I</text><text xml:space="preserve" font-family="AvenirNext-DemiBold" font-weight="bold" font-size="38.0" fill="#FFFFFF" transform="matrix(1.00, 0.00, -0.00, -1.00, 1522.1, 53.0)">C</text><text xml:space="preserve" font-family="AvenirNext-DemiBold" font-weight="bold" font-size="38.0" fill="#FFFFFF" transform="matrix(1.00, 0.00, -0.00, -1.00, 1548.6, 53.0)">E</text></g></g></g></svg>