<?xml version="1.0" encoding="UTF-8" standalone="no"?><svg xmlns="http://www.w3.org/2000/svg" xmlns:xlink="http://www.w3.org/1999/xlink" clip-rule="evenodd" stroke-miterlimit="4.00" viewBox="0 0 1016 101"><desc>SVG generated by Keynote</desc><defs></defs><g transform="matrix(1.00, 0.00, -0.00, -1.00, 0.0, 101.0)"><text xml:space="preserve" font-family="DINCondensed-Bold" font-weight="bold" font-size="132.0" fill="#FFFFFF" transform="matrix(1.00, 0.00, -0.00, -1.00, -4.0, 5.0)">E</text><text xml:space="preserve" font-family="DINCondensed-Bold" font-weight="bold" font-size="132.0" fill="#FFFFFF" transform="matrix(1.00, 0.00, -0.00, -1.00, 44.8, 5.0)">N</text><text xml:space="preserve" font-family="DINCondensed-Bold" font-weight="bold" font-size="132.0" fill="#FFFFFF" transform="matrix(1.00, 0.00, -0.00, -1.00, 103.4, 5.0)">A</text><text xml:space="preserve" font-family="DINCondensed-Bold" font-weight="bold" font-size="132.0" fill="#FFFFFF" transform="matrix(1.00, 0.00, -0.00, -1.00, 157.2, 5.0)">B</text><text xml:space="preserve" font-family="DINCondensed-Bold" font-weight="bold" font-size="132.0" fill="#FFFFFF" transform="matrix(1.00, 0.00, -0.00, -1.00, 213.4, 5.0)">L</text><text xml:space="preserve" font-family="DINCondensed-Bold" font-weight="bold" font-size="132.0" fill="#FFFFFF" transform="matrix(1.00, 0.00, -0.00, -1.00, 262.2, 5.0)">E</text><text xml:space="preserve" font-family="DINCondensed-Bold" font-weight="bold" font-size="132.0" fill="#FFFFFF" transform="matrix(1.00, 0.00, -0.00, -1.00, 311.1, 5.0)"> </text><text xml:space="preserve" font-family="DINCondensed-Bold" font-weight="bold" font-size="132.0" fill="#FFFFFF" transform="matrix(1.00, 0.00, -0.00, -1.00, 335.6, 5.0)">C</text><text xml:space="preserve" font-family="DINCondensed-Bold" font-weight="bold" font-size="132.0" fill="#FFFFFF" transform="matrix(1.00, 0.00, -0.00, -1.00, 389.4, 5.0)">O</text><text xml:space="preserve" font-family="DINCondensed-Bold" font-weight="bold" font-size="132.0" fill="#FFFFFF" transform="matrix(1.00, 0.00, -0.00, -1.00, 445.6, 5.0)">M</text><text xml:space="preserve" font-family="DINCondensed-Bold" font-weight="bold" font-size="132.0" fill="#FFFFFF" transform="matrix(1.00, 0.00, -0.00, -1.00, 519.0, 5.0)">M</text><text xml:space="preserve" font-family="DINCondensed-Bold" font-weight="bold" font-size="132.0" fill="#FFFFFF" transform="matrix(1.00, 0.00, -0.00, -1.00, 592.4, 5.0)">U</text><text xml:space="preserve" font-family="DINCondensed-Bold" font-weight="bold" font-size="132.0" fill="#FFFFFF" transform="matrix(1.00, 0.00, -0.00, -1.00, 648.6, 5.0)">N</text><text xml:space="preserve" font-family="DINCondensed-Bold" font-weight="bold" font-size="132.0" fill="#FFFFFF" transform="matrix(1.00, 0.00, -0.00, -1.00, 707.2, 5.0)">I</text><text xml:space="preserve" font-family="DINCondensed-Bold" font-weight="bold" font-size="132.0" fill="#FFFFFF" transform="matrix(1.00, 0.00, -0.00, -1.00, 734.1, 5.0)">C</text><text xml:space="preserve" font-family="DINCondensed-Bold" font-weight="bold" font-size="132.0" fill="#FFFFFF" transform="matrix(1.00, 0.00, -0.00, -1.00, 787.9, 5.0)">A</text><text xml:space="preserve" font-family="DINCondensed-Bold" font-weight="bold" font-size="132.0" fill="#FFFFFF" transform="matrix(1.00, 0.00, -0.00, -1.00, 834.3, 5.0)">T</text><text xml:space="preserve" font-family="DINCondensed-Bold" font-weight="bold" font-size="132.0" fill="#FFFFFF" transform="matrix(1.00, 0.00, -0.00, -1.00, 878.2, 5.0)">I</text><text xml:space="preserve" font-family="DINCondensed-Bold" font-weight="bold" font-size="132.0" fill="#FFFFFF" transform="matrix(1.00, 0.00, -0.00, -1.00, 905.1, 5.0)">O</text><text xml:space="preserve" font-family="DINCondensed-Bold" font-weight="bold" font-size="132.0" fill="#FFFFFF" transform="matrix(1.00, 0.00, -0.00, -1.00, 961.3, 5.0)">N</text></g></svg>