<?xml version="1.0" encoding="UTF-8" standalone="no"?><svg xmlns="http://www.w3.org/2000/svg" xmlns:xlink="http://www.w3.org/1999/xlink" clip-rule="evenodd" stroke-miterlimit="4.00" viewBox="0 0 916 100"><desc>SVG generated by Keynote</desc><defs></defs><g transform="matrix(1.00, 0.00, -0.00, -1.00, 0.0, 100.0)"><text xml:space="preserve" font-family="DINCondensed-Bold" font-weight="bold" font-size="132.0" fill="#FFFFFF" transform="matrix(1.00, 0.00, -0.00, -1.00, 0.0, 3.0)">W</text><text xml:space="preserve" font-family="DINCondensed-Bold" font-weight="bold" font-size="132.0" fill="#FFFFFF" transform="matrix(1.00, 0.00, -0.00, -1.00, 76.7, 3.0)">O</text><text xml:space="preserve" font-family="DINCondensed-Bold" font-weight="bold" font-size="132.0" fill="#FFFFFF" transform="matrix(1.00, 0.00, -0.00, -1.00, 132.9, 3.0)">U</text><text xml:space="preserve" font-family="DINCondensed-Bold" font-weight="bold" font-size="132.0" fill="#FFFFFF" transform="matrix(1.00, 0.00, -0.00, -1.00, 189.2, 3.0)">L</text><text xml:space="preserve" font-family="DINCondensed-Bold" font-weight="bold" font-size="132.0" fill="#FFFFFF" transform="matrix(1.00, 0.00, -0.00, -1.00, 238.0, 3.0)">D</text><text xml:space="preserve" font-family="DINCondensed-Bold" font-weight="bold" font-size="132.0" fill="#FFFFFF" transform="matrix(1.00, 0.00, -0.00, -1.00, 294.2, 3.0)"> </text><text xml:space="preserve" font-family="DINCondensed-Bold" font-weight="bold" font-size="132.0" fill="#FFFFFF" transform="matrix(1.00, 0.00, -0.00, -1.00, 318.8, 3.0)">O</text><text xml:space="preserve" font-family="DINCondensed-Bold" font-weight="bold" font-size="132.0" fill="#FFFFFF" transform="matrix(1.00, 0.00, -0.00, -1.00, 373.4, 3.0)">T</text><text xml:space="preserve" font-family="DINCondensed-Bold" font-weight="bold" font-size="132.0" fill="#FFFFFF" transform="matrix(1.00, 0.00, -0.00, -1.00, 417.3, 3.0)">H</text><text xml:space="preserve" font-family="DINCondensed-Bold" font-weight="bold" font-size="132.0" fill="#FFFFFF" transform="matrix(1.00, 0.00, -0.00, -1.00, 473.5, 3.0)">E</text><text xml:space="preserve" font-family="DINCondensed-Bold" font-weight="bold" font-size="132.0" fill="#FFFFFF" transform="matrix(1.00, 0.00, -0.00, -1.00, 522.3, 3.0)">R</text><text xml:space="preserve" font-family="DINCondensed-Bold" font-weight="bold" font-size="132.0" fill="#FFFFFF" transform="matrix(1.00, 0.00, -0.00, -1.00, 578.6, 3.0)">W</text><text xml:space="preserve" font-family="DINCondensed-Bold" font-weight="bold" font-size="132.0" fill="#FFFFFF" transform="matrix(1.00, 0.00, -0.00, -1.00, 656.8, 3.0)">I</text><text xml:space="preserve" font-family="DINCondensed-Bold" font-weight="bold" font-size="132.0" fill="#FFFFFF" transform="matrix(1.00, 0.00, -0.00, -1.00, 683.8, 3.0)">S</text><text xml:space="preserve" font-family="DINCondensed-Bold" font-weight="bold" font-size="132.0" fill="#FFFFFF" transform="matrix(1.00, 0.00, -0.00, -1.00, 737.4, 3.0)">E</text><text xml:space="preserve" font-family="DINCondensed-Bold" font-weight="bold" font-size="132.0" fill="#FFFFFF" transform="matrix(1.00, 0.00, -0.00, -1.00, 786.2, 3.0)"> </text><text xml:space="preserve" font-family="DINCondensed-Bold" font-weight="bold" font-size="132.0" fill="#FFFFFF" transform="matrix(1.00, 0.00, -0.00, -1.00, 810.7, 3.0)">B</text><text xml:space="preserve" font-family="DINCondensed-Bold" font-weight="bold" font-size="132.0" fill="#FFFFFF" transform="matrix(1.00, 0.00, -0.00, -1.00, 867.0, 3.0)">E</text></g></svg>