<?xml version="1.0" encoding="UTF-8" standalone="no"?><svg xmlns="http://www.w3.org/2000/svg" xmlns:xlink="http://www.w3.org/1999/xlink" clip-rule="evenodd" stroke-miterlimit="4.00" viewBox="0 0 716 100"><desc>SVG generated by Keynote</desc><defs></defs><g transform="matrix(1.00, 0.00, -0.00, -1.00, 0.0, 100.0)"><text xml:space="preserve" font-family="DINCondensed-Bold" font-weight="bold" font-size="132.0" fill="#FFFFFF" transform="matrix(1.00, 0.00, -0.00, -1.00, -4.0, 4.0)">O</text><text xml:space="preserve" font-family="DINCondensed-Bold" font-weight="bold" font-size="132.0" fill="#FFFFFF" transform="matrix(1.00, 0.00, -0.00, -1.00, 49.9, 4.0)">V</text><text xml:space="preserve" font-family="DINCondensed-Bold" font-weight="bold" font-size="132.0" fill="#FFFFFF" transform="matrix(1.00, 0.00, -0.00, -1.00, 103.6, 4.0)">E</text><text xml:space="preserve" font-family="DINCondensed-Bold" font-weight="bold" font-size="132.0" fill="#FFFFFF" transform="matrix(1.00, 0.00, -0.00, -1.00, 152.4, 4.0)">R</text><text xml:space="preserve" font-family="DINCondensed-Bold" font-weight="bold" font-size="132.0" fill="#FFFFFF" transform="matrix(1.00, 0.00, -0.00, -1.00, 208.7, 4.0)">L</text><text xml:space="preserve" font-family="DINCondensed-Bold" font-weight="bold" font-size="132.0" fill="#FFFFFF" transform="matrix(1.00, 0.00, -0.00, -1.00, 257.5, 4.0)">O</text><text xml:space="preserve" font-family="DINCondensed-Bold" font-weight="bold" font-size="132.0" fill="#FFFFFF" transform="matrix(1.00, 0.00, -0.00, -1.00, 312.1, 4.0)">A</text><text xml:space="preserve" font-family="DINCondensed-Bold" font-weight="bold" font-size="132.0" fill="#FFFFFF" transform="matrix(1.00, 0.00, -0.00, -1.00, 365.9, 4.0)">D</text><text xml:space="preserve" font-family="DINCondensed-Bold" font-weight="bold" font-size="132.0" fill="#FFFFFF" transform="matrix(1.00, 0.00, -0.00, -1.00, 422.1, 4.0)">E</text><text xml:space="preserve" font-family="DINCondensed-Bold" font-weight="bold" font-size="132.0" fill="#FFFFFF" transform="matrix(1.00, 0.00, -0.00, -1.00, 470.9, 4.0)">D</text><text xml:space="preserve" font-family="DINCondensed-Bold" font-weight="bold" font-size="132.0" fill="#FFFFFF" transform="matrix(1.00, 0.00, -0.00, -1.00, 527.2, 4.0)"> </text><text xml:space="preserve" font-family="DINCondensed-Bold" font-weight="bold" font-size="132.0" fill="#FFFFFF" transform="matrix(1.00, 0.00, -0.00, -1.00, 551.7, 4.0)">A</text><text xml:space="preserve" font-family="DINCondensed-Bold" font-weight="bold" font-size="132.0" fill="#FFFFFF" transform="matrix(1.00, 0.00, -0.00, -1.00, 605.4, 4.0)">N</text><text xml:space="preserve" font-family="DINCondensed-Bold" font-weight="bold" font-size="132.0" fill="#FFFFFF" transform="matrix(1.00, 0.00, -0.00, -1.00, 664.1, 4.0)">D</text></g></svg>