<?xml version="1.0" encoding="UTF-8" standalone="no"?><svg xmlns="http://www.w3.org/2000/svg" xmlns:xlink="http://www.w3.org/1999/xlink" clip-rule="evenodd" stroke-miterlimit="4.00" viewBox="0 0 740 163"><desc>SVG generated by Keynote</desc><defs></defs><g transform="matrix(1.00, 0.00, -0.00, -1.00, 0.0, 163.0)"><text xml:space="preserve" font-family="DINCondensed-Bold" font-weight="bold" font-size="219.0" fill="#FEFFFE" transform="matrix(1.00, 0.00, -0.00, -1.00, -9.0, 4.0)">I</text><text xml:space="preserve" font-family="DINCondensed-Bold" font-weight="bold" font-size="219.0" fill="#FEFFFE" transform="matrix(1.00, 0.00, -0.00, -1.00, 35.7, 4.0)">N</text><text xml:space="preserve" font-family="DINCondensed-Bold" font-weight="bold" font-size="219.0" fill="#FEFFFE" transform="matrix(1.00, 0.00, -0.00, -1.00, 132.9, 4.0)">C</text><text xml:space="preserve" font-family="DINCondensed-Bold" font-weight="bold" font-size="219.0" fill="#FEFFFE" transform="matrix(1.00, 0.00, -0.00, -1.00, 222.0, 4.0)">R</text><text xml:space="preserve" font-family="DINCondensed-Bold" font-weight="bold" font-size="219.0" fill="#FEFFFE" transform="matrix(1.00, 0.00, -0.00, -1.00, 315.3, 4.0)">E</text><text xml:space="preserve" font-family="DINCondensed-Bold" font-weight="bold" font-size="219.0" fill="#FEFFFE" transform="matrix(1.00, 0.00, -0.00, -1.00, 396.3, 4.0)">A</text><text xml:space="preserve" font-family="DINCondensed-Bold" font-weight="bold" font-size="219.0" fill="#FEFFFE" transform="matrix(1.00, 0.00, -0.00, -1.00, 485.4, 4.0)">S</text><text xml:space="preserve" font-family="DINCondensed-Bold" font-weight="bold" font-size="219.0" fill="#FEFFFE" transform="matrix(1.00, 0.00, -0.00, -1.00, 574.3, 4.0)">E</text><text xml:space="preserve" font-family="DINCondensed-Bold" font-weight="bold" font-size="219.0" fill="#FEFFFE" transform="matrix(1.00, 0.00, -0.00, -1.00, 655.3, 4.0)">D</text></g></svg>