<?xml version="1.0" encoding="UTF-8" standalone="no"?><svg xmlns="http://www.w3.org/2000/svg" xmlns:xlink="http://www.w3.org/1999/xlink" clip-rule="evenodd" stroke-miterlimit="4.00" viewBox="0 0 84 246"><desc>SVG generated by Keynote</desc><defs></defs><g transform="matrix(1.00, 0.00, -0.00, -1.00, 0.0, 246.0)"><g><clipPath id="clip-816"><path d="M 36.4 0.1 L 46.7 0.1 L 46.7 245.6 L 36.4 245.6 Z M 36.4 0.1 "></path></clipPath><g clip-path="url(#clip-816)"><path d="M 37.4 244.6 L 45.7 244.6 L 45.7 1.1 L 37.4 1.1 Z M 37.4 244.6 " fill="#34A4DA"></path></g></g><g><clipPath id="clip-817"><path d="M 0.1 194.3 L 0.1 206.0 L 83.0 206.0 L 83.0 194.3 Z M 0.1 194.3 "></path></clipPath><g clip-path="url(#clip-817)"><path d="M 1.1 195.3 L 1.1 205.0 L 82.0 205.0 L 82.0 195.3 Z M 1.1 195.3 " fill="#34A4DA"></path></g></g><g><clipPath id="clip-818"><path d="M 0.1 224.5 L 0.1 236.2 L 83.0 236.2 L 83.0 224.5 Z M 0.1 224.5 "></path></clipPath><g clip-path="url(#clip-818)"><path d="M 1.1 225.5 L 1.1 235.2 L 82.0 235.2 L 82.0 225.5 Z M 1.1 225.5 " fill="#34A4DA"></path></g></g></g></svg>