<?xml version="1.0" encoding="UTF-8" standalone="no"?><svg xmlns="http://www.w3.org/2000/svg" xmlns:xlink="http://www.w3.org/1999/xlink" clip-rule="evenodd" stroke-miterlimit="4.00" viewBox="0 0 644 27"><desc>SVG generated by Keynote</desc><defs></defs><g transform="matrix(1.00, 0.00, -0.00, -1.00, 0.0, 27.0)"><text xml:space="preserve" font-family="DINAlternate-Bold" font-weight="bold" font-size="32.0" fill="#838686" transform="matrix(1.00, 0.00, -0.00, -1.00, -1.0, 3.0)">I</text><text xml:space="preserve" font-family="DINAlternate-Bold" font-weight="bold" font-size="32.0" fill="#838686" transform="matrix(1.00, 0.00, -0.00, -1.00, 8.8, 3.0)">M</text><text xml:space="preserve" font-family="DINAlternate-Bold" font-weight="bold" font-size="32.0" fill="#838686" transform="matrix(1.00, 0.00, -0.00, -1.00, 34.7, 3.0)">P</text><text xml:space="preserve" font-family="DINAlternate-Bold" font-weight="bold" font-size="32.0" fill="#838686" transform="matrix(1.00, 0.00, -0.00, -1.00, 55.2, 3.0)">L</text><text xml:space="preserve" font-family="DINAlternate-Bold" font-weight="bold" font-size="32.0" fill="#838686" transform="matrix(1.00, 0.00, -0.00, -1.00, 74.6, 3.0)">E</text><text xml:space="preserve" font-family="DINAlternate-Bold" font-weight="bold" font-size="32.0" fill="#838686" transform="matrix(1.00, 0.00, -0.00, -1.00, 94.0, 3.0)">M</text><text xml:space="preserve" font-family="DINAlternate-Bold" font-weight="bold" font-size="32.0" fill="#838686" transform="matrix(1.00, 0.00, -0.00, -1.00, 119.9, 3.0)">E</text><text xml:space="preserve" font-family="DINAlternate-Bold" font-weight="bold" font-size="32.0" fill="#838686" transform="matrix(1.00, 0.00, -0.00, -1.00, 139.3, 3.0)">N</text><text xml:space="preserve" font-family="DINAlternate-Bold" font-weight="bold" font-size="32.0" fill="#838686" transform="matrix(1.00, 0.00, -0.00, -1.00, 162.7, 3.0)">T</text><text xml:space="preserve" font-family="DINAlternate-Bold" font-weight="bold" font-size="32.0" fill="#838686" transform="matrix(1.00, 0.00, -0.00, -1.00, 178.0, 3.0)">A</text><text xml:space="preserve" font-family="DINAlternate-Bold" font-weight="bold" font-size="32.0" fill="#838686" transform="matrix(1.00, 0.00, -0.00, -1.00, 196.7, 3.0)">T</text><text xml:space="preserve" font-family="DINAlternate-Bold" font-weight="bold" font-size="32.0" fill="#838686" transform="matrix(1.00, 0.00, -0.00, -1.00, 214.3, 3.0)">I</text><text xml:space="preserve" font-family="DINAlternate-Bold" font-weight="bold" font-size="32.0" fill="#838686" transform="matrix(1.00, 0.00, -0.00, -1.00, 224.2, 3.0)">O</text><text xml:space="preserve" font-family="DINAlternate-Bold" font-weight="bold" font-size="32.0" fill="#838686" transform="matrix(1.00, 0.00, -0.00, -1.00, 245.3, 3.0)">N</text><text xml:space="preserve" font-family="DINAlternate-Bold" font-weight="bold" font-size="32.0" fill="#838686" transform="matrix(1.00, 0.00, -0.00, -1.00, 268.7, 3.0)"> </text><text xml:space="preserve" font-family="DINAlternate-Bold" font-weight="bold" font-size="32.0" fill="#838686" transform="matrix(1.00, 0.00, -0.00, -1.00, 278.0, 3.0)">—</text><text xml:space="preserve" font-family="DINAlternate-Bold" font-weight="bold" font-size="32.0" fill="#838686" transform="matrix(1.00, 0.00, -0.00, -1.00, 311.6, 3.0)"> </text><text xml:space="preserve" font-family="DINAlternate-Bold" font-weight="bold" font-size="32.0" fill="#838686" transform="matrix(1.00, 0.00, -0.00, -1.00, 320.9, 3.0)">S</text><text xml:space="preserve" font-family="DINAlternate-Bold" font-weight="bold" font-size="32.0" fill="#838686" transform="matrix(1.00, 0.00, -0.00, -1.00, 340.8, 3.0)">E</text><text xml:space="preserve" font-family="DINAlternate-Bold" font-weight="bold" font-size="32.0" fill="#838686" transform="matrix(1.00, 0.00, -0.00, -1.00, 360.2, 3.0)">M</text><text xml:space="preserve" font-family="DINAlternate-Bold" font-weight="bold" font-size="32.0" fill="#838686" transform="matrix(1.00, 0.00, -0.00, -1.00, 386.1, 3.0)">E</text><text xml:space="preserve" font-family="DINAlternate-Bold" font-weight="bold" font-size="32.0" fill="#838686" transform="matrix(1.00, 0.00, -0.00, -1.00, 405.4, 3.0)">S</text><text xml:space="preserve" font-family="DINAlternate-Bold" font-weight="bold" font-size="32.0" fill="#838686" transform="matrix(1.00, 0.00, -0.00, -1.00, 425.4, 3.0)">T</text><text xml:space="preserve" font-family="DINAlternate-Bold" font-weight="bold" font-size="32.0" fill="#838686" transform="matrix(1.00, 0.00, -0.00, -1.00, 443.0, 3.0)">E</text><text xml:space="preserve" font-family="DINAlternate-Bold" font-weight="bold" font-size="32.0" fill="#838686" transform="matrix(1.00, 0.00, -0.00, -1.00, 462.4, 3.0)">R</text><text xml:space="preserve" font-family="DINAlternate-Bold" font-weight="bold" font-size="32.0" fill="#838686" transform="matrix(1.00, 0.00, -0.00, -1.00, 483.5, 3.0)"> </text><text xml:space="preserve" font-family="DINAlternate-Bold" font-weight="bold" font-size="32.0" fill="#838686" transform="matrix(1.00, 0.00, -0.00, -1.00, 492.8, 3.0)">R</text><text xml:space="preserve" font-family="DINAlternate-Bold" font-weight="bold" font-size="32.0" fill="#838686" transform="matrix(1.00, 0.00, -0.00, -1.00, 513.9, 3.0)">O</text><text xml:space="preserve" font-family="DINAlternate-Bold" font-weight="bold" font-size="32.0" fill="#838686" transform="matrix(1.00, 0.00, -0.00, -1.00, 534.4, 3.0)">A</text><text xml:space="preserve" font-family="DINAlternate-Bold" font-weight="bold" font-size="32.0" fill="#838686" transform="matrix(1.00, 0.00, -0.00, -1.00, 555.5, 3.0)">D</text><text xml:space="preserve" font-family="DINAlternate-Bold" font-weight="bold" font-size="32.0" fill="#838686" transform="matrix(1.00, 0.00, -0.00, -1.00, 577.3, 3.0)">M</text><text xml:space="preserve" font-family="DINAlternate-Bold" font-weight="bold" font-size="32.0" fill="#838686" transform="matrix(1.00, 0.00, -0.00, -1.00, 603.1, 3.0)">A</text><text xml:space="preserve" font-family="DINAlternate-Bold" font-weight="bold" font-size="32.0" fill="#838686" transform="matrix(1.00, 0.00, -0.00, -1.00, 624.2, 3.0)">P</text></g></svg>