<?xml version="1.0" encoding="UTF-8" standalone="no"?><svg xmlns="http://www.w3.org/2000/svg" xmlns:xlink="http://www.w3.org/1999/xlink" clip-rule="evenodd" stroke-miterlimit="4.00" viewBox="0 0 455 53"><desc>SVG generated by Keynote</desc><defs></defs><g transform="matrix(1.00, 0.00, -0.00, -1.00, 0.0, 53.0)"><g><clipPath id="clip-700"><path d="M 0.0 0.0 L 455.0 0.0 L 455.0 51.4 L 0.0 51.4 Z M 0.0 0.0 "></path></clipPath><g clip-path="url(#clip-700)"><text xml:space="preserve" font-family="DINCondensed-Bold" font-weight="bold" font-size="68.9" fill="#34A4DA" transform="matrix(1.00, 0.00, -0.00, -1.00, -1.0, 2.0)">P</text><text xml:space="preserve" font-family="DINCondensed-Bold" font-weight="bold" font-size="68.9" fill="#34A4DA" transform="matrix(1.00, 0.00, -0.00, -1.00, 27.0, 2.0)">O</text><text xml:space="preserve" font-family="DINCondensed-Bold" font-weight="bold" font-size="68.9" fill="#34A4DA" transform="matrix(1.00, 0.00, -0.00, -1.00, 55.6, 2.0)">T</text><text xml:space="preserve" font-family="DINCondensed-Bold" font-weight="bold" font-size="68.9" fill="#34A4DA" transform="matrix(1.00, 0.00, -0.00, -1.00, 78.4, 2.0)">E</text><text xml:space="preserve" font-family="DINCondensed-Bold" font-weight="bold" font-size="68.9" fill="#34A4DA" transform="matrix(1.00, 0.00, -0.00, -1.00, 103.9, 2.0)">N</text><text xml:space="preserve" font-family="DINCondensed-Bold" font-weight="bold" font-size="68.9" fill="#34A4DA" transform="matrix(1.00, 0.00, -0.00, -1.00, 134.5, 2.0)">T</text><text xml:space="preserve" font-family="DINCondensed-Bold" font-weight="bold" font-size="68.9" fill="#34A4DA" transform="matrix(1.00, 0.00, -0.00, -1.00, 157.4, 2.0)">I</text><text xml:space="preserve" font-family="DINCondensed-Bold" font-weight="bold" font-size="68.9" fill="#34A4DA" transform="matrix(1.00, 0.00, -0.00, -1.00, 171.4, 2.0)">A</text><text xml:space="preserve" font-family="DINCondensed-Bold" font-weight="bold" font-size="68.9" fill="#34A4DA" transform="matrix(1.00, 0.00, -0.00, -1.00, 199.4, 2.0)">L</text><text xml:space="preserve" font-family="DINCondensed-Bold" font-weight="bold" font-size="68.9" fill="#34A4DA" transform="matrix(1.00, 0.00, -0.00, -1.00, 224.9, 2.0)"> </text><text xml:space="preserve" font-family="DINCondensed-Bold" font-weight="bold" font-size="68.9" fill="#34A4DA" transform="matrix(1.00, 0.00, -0.00, -1.00, 237.7, 2.0)">P</text><text xml:space="preserve" font-family="DINCondensed-Bold" font-weight="bold" font-size="68.9" fill="#34A4DA" transform="matrix(1.00, 0.00, -0.00, -1.00, 263.2, 2.0)">A</text><text xml:space="preserve" font-family="DINCondensed-Bold" font-weight="bold" font-size="68.9" fill="#34A4DA" transform="matrix(1.00, 0.00, -0.00, -1.00, 291.3, 2.0)">R</text><text xml:space="preserve" font-family="DINCondensed-Bold" font-weight="bold" font-size="68.9" fill="#34A4DA" transform="matrix(1.00, 0.00, -0.00, -1.00, 319.4, 2.0)">T</text><text xml:space="preserve" font-family="DINCondensed-Bold" font-weight="bold" font-size="68.9" fill="#34A4DA" transform="matrix(1.00, 0.00, -0.00, -1.00, 342.2, 2.0)">N</text><text xml:space="preserve" font-family="DINCondensed-Bold" font-weight="bold" font-size="68.9" fill="#34A4DA" transform="matrix(1.00, 0.00, -0.00, -1.00, 372.8, 2.0)">E</text><text xml:space="preserve" font-family="DINCondensed-Bold" font-weight="bold" font-size="68.9" fill="#34A4DA" transform="matrix(1.00, 0.00, -0.00, -1.00, 398.3, 2.0)">R</text><text xml:space="preserve" font-family="DINCondensed-Bold" font-weight="bold" font-size="68.9" fill="#34A4DA" transform="matrix(1.00, 0.00, -0.00, -1.00, 427.6, 2.0)">S</text></g></g></g></svg>