<?xml version="1.0" encoding="UTF-8" standalone="no"?><svg xmlns="http://www.w3.org/2000/svg" xmlns:xlink="http://www.w3.org/1999/xlink" clip-rule="evenodd" stroke-miterlimit="4.00" viewBox="0 0 348 103"><desc>SVG generated by Keynote</desc><defs></defs><g transform="matrix(1.00, 0.00, -0.00, -1.00, 0.0, 103.0)"><g><clipPath id="clip-694"><path d="M 245.9 102.1 L 347.9 102.1 L 347.9 0.1 L 245.9 0.1 Z M 245.9 102.1 "></path></clipPath><g clip-path="url(#clip-694)"><path d="M 246.9 101.1 L 246.9 1.1 L 346.9 1.1 Z M 246.9 101.1 " fill="#34A4DA"></path></g></g><g><clipPath id="clip-695"><path d="M 0.9 0.1 L 0.9 102.1 L 102.9 102.1 L 102.9 0.1 Z M 0.9 0.1 "></path></clipPath><g clip-path="url(#clip-695)"><path d="M 1.9 1.1 L 101.9 1.1 L 101.9 101.1 Z M 1.9 1.1 " fill="#34A4DA"></path></g></g><g><clipPath id="clip-696"><path d="M 99.0 102.1 L 249.6 102.1 L 249.6 0.1 L 99.0 0.1 Z M 99.0 102.1 "></path></clipPath><g clip-path="url(#clip-696)"><path d="M 100.0 101.1 L 248.6 101.1 L 248.6 1.1 L 100.0 1.1 Z M 100.0 101.1 " fill="#34A4DA"></path></g></g></g></svg>