<?xml version="1.0" encoding="UTF-8" standalone="no"?><svg xmlns="http://www.w3.org/2000/svg" xmlns:xlink="http://www.w3.org/1999/xlink" clip-rule="evenodd" stroke-miterlimit="4.00" viewBox="0 0 325 73"><desc>SVG generated by Keynote</desc><defs></defs><g transform="matrix(1.00, 0.00, -0.00, -1.00, 0.0, 73.0)"><text xml:space="preserve" font-family="AvenirNext-DemiBold" font-weight="bold" font-size="38.0" fill="#FFFFFF" transform="matrix(1.00, 0.00, -0.00, -1.00, 0.0, 44.0)">C</text><text xml:space="preserve" font-family="AvenirNext-DemiBold" font-weight="bold" font-size="38.0" fill="#FFFFFF" transform="matrix(1.00, 0.00, -0.00, -1.00, 26.4, 44.0)">R</text><text xml:space="preserve" font-family="AvenirNext-DemiBold" font-weight="bold" font-size="38.0" fill="#FFFFFF" transform="matrix(1.00, 0.00, -0.00, -1.00, 50.4, 44.0)">O</text><text xml:space="preserve" font-family="AvenirNext-DemiBold" font-weight="bold" font-size="38.0" fill="#FFFFFF" transform="matrix(1.00, 0.00, -0.00, -1.00, 82.6, 44.0)">S</text><text xml:space="preserve" font-family="AvenirNext-DemiBold" font-weight="bold" font-size="38.0" fill="#FFFFFF" transform="matrix(1.00, 0.00, -0.00, -1.00, 104.4, 44.0)">S</text><text xml:space="preserve" font-family="AvenirNext-DemiBold" font-weight="bold" font-size="38.0" fill="#FFFFFF" transform="matrix(1.00, 0.00, -0.00, -1.00, 126.2, 44.0)"> </text><text xml:space="preserve" font-family="AvenirNext-DemiBold" font-weight="bold" font-size="38.0" fill="#FFFFFF" transform="matrix(1.00, 0.00, -0.00, -1.00, 135.7, 44.0)">C</text><text xml:space="preserve" font-family="AvenirNext-DemiBold" font-weight="bold" font-size="38.0" fill="#FFFFFF" transform="matrix(1.00, 0.00, -0.00, -1.00, 161.7, 44.0)">O</text><text xml:space="preserve" font-family="AvenirNext-DemiBold" font-weight="bold" font-size="38.0" fill="#FFFFFF" transform="matrix(1.00, 0.00, -0.00, -1.00, 194.0, 44.0)">N</text><text xml:space="preserve" font-family="AvenirNext-DemiBold" font-weight="bold" font-size="38.0" fill="#FFFFFF" transform="matrix(1.00, 0.00, -0.00, -1.00, 223.6, 44.0)">N</text><text xml:space="preserve" font-family="AvenirNext-DemiBold" font-weight="bold" font-size="38.0" fill="#FFFFFF" transform="matrix(1.00, 0.00, -0.00, -1.00, 253.3, 44.0)">E</text><text xml:space="preserve" font-family="AvenirNext-DemiBold" font-weight="bold" font-size="38.0" fill="#FFFFFF" transform="matrix(1.00, 0.00, -0.00, -1.00, 276.4, 44.0)">C</text><text xml:space="preserve" font-family="AvenirNext-DemiBold" font-weight="bold" font-size="38.0" fill="#FFFFFF" transform="matrix(1.00, 0.00, -0.00, -1.00, 302.7, 44.0)">T</text><text xml:space="preserve" font-family="AvenirNext-DemiBold" font-weight="bold" font-size="38.0" fill="#FFFFFF" transform="matrix(1.00, 0.00, -0.00, -1.00, 323.3, 44.0)"> </text><g><clipPath id="clip-689"><path d="M 0.0 0.0 L 325.0 0.0 L 325.0 73.0 L 0.0 73.0 Z M 0.0 0.0 "></path></clipPath><g clip-path="url(#clip-689)"><text xml:space="preserve" font-family="AvenirNext-DemiBold" font-weight="bold" font-size="38.0" fill="#FFFFFF" transform="matrix(1.00, 0.00, -0.00, -1.00, 50.0, 3.0)">W</text><text xml:space="preserve" font-family="AvenirNext-DemiBold" font-weight="bold" font-size="38.0" fill="#FFFFFF" transform="matrix(1.00, 0.00, -0.00, -1.00, 88.2, 3.0)">I</text><text xml:space="preserve" font-family="AvenirNext-DemiBold" font-weight="bold" font-size="38.0" fill="#FFFFFF" transform="matrix(1.00, 0.00, -0.00, -1.00, 98.9, 3.0)">T</text><text xml:space="preserve" font-family="AvenirNext-DemiBold" font-weight="bold" font-size="38.0" fill="#FFFFFF" transform="matrix(1.00, 0.00, -0.00, -1.00, 120.5, 3.0)">H</text><text xml:space="preserve" font-family="AvenirNext-DemiBold" font-weight="bold" font-size="38.0" fill="#FFFFFF" transform="matrix(1.00, 0.00, -0.00, -1.00, 148.5, 3.0)"> </text><text xml:space="preserve" font-family="AvenirNext-DemiBold" font-weight="bold" font-size="38.0" fill="#FFFFFF" transform="matrix(1.00, 0.00, -0.00, -1.00, 158.0, 3.0)">M</text><text xml:space="preserve" font-family="AvenirNext-DemiBold" font-weight="bold" font-size="38.0" fill="#FFFFFF" transform="matrix(1.00, 0.00, -0.00, -1.00, 193.0, 3.0)">O</text><text xml:space="preserve" font-family="AvenirNext-DemiBold" font-weight="bold" font-size="38.0" fill="#FFFFFF" transform="matrix(1.00, 0.00, -0.00, -1.00, 225.3, 3.0)">S</text><text xml:space="preserve" font-family="AvenirNext-DemiBold" font-weight="bold" font-size="38.0" fill="#FFFFFF" transform="matrix(1.00, 0.00, -0.00, -1.00, 247.1, 3.0)">C</text></g></g></g></svg>