<?xml version="1.0" encoding="UTF-8" standalone="no"?><svg xmlns="http://www.w3.org/2000/svg" xmlns:xlink="http://www.w3.org/1999/xlink" clip-rule="evenodd" stroke-miterlimit="4.00" viewBox="0 0 533 312"><desc>SVG generated by Keynote</desc><defs></defs><g transform="matrix(1.00, 0.00, -0.00, -1.00, 0.0, 312.0)"><g><clipPath id="clip-720"><path d="M 0.6 0.4 L 531.1 0.4 L 531.1 311.6 L 0.6 311.6 Z M 0.6 0.4 "></path></clipPath><g clip-path="url(#clip-720)"><path d="M 23.8 310.6 L 507.9 310.6 C 514.2 310.6 517.5 310.6 520.9 309.5 C 524.7 308.1 527.6 305.2 529.0 301.4 C 530.1 298.0 530.1 294.8 530.1 288.3 L 530.1 23.7 C 530.1 17.3 530.1 14.1 529.0 10.6 C 527.6 6.9 524.7 3.9 520.9 2.5 C 517.5 1.4 514.2 1.4 507.8 1.4 L 23.8 1.4 C 17.4 1.4 14.2 1.4 10.8 2.5 C 7.0 3.9 4.1 6.9 2.7 10.6 C 1.6 14.1 1.6 17.3 1.6 23.8 L 1.6 288.4 C 1.6 294.8 1.6 298.0 2.7 301.4 C 4.1 305.2 7.0 308.1 10.8 309.5 C 14.2 310.6 17.4 310.6 23.9 310.6 Z M 23.8 310.6 " fill="#FEFFFE"></path></g></g><g><clipPath id="clip-721"><path d="M -2.0 -1.8 L 533.7 -1.8 L 533.7 310.6 L -2.0 310.6 Z M -2.0 -1.8 "></path></clipPath><g clip-path="url(#clip-721)"><text xml:space="preserve" font-family="DINCondensed-Bold" font-weight="bold" font-size="38.0" fill="#000000" transform="matrix(1.00, 0.00, -0.00, -1.00, 83.9, 26.3)">O</text><text xml:space="preserve" font-family="DINCondensed-Bold" font-weight="bold" font-size="38.0" fill="#000000" transform="matrix(1.00, 0.00, -0.00, -1.00, 100.1, 26.3)">P</text><text xml:space="preserve" font-family="DINCondensed-Bold" font-weight="bold" font-size="38.0" fill="#000000" transform="matrix(1.00, 0.00, -0.00, -1.00, 115.6, 26.3)">E</text><text xml:space="preserve" font-family="DINCondensed-Bold" font-weight="bold" font-size="38.0" fill="#000000" transform="matrix(1.00, 0.00, -0.00, -1.00, 129.6, 26.3)">N</text><text xml:space="preserve" font-family="DINCondensed-Bold" font-weight="bold" font-size="38.0" fill="#000000" transform="matrix(1.00, 0.00, -0.00, -1.00, 146.5, 26.3)"> </text><text xml:space="preserve" font-family="DINCondensed-Bold" font-weight="bold" font-size="38.0" fill="#000000" transform="matrix(1.00, 0.00, -0.00, -1.00, 153.6, 26.3)">S</text><text xml:space="preserve" font-family="DINCondensed-Bold" font-weight="bold" font-size="38.0" fill="#000000" transform="matrix(1.00, 0.00, -0.00, -1.00, 169.0, 26.3)">O</text><text xml:space="preserve" font-family="DINCondensed-Bold" font-weight="bold" font-size="38.0" fill="#000000" transform="matrix(1.00, 0.00, -0.00, -1.00, 185.2, 26.3)">U</text><text xml:space="preserve" font-family="DINCondensed-Bold" font-weight="bold" font-size="38.0" fill="#000000" transform="matrix(1.00, 0.00, -0.00, -1.00, 201.4, 26.3)">R</text><text xml:space="preserve" font-family="DINCondensed-Bold" font-weight="bold" font-size="38.0" fill="#000000" transform="matrix(1.00, 0.00, -0.00, -1.00, 217.6, 26.3)">C</text><text xml:space="preserve" font-family="DINCondensed-Bold" font-weight="bold" font-size="38.0" fill="#000000" transform="matrix(1.00, 0.00, -0.00, -1.00, 233.0, 26.3)">E</text><text xml:space="preserve" font-family="DINCondensed-Bold" font-weight="bold" font-size="38.0" fill="#000000" transform="matrix(1.00, 0.00, -0.00, -1.00, 247.1, 26.3)"> </text><text xml:space="preserve" font-family="DINCondensed-Bold" font-weight="bold" font-size="38.0" fill="#000000" transform="matrix(1.00, 0.00, -0.00, -1.00, 254.2, 26.3)">H</text><text xml:space="preserve" font-family="DINCondensed-Bold" font-weight="bold" font-size="38.0" fill="#000000" transform="matrix(1.00, 0.00, -0.00, -1.00, 270.4, 26.3)">A</text><text xml:space="preserve" font-family="DINCondensed-Bold" font-weight="bold" font-size="38.0" fill="#000000" transform="matrix(1.00, 0.00, -0.00, -1.00, 285.8, 26.3)">R</text><text xml:space="preserve" font-family="DINCondensed-Bold" font-weight="bold" font-size="38.0" fill="#000000" transform="matrix(1.00, 0.00, -0.00, -1.00, 302.0, 26.3)">D</text><text xml:space="preserve" font-family="DINCondensed-Bold" font-weight="bold" font-size="38.0" fill="#000000" transform="matrix(1.00, 0.00, -0.00, -1.00, 317.7, 26.3)">W</text><text xml:space="preserve" font-family="DINCondensed-Bold" font-weight="bold" font-size="38.0" fill="#000000" transform="matrix(1.00, 0.00, -0.00, -1.00, 339.1, 26.3)">A</text><text xml:space="preserve" font-family="DINCondensed-Bold" font-weight="bold" font-size="38.0" fill="#000000" transform="matrix(1.00, 0.00, -0.00, -1.00, 354.6, 26.3)">R</text><text xml:space="preserve" font-family="DINCondensed-Bold" font-weight="bold" font-size="38.0" fill="#000000" transform="matrix(1.00, 0.00, -0.00, -1.00, 370.8, 26.3)">E</text><text xml:space="preserve" font-family="DINCondensed-Bold" font-weight="bold" font-size="38.0" fill="#000000" transform="matrix(1.00, 0.00, -0.00, -1.00, 384.9, 26.3)"> </text><text xml:space="preserve" font-family="DINCondensed-Bold" font-weight="bold" font-size="38.0" fill="#000000" transform="matrix(1.00, 0.00, -0.00, -1.00, 391.9, 26.3)">P</text><text xml:space="preserve" font-family="DINCondensed-Bold" font-weight="bold" font-size="38.0" fill="#000000" transform="matrix(1.00, 0.00, -0.00, -1.00, 407.4, 26.3)">R</text><text xml:space="preserve" font-family="DINCondensed-Bold" font-weight="bold" font-size="38.0" fill="#000000" transform="matrix(1.00, 0.00, -0.00, -1.00, 423.6, 26.3)">O</text><text xml:space="preserve" font-family="DINCondensed-Bold" font-weight="bold" font-size="38.0" fill="#000000" transform="matrix(1.00, 0.00, -0.00, -1.00, 439.1, 26.3)">V</text><text xml:space="preserve" font-family="DINCondensed-Bold" font-weight="bold" font-size="38.0" fill="#000000" transform="matrix(1.00, 0.00, -0.00, -1.00, 454.5, 26.3)">I</text><text xml:space="preserve" font-family="DINCondensed-Bold" font-weight="bold" font-size="38.0" fill="#000000" transform="matrix(1.00, 0.00, -0.00, -1.00, 462.3, 26.3)">D</text><text xml:space="preserve" font-family="DINCondensed-Bold" font-weight="bold" font-size="38.0" fill="#000000" transform="matrix(1.00, 0.00, -0.00, -1.00, 478.5, 26.3)">E</text><text xml:space="preserve" font-family="DINCondensed-Bold" font-weight="bold" font-size="38.0" fill="#000000" transform="matrix(1.00, 0.00, -0.00, -1.00, 492.5, 26.3)">R</text><text xml:space="preserve" font-family="DINCondensed-Bold" font-weight="bold" font-size="38.0" fill="#000000" transform="matrix(1.00, 0.00, -0.00, -1.00, 508.7, 26.3)">S</text></g></g><g><clipPath id="clip-722"><path d="M 56.0 99.5 L 183.4 99.5 L 183.4 260.5 L 56.0 260.5 Z M 56.0 99.5 "></path></clipPath><g clip-path="url(#clip-722)"><image xlink:href="../../88CCE29D-BFED-4F23-A508-9662657FCC1D/assets/032D00CD6E9F7A573D0DE4603B5D1DD4.png" width="127.00" height="162.00" transform="matrix(1.00, 0.00, -0.00, -1.00, 56.0, 261.0)"></image></g></g><g><clipPath id="clip-723"><path d="M 225.2 85.8 L 502.0 85.8 L 502.0 274.2 L 225.2 274.2 Z M 225.2 85.8 "></path></clipPath><g clip-path="url(#clip-723)"><image xlink:href="../../88CCE29D-BFED-4F23-A508-9662657FCC1D/assets/F35DDFEAFA4ED61CA3E5F98B2A7DB50A.png" width="277.00" height="187.00" transform="matrix(1.00, 0.00, -0.00, -1.01, 225.0, 274.0)"></image></g></g></g></svg>