<?xml version="1.0" encoding="UTF-8" standalone="no"?><svg xmlns="http://www.w3.org/2000/svg" xmlns:xlink="http://www.w3.org/1999/xlink" clip-rule="evenodd" stroke-miterlimit="4.00" viewBox="0 0 288 19"><desc>SVG generated by Keynote</desc><defs></defs><g transform="matrix(1.00, 0.00, -0.00, -1.00, 0.0, 19.0)"><text xml:space="preserve" font-family="AvenirNext-Medium" font-size="15.0" fill="#303030" transform="matrix(1.00, 0.00, -0.00, -1.00, 2.4, 4.9)">A</text><text xml:space="preserve" font-family="AvenirNext-Medium" font-size="15.0" fill="#303030" transform="matrix(1.00, 0.00, -0.00, -1.00, 13.1, 4.9)">n</text><text xml:space="preserve" font-family="AvenirNext-Medium" font-size="15.0" fill="#303030" transform="matrix(1.00, 0.00, -0.00, -1.00, 21.8, 4.9)">i</text><text xml:space="preserve" font-family="AvenirNext-Medium" font-size="15.0" fill="#303030" transform="matrix(1.00, 0.00, -0.00, -1.00, 25.7, 4.9)">m</text><text xml:space="preserve" font-family="AvenirNext-Medium" font-size="15.0" fill="#303030" transform="matrix(1.00, 0.00, -0.00, -1.00, 39.0, 4.9)">a</text><text xml:space="preserve" font-family="AvenirNext-Medium" font-size="15.0" fill="#303030" transform="matrix(1.00, 0.00, -0.00, -1.00, 47.0, 4.9)">t</text><text xml:space="preserve" font-family="AvenirNext-Medium" font-size="15.0" fill="#303030" transform="matrix(1.00, 0.00, -0.00, -1.00, 51.9, 4.9)">i</text><text xml:space="preserve" font-family="AvenirNext-Medium" font-size="15.0" fill="#303030" transform="matrix(1.00, 0.00, -0.00, -1.00, 55.8, 4.9)">o</text><text xml:space="preserve" font-family="AvenirNext-Medium" font-size="15.0" fill="#303030" transform="matrix(1.00, 0.00, -0.00, -1.00, 64.9, 4.9)">n</text><text xml:space="preserve" font-family="AvenirNext-Medium" font-size="15.0" fill="#303030" transform="matrix(1.00, 0.00, -0.00, -1.00, 73.7, 4.9)">s</text><text xml:space="preserve" font-family="AvenirNext-Medium" font-size="15.0" fill="#303030" transform="matrix(1.00, 0.00, -0.00, -1.00, 80.3, 4.9)"> </text><text xml:space="preserve" font-family="AvenirNext-Medium" font-size="15.0" fill="#303030" transform="matrix(1.00, 0.00, -0.00, -1.00, 84.1, 4.9)">a</text><text xml:space="preserve" font-family="AvenirNext-Medium" font-size="15.0" fill="#303030" transform="matrix(1.00, 0.00, -0.00, -1.00, 92.2, 4.9)">n</text><text xml:space="preserve" font-family="AvenirNext-Medium" font-size="15.0" fill="#303030" transform="matrix(1.00, 0.00, -0.00, -1.00, 100.9, 4.9)">d</text><text xml:space="preserve" font-family="AvenirNext-Medium" font-size="15.0" fill="#303030" transform="matrix(1.00, 0.00, -0.00, -1.00, 110.5, 4.9)"> </text><text xml:space="preserve" font-family="AvenirNext-Medium" font-size="15.0" fill="#303030" transform="matrix(1.00, 0.00, -0.00, -1.00, 114.2, 4.9)">D</text><text xml:space="preserve" font-family="AvenirNext-Medium" font-size="15.0" fill="#303030" transform="matrix(1.00, 0.00, -0.00, -1.00, 125.6, 4.9)">e</text><text xml:space="preserve" font-family="AvenirNext-Medium" font-size="15.0" fill="#303030" transform="matrix(1.00, 0.00, -0.00, -1.00, 134.2, 4.9)">s</text><text xml:space="preserve" font-family="AvenirNext-Medium" font-size="15.0" fill="#303030" transform="matrix(1.00, 0.00, -0.00, -1.00, 140.9, 4.9)">i</text><text xml:space="preserve" font-family="AvenirNext-Medium" font-size="15.0" fill="#303030" transform="matrix(1.00, 0.00, -0.00, -1.00, 144.8, 4.9)">g</text><text xml:space="preserve" font-family="AvenirNext-Medium" font-size="15.0" fill="#303030" transform="matrix(1.00, 0.00, -0.00, -1.00, 154.3, 4.9)">n</text><text xml:space="preserve" font-family="AvenirNext-Medium" font-size="15.0" fill="#303030" transform="matrix(1.00, 0.00, -0.00, -1.00, 163.0, 4.9)"> </text><text xml:space="preserve" font-family="AvenirNext-Medium" font-size="15.0" fill="#303030" transform="matrix(1.00, 0.00, -0.00, -1.00, 166.7, 4.9)">©</text><text xml:space="preserve" font-family="AvenirNext-Medium" font-size="15.0" fill="#303030" transform="matrix(1.00, 0.00, -0.00, -1.00, 178.7, 4.9)">2</text><text xml:space="preserve" font-family="AvenirNext-Medium" font-size="15.0" fill="#303030" transform="matrix(1.00, 0.00, -0.00, -1.00, 187.7, 4.9)">0</text><text xml:space="preserve" font-family="AvenirNext-Medium" font-size="15.0" fill="#303030" transform="matrix(1.00, 0.00, -0.00, -1.00, 196.6, 4.9)">1</text><text xml:space="preserve" font-family="AvenirNext-Medium" font-size="15.0" fill="#303030" transform="matrix(1.00, 0.00, -0.00, -1.00, 205.5, 4.9)">6</text><text xml:space="preserve" font-family="AvenirNext-Medium" font-size="15.0" fill="#303030" transform="matrix(1.00, 0.00, -0.00, -1.00, 214.4, 4.9)"> </text><text xml:space="preserve" font-family="AvenirNext-Medium" font-size="15.0" fill="#303030" transform="matrix(1.00, 0.00, -0.00, -1.00, 218.2, 4.9)">N</text><text xml:space="preserve" font-family="AvenirNext-Medium" font-size="15.0" fill="#303030" transform="matrix(1.00, 0.00, -0.00, -1.00, 229.8, 4.9)">i</text><text xml:space="preserve" font-family="AvenirNext-Medium" font-size="15.0" fill="#303030" transform="matrix(1.00, 0.00, -0.00, -1.00, 233.7, 4.9)">c</text><text xml:space="preserve" font-family="AvenirNext-Medium" font-size="15.0" fill="#303030" transform="matrix(1.00, 0.00, -0.00, -1.00, 241.1, 4.9)">k</text><text xml:space="preserve" font-family="AvenirNext-Medium" font-size="15.0" fill="#303030" transform="matrix(1.00, 0.00, -0.00, -1.00, 249.0, 4.9)"> </text><text xml:space="preserve" font-family="AvenirNext-Medium" font-size="15.0" fill="#303030" transform="matrix(1.00, 0.00, -0.00, -1.00, 252.7, 4.9)">F</text><text xml:space="preserve" font-family="AvenirNext-Medium" font-size="15.0" fill="#303030" transform="matrix(1.00, 0.00, -0.00, -1.00, 260.5, 4.9)">o</text><text xml:space="preserve" font-family="AvenirNext-Medium" font-size="15.0" fill="#303030" transform="matrix(1.00, 0.00, -0.00, -1.00, 269.7, 4.9)">n</text><text xml:space="preserve" font-family="AvenirNext-Medium" font-size="15.0" fill="#303030" transform="matrix(1.00, 0.00, -0.00, -1.00, 278.4, 4.9)">g</text></g></svg>