<?xml version="1.0" encoding="UTF-8" standalone="no"?><svg xmlns="http://www.w3.org/2000/svg" xmlns:xlink="http://www.w3.org/1999/xlink" clip-rule="evenodd" stroke-miterlimit="4.00" viewBox="0 0 1380 58"><desc>SVG generated by Keynote</desc><defs></defs><g transform="matrix(1.00, 0.00, -0.00, -1.00, 0.0, 58.0)"><g><clipPath id="clip-438"><path d="M 0.0 0.0 L 1380.0 0.0 L 1380.0 58.0 L 0.0 58.0 Z M 0.0 0.0 "></path></clipPath><g clip-path="url(#clip-438)"><text xml:space="preserve" font-family="DINAlternate-Bold" font-weight="bold" font-size="74.0" fill="#A6AAA9" transform="matrix(1.00, 0.00, -0.00, -1.00, -4.0, 3.0)">M</text><text xml:space="preserve" font-family="DINAlternate-Bold" font-weight="bold" font-size="74.0" fill="#A6AAA9" transform="matrix(1.00, 0.00, -0.00, -1.00, 52.1, 3.0)">U</text><text xml:space="preserve" font-family="DINAlternate-Bold" font-weight="bold" font-size="74.0" fill="#A6AAA9" transform="matrix(1.00, 0.00, -0.00, -1.00, 98.7, 3.0)">L</text><text xml:space="preserve" font-family="DINAlternate-Bold" font-weight="bold" font-size="74.0" fill="#A6AAA9" transform="matrix(1.00, 0.00, -0.00, -1.00, 131.6, 3.0)">T</text><text xml:space="preserve" font-family="DINAlternate-Bold" font-weight="bold" font-size="74.0" fill="#A6AAA9" transform="matrix(1.00, 0.00, -0.00, -1.00, 168.6, 3.0)">I</text><text xml:space="preserve" font-family="DINAlternate-Bold" font-weight="bold" font-size="74.0" fill="#A6AAA9" transform="matrix(1.00, 0.00, -0.00, -1.00, 187.7, 3.0)">P</text><text xml:space="preserve" font-family="DINAlternate-Bold" font-weight="bold" font-size="74.0" fill="#A6AAA9" transform="matrix(1.00, 0.00, -0.00, -1.00, 231.5, 3.0)">L</text><text xml:space="preserve" font-family="DINAlternate-Bold" font-weight="bold" font-size="74.0" fill="#A6AAA9" transform="matrix(1.00, 0.00, -0.00, -1.00, 272.7, 3.0)">E</text><text xml:space="preserve" font-family="DINAlternate-Bold" font-weight="bold" font-size="74.0" fill="#A6AAA9" transform="matrix(1.00, 0.00, -0.00, -1.00, 313.9, 3.0)">X</text><text xml:space="preserve" font-family="DINAlternate-Bold" font-weight="bold" font-size="74.0" fill="#A6AAA9" transform="matrix(1.00, 0.00, -0.00, -1.00, 353.6, 3.0)">I</text><text xml:space="preserve" font-family="DINAlternate-Bold" font-weight="bold" font-size="74.0" fill="#A6AAA9" transform="matrix(1.00, 0.00, -0.00, -1.00, 372.6, 3.0)">N</text><text xml:space="preserve" font-family="DINAlternate-Bold" font-weight="bold" font-size="74.0" fill="#A6AAA9" transform="matrix(1.00, 0.00, -0.00, -1.00, 423.3, 3.0)">G</text><text xml:space="preserve" font-family="DINAlternate-Bold" font-weight="bold" font-size="74.0" fill="#A6AAA9" transform="matrix(1.00, 0.00, -0.00, -1.00, 468.4, 3.0)"> </text><text xml:space="preserve" font-family="DINAlternate-Bold" font-weight="bold" font-size="74.0" fill="#A6AAA9" transform="matrix(1.00, 0.00, -0.00, -1.00, 486.1, 3.0)">O</text><text xml:space="preserve" font-family="DINAlternate-Bold" font-weight="bold" font-size="74.0" fill="#A6AAA9" transform="matrix(1.00, 0.00, -0.00, -1.00, 529.4, 3.0)">V</text><text xml:space="preserve" font-family="DINAlternate-Bold" font-weight="bold" font-size="74.0" fill="#A6AAA9" transform="matrix(1.00, 0.00, -0.00, -1.00, 570.6, 3.0)">E</text><text xml:space="preserve" font-family="DINAlternate-Bold" font-weight="bold" font-size="74.0" fill="#A6AAA9" transform="matrix(1.00, 0.00, -0.00, -1.00, 611.7, 3.0)">R</text><text xml:space="preserve" font-family="DINAlternate-Bold" font-weight="bold" font-size="74.0" fill="#A6AAA9" transform="matrix(1.00, 0.00, -0.00, -1.00, 656.8, 3.0)">S</text><text xml:space="preserve" font-family="DINAlternate-Bold" font-weight="bold" font-size="74.0" fill="#A6AAA9" transform="matrix(1.00, 0.00, -0.00, -1.00, 699.3, 3.0)">U</text><text xml:space="preserve" font-family="DINAlternate-Bold" font-weight="bold" font-size="74.0" fill="#A6AAA9" transform="matrix(1.00, 0.00, -0.00, -1.00, 745.9, 3.0)">B</text><text xml:space="preserve" font-family="DINAlternate-Bold" font-weight="bold" font-size="74.0" fill="#A6AAA9" transform="matrix(1.00, 0.00, -0.00, -1.00, 791.0, 3.0)">S</text><text xml:space="preserve" font-family="DINAlternate-Bold" font-weight="bold" font-size="74.0" fill="#A6AAA9" transform="matrix(1.00, 0.00, -0.00, -1.00, 833.4, 3.0)">C</text><text xml:space="preserve" font-family="DINAlternate-Bold" font-weight="bold" font-size="74.0" fill="#A6AAA9" transform="matrix(1.00, 0.00, -0.00, -1.00, 874.6, 3.0)">R</text><text xml:space="preserve" font-family="DINAlternate-Bold" font-weight="bold" font-size="74.0" fill="#A6AAA9" transform="matrix(1.00, 0.00, -0.00, -1.00, 919.7, 3.0)">I</text><text xml:space="preserve" font-family="DINAlternate-Bold" font-weight="bold" font-size="74.0" fill="#A6AAA9" transform="matrix(1.00, 0.00, -0.00, -1.00, 938.8, 3.0)">B</text><text xml:space="preserve" font-family="DINAlternate-Bold" font-weight="bold" font-size="74.0" fill="#A6AAA9" transform="matrix(1.00, 0.00, -0.00, -1.00, 983.9, 3.0)">E</text><text xml:space="preserve" font-family="DINAlternate-Bold" font-weight="bold" font-size="74.0" fill="#A6AAA9" transform="matrix(1.00, 0.00, -0.00, -1.00, 1025.1, 3.0)">D</text><text xml:space="preserve" font-family="DINAlternate-Bold" font-weight="bold" font-size="74.0" fill="#A6AAA9" transform="matrix(1.00, 0.00, -0.00, -1.00, 1071.7, 3.0)"> </text><text xml:space="preserve" font-family="DINAlternate-Bold" font-weight="bold" font-size="74.0" fill="#A6AAA9" transform="matrix(1.00, 0.00, -0.00, -1.00, 1089.4, 3.0)">C</text><text xml:space="preserve" font-family="DINAlternate-Bold" font-weight="bold" font-size="74.0" fill="#A6AAA9" transform="matrix(1.00, 0.00, -0.00, -1.00, 1130.6, 3.0)">I</text><text xml:space="preserve" font-family="DINAlternate-Bold" font-weight="bold" font-size="74.0" fill="#A6AAA9" transform="matrix(1.00, 0.00, -0.00, -1.00, 1149.6, 3.0)">R</text><text xml:space="preserve" font-family="DINAlternate-Bold" font-weight="bold" font-size="74.0" fill="#A6AAA9" transform="matrix(1.00, 0.00, -0.00, -1.00, 1194.8, 3.0)">C</text><text xml:space="preserve" font-family="DINAlternate-Bold" font-weight="bold" font-size="74.0" fill="#A6AAA9" transform="matrix(1.00, 0.00, -0.00, -1.00, 1235.9, 3.0)">U</text><text xml:space="preserve" font-family="DINAlternate-Bold" font-weight="bold" font-size="74.0" fill="#A6AAA9" transform="matrix(1.00, 0.00, -0.00, -1.00, 1282.5, 3.0)">I</text><text xml:space="preserve" font-family="DINAlternate-Bold" font-weight="bold" font-size="74.0" fill="#A6AAA9" transform="matrix(1.00, 0.00, -0.00, -1.00, 1301.6, 3.0)">T</text><text xml:space="preserve" font-family="DINAlternate-Bold" font-weight="bold" font-size="74.0" fill="#A6AAA9" transform="matrix(1.00, 0.00, -0.00, -1.00, 1338.6, 3.0)">S</text></g></g></g></svg>