<?xml version="1.0" encoding="UTF-8" standalone="no"?><svg xmlns="http://www.w3.org/2000/svg" xmlns:xlink="http://www.w3.org/1999/xlink" clip-rule="evenodd" stroke-miterlimit="4.00" viewBox="0 0 215 29"><desc>SVG generated by Keynote</desc><defs></defs><g transform="matrix(1.00, 0.00, -0.00, -1.00, 0.0, 29.0)"><text xml:space="preserve" font-family="DINAlternate-Bold" font-weight="bold" font-size="35.0" fill="#34A4DA" transform="matrix(1.00, 0.00, -0.00, -1.00, -1.0, 2.0)">B</text><text xml:space="preserve" font-family="DINAlternate-Bold" font-weight="bold" font-size="35.0" fill="#34A4DA" transform="matrix(1.00, 0.00, -0.00, -1.00, 20.3, 2.0)">A</text><text xml:space="preserve" font-family="DINAlternate-Bold" font-weight="bold" font-size="35.0" fill="#34A4DA" transform="matrix(1.00, 0.00, -0.00, -1.00, 41.1, 2.0)">C</text><text xml:space="preserve" font-family="DINAlternate-Bold" font-weight="bold" font-size="35.0" fill="#34A4DA" transform="matrix(1.00, 0.00, -0.00, -1.00, 60.5, 2.0)">K</text><text xml:space="preserve" font-family="DINAlternate-Bold" font-weight="bold" font-size="35.0" fill="#34A4DA" transform="matrix(1.00, 0.00, -0.00, -1.00, 82.6, 2.0)">G</text><text xml:space="preserve" font-family="DINAlternate-Bold" font-weight="bold" font-size="35.0" fill="#34A4DA" transform="matrix(1.00, 0.00, -0.00, -1.00, 103.9, 2.0)">R</text><text xml:space="preserve" font-family="DINAlternate-Bold" font-weight="bold" font-size="35.0" fill="#34A4DA" transform="matrix(1.00, 0.00, -0.00, -1.00, 125.2, 2.0)">O</text><text xml:space="preserve" font-family="DINAlternate-Bold" font-weight="bold" font-size="35.0" fill="#34A4DA" transform="matrix(1.00, 0.00, -0.00, -1.00, 146.6, 2.0)">U</text><text xml:space="preserve" font-family="DINAlternate-Bold" font-weight="bold" font-size="35.0" fill="#34A4DA" transform="matrix(1.00, 0.00, -0.00, -1.00, 168.6, 2.0)">N</text><text xml:space="preserve" font-family="DINAlternate-Bold" font-weight="bold" font-size="35.0" fill="#34A4DA" transform="matrix(1.00, 0.00, -0.00, -1.00, 192.6, 2.0)">D</text></g></svg>