<?xml version="1.0" encoding="UTF-8" standalone="no"?><svg xmlns="http://www.w3.org/2000/svg" xmlns:xlink="http://www.w3.org/1999/xlink" clip-rule="evenodd" stroke-miterlimit="4.00" viewBox="0 0 551 65"><desc>SVG generated by Keynote</desc><defs></defs><g transform="matrix(1.00, 0.00, -0.00, -1.00, 0.0, 65.0)"><text xml:space="preserve" font-family="DINCondensed-Bold" font-weight="bold" font-size="75.0" fill="#FFFFFF" transform="matrix(1.00, 0.00, -0.00, -1.00, -2.0, 9.0)">(</text><text xml:space="preserve" font-family="DINCondensed-Bold" font-weight="bold" font-size="75.0" fill="#FFFFFF" transform="matrix(1.00, 0.00, -0.00, -1.00, 14.6, 9.0)">O</text><text xml:space="preserve" font-family="DINCondensed-Bold" font-weight="bold" font-size="75.0" fill="#FFFFFF" transform="matrix(1.00, 0.00, -0.00, -1.00, 46.6, 9.0)">U</text><text xml:space="preserve" font-family="DINCondensed-Bold" font-weight="bold" font-size="75.0" fill="#FFFFFF" transform="matrix(1.00, 0.00, -0.00, -1.00, 78.5, 9.0)">T</text><text xml:space="preserve" font-family="DINCondensed-Bold" font-weight="bold" font-size="75.0" fill="#FFFFFF" transform="matrix(1.00, 0.00, -0.00, -1.00, 103.4, 9.0)">G</text><text xml:space="preserve" font-family="DINCondensed-Bold" font-weight="bold" font-size="75.0" fill="#FFFFFF" transform="matrix(1.00, 0.00, -0.00, -1.00, 135.4, 9.0)">O</text><text xml:space="preserve" font-family="DINCondensed-Bold" font-weight="bold" font-size="75.0" fill="#FFFFFF" transform="matrix(1.00, 0.00, -0.00, -1.00, 167.3, 9.0)">I</text><text xml:space="preserve" font-family="DINCondensed-Bold" font-weight="bold" font-size="75.0" fill="#FFFFFF" transform="matrix(1.00, 0.00, -0.00, -1.00, 182.6, 9.0)">N</text><text xml:space="preserve" font-family="DINCondensed-Bold" font-weight="bold" font-size="75.0" fill="#FFFFFF" transform="matrix(1.00, 0.00, -0.00, -1.00, 215.9, 9.0)">G</text><text xml:space="preserve" font-family="DINCondensed-Bold" font-weight="bold" font-size="75.0" fill="#FFFFFF" transform="matrix(1.00, 0.00, -0.00, -1.00, 247.9, 9.0)">)</text><text xml:space="preserve" font-family="DINCondensed-Bold" font-weight="bold" font-size="75.0" fill="#FFFFFF" transform="matrix(1.00, 0.00, -0.00, -1.00, 264.5, 9.0)"> </text><text xml:space="preserve" font-family="DINCondensed-Bold" font-weight="bold" font-size="75.0" fill="#FFFFFF" transform="matrix(1.00, 0.00, -0.00, -1.00, 278.5, 9.0)">B</text><text xml:space="preserve" font-family="DINCondensed-Bold" font-weight="bold" font-size="75.0" fill="#FFFFFF" transform="matrix(1.00, 0.00, -0.00, -1.00, 309.5, 9.0)">A</text><text xml:space="preserve" font-family="DINCondensed-Bold" font-weight="bold" font-size="75.0" fill="#FFFFFF" transform="matrix(1.00, 0.00, -0.00, -1.00, 340.1, 9.0)">N</text><text xml:space="preserve" font-family="DINCondensed-Bold" font-weight="bold" font-size="75.0" fill="#FFFFFF" transform="matrix(1.00, 0.00, -0.00, -1.00, 373.4, 9.0)">D</text><text xml:space="preserve" font-family="DINCondensed-Bold" font-weight="bold" font-size="75.0" fill="#FFFFFF" transform="matrix(1.00, 0.00, -0.00, -1.00, 404.4, 9.0)">W</text><text xml:space="preserve" font-family="DINCondensed-Bold" font-weight="bold" font-size="75.0" fill="#FFFFFF" transform="matrix(1.00, 0.00, -0.00, -1.00, 448.9, 9.0)">I</text><text xml:space="preserve" font-family="DINCondensed-Bold" font-weight="bold" font-size="75.0" fill="#FFFFFF" transform="matrix(1.00, 0.00, -0.00, -1.00, 464.2, 9.0)">D</text><text xml:space="preserve" font-family="DINCondensed-Bold" font-weight="bold" font-size="75.0" fill="#FFFFFF" transform="matrix(1.00, 0.00, -0.00, -1.00, 496.1, 9.0)">T</text><text xml:space="preserve" font-family="DINCondensed-Bold" font-weight="bold" font-size="75.0" fill="#FFFFFF" transform="matrix(1.00, 0.00, -0.00, -1.00, 521.0, 9.0)">H</text></g></svg>