<?xml version="1.0" encoding="UTF-8" standalone="no"?><svg xmlns="http://www.w3.org/2000/svg" xmlns:xlink="http://www.w3.org/1999/xlink" clip-rule="evenodd" stroke-miterlimit="4.00" viewBox="0 0 281 514"><desc>SVG generated by Keynote</desc><defs></defs><g transform="matrix(1.00, 0.00, -0.00, -1.00, 0.0, 514.0)"><g><clipPath id="clip-457"><path d="M 148.6 0.2 L 250.6 0.2 L 250.6 82.3 L 148.6 82.3 Z M 148.6 0.2 "></path></clipPath><g clip-path="url(#clip-457)"><path d="M 149.6 81.3 L 249.6 81.3 L 249.6 1.2 L 149.6 1.2 Z M 149.6 81.3 " fill="#34A4DA"></path></g></g><g><clipPath id="clip-458"><path d="M 129.7 67.7 L 269.5 67.7 L 269.5 117.9 L 129.7 117.9 Z M 129.7 67.7 "></path></clipPath><g clip-path="url(#clip-458)"><path d="M 199.6 116.9 L 268.5 68.7 L 130.7 68.7 Z M 199.6 116.9 " fill="#34A4DA"></path></g></g><g><clipPath id="clip-459"><path d="M 228.8 59.4 L 249.7 59.4 L 249.7 114.5 L 228.8 114.5 Z M 228.8 59.4 "></path></clipPath><g clip-path="url(#clip-459)"><path d="M 229.8 113.5 L 248.7 113.5 L 248.7 60.4 L 229.8 60.4 Z M 229.8 113.5 " fill="#34A4DA"></path></g></g><g><clipPath id="clip-460"><path d="M 19.2 80.2 L 121.2 80.2 L 121.2 162.3 L 19.2 162.3 Z M 19.2 80.2 "></path></clipPath><g clip-path="url(#clip-460)"><path d="M 20.2 161.3 L 120.2 161.3 L 120.2 81.2 L 20.2 81.2 Z M 20.2 161.3 " fill="#34A4DA"></path></g></g><g><clipPath id="clip-461"><path d="M 0.3 147.7 L 140.0 147.7 L 140.0 197.9 L 0.3 197.9 Z M 0.3 147.7 "></path></clipPath><g clip-path="url(#clip-461)"><path d="M 70.2 196.9 L 139.0 148.7 L 1.3 148.7 Z M 70.2 196.9 " fill="#34A4DA"></path></g></g><g><clipPath id="clip-462"><path d="M 99.3 139.4 L 120.3 139.4 L 120.3 194.5 L 99.3 194.5 Z M 99.3 139.4 "></path></clipPath><g clip-path="url(#clip-462)"><path d="M 100.3 193.5 L 119.3 193.5 L 119.3 140.4 L 100.3 140.4 Z M 100.3 193.5 " fill="#34A4DA"></path></g></g><g><clipPath id="clip-463"><path d="M 159.9 316.2 L 261.9 316.2 L 261.9 398.4 L 159.9 398.4 Z M 159.9 316.2 "></path></clipPath><g clip-path="url(#clip-463)"><path d="M 160.9 397.4 L 260.9 397.4 L 260.9 317.2 L 160.9 317.2 Z M 160.9 397.4 " fill="#34A4DA"></path></g></g><g><clipPath id="clip-464"><path d="M 141.1 383.7 L 280.8 383.7 L 280.8 433.9 L 141.1 433.9 Z M 141.1 383.7 "></path></clipPath><g clip-path="url(#clip-464)"><path d="M 210.9 432.9 L 279.8 384.7 L 142.1 384.7 Z M 210.9 432.9 " fill="#34A4DA"></path></g></g><g><clipPath id="clip-465"><path d="M 240.1 375.4 L 261.1 375.4 L 261.1 430.5 L 240.1 430.5 Z M 240.1 375.4 "></path></clipPath><g clip-path="url(#clip-465)"><path d="M 241.1 429.5 L 260.1 429.5 L 260.1 376.4 L 241.1 376.4 Z M 241.1 429.5 " fill="#34A4DA"></path></g></g><g><clipPath id="clip-466"><path d="M 30.5 396.2 L 132.5 396.2 L 132.5 478.4 L 30.5 478.4 Z M 30.5 396.2 "></path></clipPath><g clip-path="url(#clip-466)"><path d="M 31.5 477.4 L 131.5 477.4 L 131.5 397.2 L 31.5 397.2 Z M 31.5 477.4 " fill="#34A4DA"></path></g></g><g><clipPath id="clip-467"><path d="M 11.6 463.7 L 151.4 463.7 L 151.4 513.9 L 11.6 513.9 Z M 11.6 463.7 "></path></clipPath><g clip-path="url(#clip-467)"><path d="M 81.5 512.9 L 150.4 464.7 L 12.6 464.7 Z M 81.5 512.9 " fill="#34A4DA"></path></g></g><g><clipPath id="clip-468"><path d="M 110.7 455.4 L 131.7 455.4 L 131.7 510.5 L 110.7 510.5 Z M 110.7 455.4 "></path></clipPath><g clip-path="url(#clip-468)"><path d="M 111.7 509.5 L 130.7 509.5 L 130.7 456.4 L 111.7 456.4 Z M 111.7 509.5 " fill="#34A4DA"></path></g></g></g></svg>