<?xml version="1.0" encoding="UTF-8" standalone="no"?><svg xmlns="http://www.w3.org/2000/svg" xmlns:xlink="http://www.w3.org/1999/xlink" clip-rule="evenodd" stroke-miterlimit="4.00" viewBox="0 0 552 53"><desc>SVG generated by Keynote</desc><defs></defs><g transform="matrix(1.00, 0.00, -0.00, -1.00, 0.0, 53.0)"><g><clipPath id="clip-698"><path d="M 0.0 0.0 L 552.0 0.0 L 552.0 51.4 L 0.0 51.4 Z M 0.0 0.0 "></path></clipPath><g clip-path="url(#clip-698)"><text xml:space="preserve" font-family="DINCondensed-Bold" font-weight="bold" font-size="68.9" fill="#34A4DA" transform="matrix(1.00, 0.00, -0.00, -1.00, -1.0, 2.0)">K</text><text xml:space="preserve" font-family="DINCondensed-Bold" font-weight="bold" font-size="68.9" fill="#34A4DA" transform="matrix(1.00, 0.00, -0.00, -1.00, 28.3, 2.0)">E</text><text xml:space="preserve" font-family="DINCondensed-Bold" font-weight="bold" font-size="68.9" fill="#34A4DA" transform="matrix(1.00, 0.00, -0.00, -1.00, 53.8, 2.0)">Y</text><text xml:space="preserve" font-family="DINCondensed-Bold" font-weight="bold" font-size="68.9" fill="#34A4DA" transform="matrix(1.00, 0.00, -0.00, -1.00, 80.6, 2.0)"> </text><text xml:space="preserve" font-family="DINCondensed-Bold" font-weight="bold" font-size="68.9" fill="#34A4DA" transform="matrix(1.00, 0.00, -0.00, -1.00, 93.4, 2.0)">P</text><text xml:space="preserve" font-family="DINCondensed-Bold" font-weight="bold" font-size="68.9" fill="#34A4DA" transform="matrix(1.00, 0.00, -0.00, -1.00, 121.4, 2.0)">E</text><text xml:space="preserve" font-family="DINCondensed-Bold" font-weight="bold" font-size="68.9" fill="#34A4DA" transform="matrix(1.00, 0.00, -0.00, -1.00, 146.9, 2.0)">R</text><text xml:space="preserve" font-family="DINCondensed-Bold" font-weight="bold" font-size="68.9" fill="#34A4DA" transform="matrix(1.00, 0.00, -0.00, -1.00, 176.2, 2.0)">F</text><text xml:space="preserve" font-family="DINCondensed-Bold" font-weight="bold" font-size="68.9" fill="#34A4DA" transform="matrix(1.00, 0.00, -0.00, -1.00, 201.7, 2.0)">O</text><text xml:space="preserve" font-family="DINCondensed-Bold" font-weight="bold" font-size="68.9" fill="#34A4DA" transform="matrix(1.00, 0.00, -0.00, -1.00, 231.1, 2.0)">R</text><text xml:space="preserve" font-family="DINCondensed-Bold" font-weight="bold" font-size="68.9" fill="#34A4DA" transform="matrix(1.00, 0.00, -0.00, -1.00, 260.4, 2.0)">M</text><text xml:space="preserve" font-family="DINCondensed-Bold" font-weight="bold" font-size="68.9" fill="#34A4DA" transform="matrix(1.00, 0.00, -0.00, -1.00, 298.7, 2.0)">A</text><text xml:space="preserve" font-family="DINCondensed-Bold" font-weight="bold" font-size="68.9" fill="#34A4DA" transform="matrix(1.00, 0.00, -0.00, -1.00, 326.7, 2.0)">N</text><text xml:space="preserve" font-family="DINCondensed-Bold" font-weight="bold" font-size="68.9" fill="#34A4DA" transform="matrix(1.00, 0.00, -0.00, -1.00, 357.3, 2.0)">C</text><text xml:space="preserve" font-family="DINCondensed-Bold" font-weight="bold" font-size="68.9" fill="#34A4DA" transform="matrix(1.00, 0.00, -0.00, -1.00, 385.3, 2.0)">E</text><text xml:space="preserve" font-family="DINCondensed-Bold" font-weight="bold" font-size="68.9" fill="#34A4DA" transform="matrix(1.00, 0.00, -0.00, -1.00, 410.8, 2.0)"> </text><text xml:space="preserve" font-family="DINCondensed-Bold" font-weight="bold" font-size="68.9" fill="#34A4DA" transform="matrix(1.00, 0.00, -0.00, -1.00, 423.6, 2.0)">I</text><text xml:space="preserve" font-family="DINCondensed-Bold" font-weight="bold" font-size="68.9" fill="#34A4DA" transform="matrix(1.00, 0.00, -0.00, -1.00, 437.7, 2.0)">N</text><text xml:space="preserve" font-family="DINCondensed-Bold" font-weight="bold" font-size="68.9" fill="#34A4DA" transform="matrix(1.00, 0.00, -0.00, -1.00, 468.3, 2.0)">D</text><text xml:space="preserve" font-family="DINCondensed-Bold" font-weight="bold" font-size="68.9" fill="#34A4DA" transform="matrix(1.00, 0.00, -0.00, -1.00, 497.6, 2.0)">E</text><text xml:space="preserve" font-family="DINCondensed-Bold" font-weight="bold" font-size="68.9" fill="#34A4DA" transform="matrix(1.00, 0.00, -0.00, -1.00, 523.1, 2.0)">X</text></g></g></g></svg>