<?xml version="1.0" encoding="UTF-8" standalone="no"?><svg xmlns="http://www.w3.org/2000/svg" xmlns:xlink="http://www.w3.org/1999/xlink" clip-rule="evenodd" stroke-miterlimit="4.00" viewBox="0 0 881 151"><desc>SVG generated by Keynote</desc><defs></defs><g transform="matrix(1.00, 0.00, -0.00, -1.00, 0.0, 151.0)"><text xml:space="preserve" font-family="DINCondensed-Bold" font-weight="bold" font-size="202.3" fill="#FEFFFE" transform="matrix(1.00, 0.00, -0.00, -1.00, -8.0, 3.0)">M</text><text xml:space="preserve" font-family="DINCondensed-Bold" font-weight="bold" font-size="202.3" fill="#FEFFFE" transform="matrix(1.00, 0.00, -0.00, -1.00, 104.5, 3.0)">U</text><text xml:space="preserve" font-family="DINCondensed-Bold" font-weight="bold" font-size="202.3" fill="#FEFFFE" transform="matrix(1.00, 0.00, -0.00, -1.00, 190.7, 3.0)">L</text><text xml:space="preserve" font-family="DINCondensed-Bold" font-weight="bold" font-size="202.3" fill="#FEFFFE" transform="matrix(1.00, 0.00, -0.00, -1.00, 250.5, 3.0)">T</text><text xml:space="preserve" font-family="DINCondensed-Bold" font-weight="bold" font-size="202.3" fill="#FEFFFE" transform="matrix(1.00, 0.00, -0.00, -1.00, 317.7, 3.0)">I</text><text xml:space="preserve" font-family="DINCondensed-Bold" font-weight="bold" font-size="202.3" fill="#FEFFFE" transform="matrix(1.00, 0.00, -0.00, -1.00, 359.0, 3.0)">P</text><text xml:space="preserve" font-family="DINCondensed-Bold" font-weight="bold" font-size="202.3" fill="#FEFFFE" transform="matrix(1.00, 0.00, -0.00, -1.00, 441.3, 3.0)">L</text><text xml:space="preserve" font-family="DINCondensed-Bold" font-weight="bold" font-size="202.3" fill="#FEFFFE" transform="matrix(1.00, 0.00, -0.00, -1.00, 516.2, 3.0)">E</text><text xml:space="preserve" font-family="DINCondensed-Bold" font-weight="bold" font-size="202.3" fill="#FEFFFE" transform="matrix(1.00, 0.00, -0.00, -1.00, 591.0, 3.0)">X</text><text xml:space="preserve" font-family="DINCondensed-Bold" font-weight="bold" font-size="202.3" fill="#FEFFFE" transform="matrix(1.00, 0.00, -0.00, -1.00, 669.7, 3.0)">I</text><text xml:space="preserve" font-family="DINCondensed-Bold" font-weight="bold" font-size="202.3" fill="#FEFFFE" transform="matrix(1.00, 0.00, -0.00, -1.00, 711.0, 3.0)">N</text><text xml:space="preserve" font-family="DINCondensed-Bold" font-weight="bold" font-size="202.3" fill="#FEFFFE" transform="matrix(1.00, 0.00, -0.00, -1.00, 800.8, 3.0)">G</text></g></svg>