<?xml version="1.0" encoding="UTF-8" standalone="no"?><svg xmlns="http://www.w3.org/2000/svg" xmlns:xlink="http://www.w3.org/1999/xlink" clip-rule="evenodd" stroke-miterlimit="4.00" viewBox="0 0 479 27"><desc>SVG generated by Keynote</desc><defs></defs><g transform="matrix(1.00, 0.00, -0.00, -1.00, 0.0, 27.0)"><text xml:space="preserve" font-family="DINAlternate-Bold" font-weight="bold" font-size="32.0" fill="#838686" transform="matrix(1.00, 0.00, -0.00, -1.00, -1.0, 3.0)">B</text><text xml:space="preserve" font-family="DINAlternate-Bold" font-weight="bold" font-size="32.0" fill="#838686" transform="matrix(1.00, 0.00, -0.00, -1.00, 20.1, 3.0)">A</text><text xml:space="preserve" font-family="DINAlternate-Bold" font-weight="bold" font-size="32.0" fill="#838686" transform="matrix(1.00, 0.00, -0.00, -1.00, 40.6, 3.0)">C</text><text xml:space="preserve" font-family="DINAlternate-Bold" font-weight="bold" font-size="32.0" fill="#838686" transform="matrix(1.00, 0.00, -0.00, -1.00, 60.0, 3.0)">K</text><text xml:space="preserve" font-family="DINAlternate-Bold" font-weight="bold" font-size="32.0" fill="#838686" transform="matrix(1.00, 0.00, -0.00, -1.00, 81.8, 3.0)">G</text><text xml:space="preserve" font-family="DINAlternate-Bold" font-weight="bold" font-size="32.0" fill="#838686" transform="matrix(1.00, 0.00, -0.00, -1.00, 102.9, 3.0)">R</text><text xml:space="preserve" font-family="DINAlternate-Bold" font-weight="bold" font-size="32.0" fill="#838686" transform="matrix(1.00, 0.00, -0.00, -1.00, 124.0, 3.0)">O</text><text xml:space="preserve" font-family="DINAlternate-Bold" font-weight="bold" font-size="32.0" fill="#838686" transform="matrix(1.00, 0.00, -0.00, -1.00, 145.1, 3.0)">U</text><text xml:space="preserve" font-family="DINAlternate-Bold" font-weight="bold" font-size="32.0" fill="#838686" transform="matrix(1.00, 0.00, -0.00, -1.00, 166.9, 3.0)">N</text><text xml:space="preserve" font-family="DINAlternate-Bold" font-weight="bold" font-size="32.0" fill="#838686" transform="matrix(1.00, 0.00, -0.00, -1.00, 190.4, 3.0)">D</text><text xml:space="preserve" font-family="DINAlternate-Bold" font-weight="bold" font-size="32.0" fill="#838686" transform="matrix(1.00, 0.00, -0.00, -1.00, 212.1, 3.0)"> </text><text xml:space="preserve" font-family="DINAlternate-Bold" font-weight="bold" font-size="32.0" fill="#838686" transform="matrix(1.00, 0.00, -0.00, -1.00, 221.4, 3.0)">—</text><text xml:space="preserve" font-family="DINAlternate-Bold" font-weight="bold" font-size="32.0" fill="#838686" transform="matrix(1.00, 0.00, -0.00, -1.00, 255.0, 3.0)"> </text><text xml:space="preserve" font-family="DINAlternate-Bold" font-weight="bold" font-size="32.0" fill="#838686" transform="matrix(1.00, 0.00, -0.00, -1.00, 264.3, 3.0)">T</text><text xml:space="preserve" font-family="DINAlternate-Bold" font-weight="bold" font-size="32.0" fill="#838686" transform="matrix(1.00, 0.00, -0.00, -1.00, 281.9, 3.0)">H</text><text xml:space="preserve" font-family="DINAlternate-Bold" font-weight="bold" font-size="32.0" fill="#838686" transform="matrix(1.00, 0.00, -0.00, -1.00, 304.2, 3.0)">E</text><text xml:space="preserve" font-family="DINAlternate-Bold" font-weight="bold" font-size="32.0" fill="#838686" transform="matrix(1.00, 0.00, -0.00, -1.00, 323.6, 3.0)"> </text><text xml:space="preserve" font-family="DINAlternate-Bold" font-weight="bold" font-size="32.0" fill="#838686" transform="matrix(1.00, 0.00, -0.00, -1.00, 332.9, 3.0)">P</text><text xml:space="preserve" font-family="DINAlternate-Bold" font-weight="bold" font-size="32.0" fill="#838686" transform="matrix(1.00, 0.00, -0.00, -1.00, 353.4, 3.0)">R</text><text xml:space="preserve" font-family="DINAlternate-Bold" font-weight="bold" font-size="32.0" fill="#838686" transform="matrix(1.00, 0.00, -0.00, -1.00, 374.5, 3.0)">O</text><text xml:space="preserve" font-family="DINAlternate-Bold" font-weight="bold" font-size="32.0" fill="#838686" transform="matrix(1.00, 0.00, -0.00, -1.00, 395.6, 3.0)">B</text><text xml:space="preserve" font-family="DINAlternate-Bold" font-weight="bold" font-size="32.0" fill="#838686" transform="matrix(1.00, 0.00, -0.00, -1.00, 416.8, 3.0)">L</text><text xml:space="preserve" font-family="DINAlternate-Bold" font-weight="bold" font-size="32.0" fill="#838686" transform="matrix(1.00, 0.00, -0.00, -1.00, 436.1, 3.0)">E</text><text xml:space="preserve" font-family="DINAlternate-Bold" font-weight="bold" font-size="32.0" fill="#838686" transform="matrix(1.00, 0.00, -0.00, -1.00, 455.5, 3.0)">M</text></g></svg>