<?xml version="1.0" encoding="UTF-8" standalone="no"?><svg xmlns="http://www.w3.org/2000/svg" xmlns:xlink="http://www.w3.org/1999/xlink" clip-rule="evenodd" stroke-miterlimit="4.00" viewBox="0 0 103 348"><desc>SVG generated by Keynote</desc><defs></defs><g transform="matrix(1.00, 0.00, -0.00, -1.00, 0.0, 348.0)"><g><clipPath id="clip-496"><path d="M 102.4 102.6 L 102.4 0.6 L 0.4 0.6 L 0.4 102.6 Z M 102.4 102.6 "></path></clipPath><g clip-path="url(#clip-496)"><path d="M 101.4 101.6 L 1.4 101.6 L 1.4 1.6 Z M 101.4 101.6 " fill="#34A4DA"></path></g></g><g><clipPath id="clip-497"><path d="M 0.4 347.6 L 102.4 347.6 L 102.4 245.6 L 0.4 245.6 Z M 0.4 347.6 "></path></clipPath><g clip-path="url(#clip-497)"><path d="M 1.4 346.6 L 1.4 246.6 L 101.4 246.6 Z M 1.4 346.6 " fill="#34A4DA"></path></g></g><g><clipPath id="clip-498"><path d="M 102.4 249.5 L 102.4 98.9 L 0.4 98.9 L 0.4 249.5 Z M 102.4 249.5 "></path></clipPath><g clip-path="url(#clip-498)"><path d="M 101.4 248.5 L 101.4 99.9 L 1.4 99.9 L 1.4 248.5 Z M 101.4 248.5 " fill="#34A4DA"></path></g></g></g></svg>