<?xml version="1.0" encoding="UTF-8" standalone="no"?><svg xmlns="http://www.w3.org/2000/svg" xmlns:xlink="http://www.w3.org/1999/xlink" clip-rule="evenodd" stroke-miterlimit="4.00" viewBox="0 0 317 53"><desc>SVG generated by Keynote</desc><defs></defs><g transform="matrix(1.00, 0.00, -0.00, -1.00, 0.0, 53.0)"><g><clipPath id="clip-585"><path d="M 0.0 0.0 L 317.0 0.0 L 317.0 51.4 L 0.0 51.4 Z M 0.0 0.0 "></path></clipPath><g clip-path="url(#clip-585)"><text xml:space="preserve" font-family="DINCondensed-Bold" font-weight="bold" font-size="68.9" fill="#34A4DA" transform="matrix(1.00, 0.00, -0.00, -1.00, 0.0, 2.0)">B</text><text xml:space="preserve" font-family="DINCondensed-Bold" font-weight="bold" font-size="68.9" fill="#34A4DA" transform="matrix(1.00, 0.00, -0.00, -1.00, 29.3, 2.0)">E</text><text xml:space="preserve" font-family="DINCondensed-Bold" font-weight="bold" font-size="68.9" fill="#34A4DA" transform="matrix(1.00, 0.00, -0.00, -1.00, 54.8, 2.0)">N</text><text xml:space="preserve" font-family="DINCondensed-Bold" font-weight="bold" font-size="68.9" fill="#34A4DA" transform="matrix(1.00, 0.00, -0.00, -1.00, 85.4, 2.0)">E</text><text xml:space="preserve" font-family="DINCondensed-Bold" font-weight="bold" font-size="68.9" fill="#34A4DA" transform="matrix(1.00, 0.00, -0.00, -1.00, 110.9, 2.0)">F</text><text xml:space="preserve" font-family="DINCondensed-Bold" font-weight="bold" font-size="68.9" fill="#34A4DA" transform="matrix(1.00, 0.00, -0.00, -1.00, 136.4, 2.0)">I</text><text xml:space="preserve" font-family="DINCondensed-Bold" font-weight="bold" font-size="68.9" fill="#34A4DA" transform="matrix(1.00, 0.00, -0.00, -1.00, 150.4, 2.0)">C</text><text xml:space="preserve" font-family="DINCondensed-Bold" font-weight="bold" font-size="68.9" fill="#34A4DA" transform="matrix(1.00, 0.00, -0.00, -1.00, 178.5, 2.0)">I</text><text xml:space="preserve" font-family="DINCondensed-Bold" font-weight="bold" font-size="68.9" fill="#34A4DA" transform="matrix(1.00, 0.00, -0.00, -1.00, 192.5, 2.0)">A</text><text xml:space="preserve" font-family="DINCondensed-Bold" font-weight="bold" font-size="68.9" fill="#34A4DA" transform="matrix(1.00, 0.00, -0.00, -1.00, 220.6, 2.0)">R</text><text xml:space="preserve" font-family="DINCondensed-Bold" font-weight="bold" font-size="68.9" fill="#34A4DA" transform="matrix(1.00, 0.00, -0.00, -1.00, 249.9, 2.0)">I</text><text xml:space="preserve" font-family="DINCondensed-Bold" font-weight="bold" font-size="68.9" fill="#34A4DA" transform="matrix(1.00, 0.00, -0.00, -1.00, 263.9, 2.0)">E</text><text xml:space="preserve" font-family="DINCondensed-Bold" font-weight="bold" font-size="68.9" fill="#34A4DA" transform="matrix(1.00, 0.00, -0.00, -1.00, 289.4, 2.0)">S</text></g></g></g></svg>