<?xml version="1.0" encoding="UTF-8" standalone="no"?><svg xmlns="http://www.w3.org/2000/svg" xmlns:xlink="http://www.w3.org/1999/xlink" clip-rule="evenodd" stroke-miterlimit="4.00" viewBox="0 0 598 58"><desc>SVG generated by Keynote</desc><defs></defs><g transform="matrix(1.00, 0.00, -0.00, -1.00, 0.0, 58.0)"><text xml:space="preserve" font-family="LucidaGrande" font-size="48.3" fill="#34A4DA" transform="matrix(1.00, 0.00, -0.00, -1.00, 0.6, 10.6)">▸</text><text xml:space="preserve" font-family="AvenirNext-Medium" font-size="46.0" fill="#FEFFFE" transform="matrix(1.00, 0.00, -0.00, -1.00, 48.0, 14.0)">C</text><text xml:space="preserve" font-family="AvenirNext-Medium" font-size="46.0" fill="#FEFFFE" transform="matrix(1.00, 0.00, -0.00, -1.00, 80.6, 14.0)">i</text><text xml:space="preserve" font-family="AvenirNext-Medium" font-size="46.0" fill="#FEFFFE" transform="matrix(1.00, 0.00, -0.00, -1.00, 92.5, 14.0)">v</text><text xml:space="preserve" font-family="AvenirNext-Medium" font-size="46.0" fill="#FEFFFE" transform="matrix(1.00, 0.00, -0.00, -1.00, 115.7, 14.0)">i</text><text xml:space="preserve" font-family="AvenirNext-Medium" font-size="46.0" fill="#FEFFFE" transform="matrix(1.00, 0.00, -0.00, -1.00, 127.6, 14.0)">l</text><text xml:space="preserve" font-family="AvenirNext-Medium" font-size="46.0" fill="#FEFFFE" transform="matrix(1.00, 0.00, -0.00, -1.00, 139.5, 14.0)">i</text><text xml:space="preserve" font-family="AvenirNext-Medium" font-size="46.0" fill="#FEFFFE" transform="matrix(1.00, 0.00, -0.00, -1.00, 151.5, 14.0)">a</text><text xml:space="preserve" font-family="AvenirNext-Medium" font-size="46.0" fill="#FEFFFE" transform="matrix(1.00, 0.00, -0.00, -1.00, 176.4, 14.0)">n</text><text xml:space="preserve" font-family="AvenirNext-Medium" font-size="46.0" fill="#FEFFFE" transform="matrix(1.00, 0.00, -0.00, -1.00, 203.2, 14.0)">s</text><text xml:space="preserve" font-family="AvenirNext-Medium" font-size="46.0" fill="#FEFFFE" transform="matrix(1.00, 0.00, -0.00, -1.00, 223.6, 14.0)"> </text><text xml:space="preserve" font-family="AvenirNext-Medium" font-size="46.0" fill="#FEFFFE" transform="matrix(1.00, 0.00, -0.00, -1.00, 235.1, 14.0)">a</text><text xml:space="preserve" font-family="AvenirNext-Medium" font-size="46.0" fill="#FEFFFE" transform="matrix(1.00, 0.00, -0.00, -1.00, 260.0, 14.0)">n</text><text xml:space="preserve" font-family="AvenirNext-Medium" font-size="46.0" fill="#FEFFFE" transform="matrix(1.00, 0.00, -0.00, -1.00, 286.8, 14.0)">d</text><text xml:space="preserve" font-family="AvenirNext-Medium" font-size="46.0" fill="#FEFFFE" transform="matrix(1.00, 0.00, -0.00, -1.00, 316.0, 14.0)"> </text><text xml:space="preserve" font-family="AvenirNext-Medium" font-size="46.0" fill="#FEFFFE" transform="matrix(1.00, 0.00, -0.00, -1.00, 327.5, 14.0)">t</text><text xml:space="preserve" font-family="AvenirNext-Medium" font-size="46.0" fill="#FEFFFE" transform="matrix(1.00, 0.00, -0.00, -1.00, 342.6, 14.0)">h</text><text xml:space="preserve" font-family="AvenirNext-Medium" font-size="46.0" fill="#FEFFFE" transform="matrix(1.00, 0.00, -0.00, -1.00, 369.5, 14.0)">e</text><text xml:space="preserve" font-family="AvenirNext-Medium" font-size="46.0" fill="#FEFFFE" transform="matrix(1.00, 0.00, -0.00, -1.00, 395.9, 14.0)">i</text><text xml:space="preserve" font-family="AvenirNext-Medium" font-size="46.0" fill="#FEFFFE" transform="matrix(1.00, 0.00, -0.00, -1.00, 407.8, 14.0)">r</text><text xml:space="preserve" font-family="AvenirNext-Medium" font-size="46.0" fill="#FEFFFE" transform="matrix(1.00, 0.00, -0.00, -1.00, 424.4, 14.0)"> </text><text xml:space="preserve" font-family="AvenirNext-Medium" font-size="46.0" fill="#FEFFFE" transform="matrix(1.00, 0.00, -0.00, -1.00, 435.9, 14.0)">f</text><text xml:space="preserve" font-family="AvenirNext-Medium" font-size="46.0" fill="#FEFFFE" transform="matrix(1.00, 0.00, -0.00, -1.00, 450.2, 14.0)">a</text><text xml:space="preserve" font-family="AvenirNext-Medium" font-size="46.0" fill="#FEFFFE" transform="matrix(1.00, 0.00, -0.00, -1.00, 475.1, 14.0)">m</text><text xml:space="preserve" font-family="AvenirNext-Medium" font-size="46.0" fill="#FEFFFE" transform="matrix(1.00, 0.00, -0.00, -1.00, 515.9, 14.0)">i</text><text xml:space="preserve" font-family="AvenirNext-Medium" font-size="46.0" fill="#FEFFFE" transform="matrix(1.00, 0.00, -0.00, -1.00, 527.8, 14.0)">l</text><text xml:space="preserve" font-family="AvenirNext-Medium" font-size="46.0" fill="#FEFFFE" transform="matrix(1.00, 0.00, -0.00, -1.00, 539.8, 14.0)">i</text><text xml:space="preserve" font-family="AvenirNext-Medium" font-size="46.0" fill="#FEFFFE" transform="matrix(1.00, 0.00, -0.00, -1.00, 551.7, 14.0)">e</text><text xml:space="preserve" font-family="AvenirNext-Medium" font-size="46.0" fill="#FEFFFE" transform="matrix(1.00, 0.00, -0.00, -1.00, 578.1, 14.0)">s</text></g></svg>