<?xml version="1.0" encoding="UTF-8" standalone="no"?><svg xmlns="http://www.w3.org/2000/svg" xmlns:xlink="http://www.w3.org/1999/xlink" clip-rule="evenodd" stroke-miterlimit="4.00" viewBox="0 0 400 402"><desc>SVG generated by Keynote</desc><defs></defs><g transform="matrix(1.00, 0.00, -0.00, -1.00, 0.0, 402.0)"><g><clipPath id="clip-770"><path d="M 0.2 1.1 L 399.5 1.1 L 399.5 187.3 L 0.2 187.3 Z M 0.2 1.1 "></path></clipPath><g clip-path="url(#clip-770)"><path d="M 1.2 186.3 L 398.5 186.3 L 398.5 2.1 L 1.2 2.1 Z M 1.2 186.3 " fill="#34A4DA"></path></g></g><g><clipPath id="clip-771"><path d="M 204.0 252.5 L 236.6 252.5 L 236.6 285.2 L 204.0 285.2 Z M 204.0 252.5 "></path></clipPath><g clip-path="url(#clip-771)"><path d="M 231.2 279.7 C 237.1 273.7 237.1 264.0 231.2 258.0 C 225.2 252.0 215.5 252.0 209.5 258.0 C 203.5 264.0 203.5 273.7 209.5 279.7 C 215.5 285.7 225.2 285.7 231.2 279.7 Z M 231.2 279.7 " fill="#A6AAA8"></path></g></g><g><clipPath id="clip-772"><path d="M 184.3 275.6 L 237.9 275.6 L 237.9 329.2 L 184.3 329.2 Z M 184.3 275.6 "></path></clipPath><g clip-path="url(#clip-772)"><path d="M 229.3 320.6 C 239.4 310.6 239.4 294.2 229.3 284.2 C 219.3 274.1 203.0 274.1 192.9 284.2 C 182.8 294.2 182.8 310.6 192.9 320.6 C 203.0 330.7 219.3 330.7 229.3 320.6 Z M 229.3 320.6 " fill="#A6AAA8"></path></g></g><g><clipPath id="clip-773"><path d="M 188.0 312.0 L 256.3 312.0 L 256.3 380.3 L 188.0 380.3 Z M 188.0 312.0 "></path></clipPath><g clip-path="url(#clip-773)"><path d="M 245.6 369.6 C 258.5 356.7 258.5 335.7 245.6 322.7 C 232.6 309.8 211.7 309.8 198.7 322.7 C 185.8 335.7 185.8 356.7 198.7 369.6 C 211.7 382.5 232.6 382.5 245.6 369.6 Z M 245.6 369.6 " fill="#A6AAA8"></path></g></g><g><clipPath id="clip-774"><path d="M 193.6 103.8 L 247.1 103.8 L 247.1 260.7 L 193.6 260.7 Z M 193.6 103.8 "></path></clipPath><g clip-path="url(#clip-774)"><path d="M 194.6 259.7 L 246.1 259.7 L 246.1 104.8 L 194.6 104.8 Z M 194.6 259.7 " fill="#34A4DA"></path></g></g><g><clipPath id="clip-775"><path d="M 339.9 273.7 L 372.5 273.7 L 372.5 306.4 L 339.9 306.4 Z M 339.9 273.7 "></path></clipPath><g clip-path="url(#clip-775)"><path d="M 367.0 300.9 C 373.0 294.9 373.0 285.2 367.0 279.2 C 361.0 273.2 351.3 273.2 345.3 279.2 C 339.4 285.2 339.4 294.9 345.3 300.9 C 351.3 306.9 361.0 306.9 367.0 300.9 Z M 367.0 300.9 " fill="#A6AAA8"></path></g></g><g><clipPath id="clip-776"><path d="M 333.1 296.8 L 386.6 296.8 L 386.6 350.3 L 333.1 350.3 Z M 333.1 296.8 "></path></clipPath><g clip-path="url(#clip-776)"><path d="M 378.1 341.8 C 388.1 331.7 388.1 315.4 378.1 305.4 C 368.0 295.3 351.7 295.3 341.6 305.4 C 331.6 315.4 331.6 331.7 341.6 341.8 C 351.7 351.9 368.0 351.9 378.1 341.8 Z M 378.1 341.8 " fill="#A6AAA8"></path></g></g><g><clipPath id="clip-777"><path d="M 323.9 333.2 L 392.2 333.2 L 392.2 401.5 L 323.9 401.5 Z M 323.9 333.2 "></path></clipPath><g clip-path="url(#clip-777)"><path d="M 381.5 390.8 C 394.4 377.8 394.4 356.9 381.5 343.9 C 368.5 331.0 347.5 331.0 334.6 343.9 C 321.7 356.9 321.7 377.8 334.6 390.8 C 347.5 403.7 368.5 403.7 381.5 390.8 Z M 381.5 390.8 " fill="#A6AAA8"></path></g></g><g><clipPath id="clip-778"><path d="M 270.1 230.4 L 302.7 230.4 L 302.7 263.1 L 270.1 263.1 Z M 270.1 230.4 "></path></clipPath><g clip-path="url(#clip-778)"><path d="M 297.2 257.6 C 303.2 251.6 303.2 241.9 297.2 235.9 C 291.3 229.9 281.6 229.9 275.6 235.9 C 269.6 241.9 269.6 251.6 275.6 257.6 C 281.6 263.6 291.3 263.6 297.2 257.6 Z M 297.2 257.6 " fill="#A6AAA8"></path></g></g><g><clipPath id="clip-779"><path d="M 268.9 253.5 L 322.4 253.5 L 322.4 307.1 L 268.9 307.1 Z M 268.9 253.5 "></path></clipPath><g clip-path="url(#clip-779)"><path d="M 313.8 298.5 C 323.9 288.5 323.9 272.1 313.8 262.1 C 303.8 252.0 287.5 252.0 277.4 262.1 C 267.3 272.1 267.3 288.5 277.4 298.5 C 287.5 308.6 303.8 308.6 313.8 298.5 Z M 313.8 298.5 " fill="#A6AAA8"></path></g></g><g><clipPath id="clip-780"><path d="M 261.5 289.9 L 329.7 289.9 L 329.7 358.2 L 261.5 358.2 Z M 261.5 289.9 "></path></clipPath><g clip-path="url(#clip-780)"><path d="M 319.0 347.5 C 332.0 334.6 332.0 313.6 319.0 300.6 C 306.1 287.7 285.1 287.7 272.2 300.6 C 259.3 313.6 259.3 334.6 272.2 347.5 C 285.1 360.4 306.1 360.4 319.0 347.5 Z M 319.0 347.5 " fill="#A6AAA8"></path></g></g><g><clipPath id="clip-781"><path d="M 261.5 83.6 L 315.0 83.6 L 315.0 240.4 L 261.5 240.4 Z M 261.5 83.6 "></path></clipPath><g clip-path="url(#clip-781)"><path d="M 262.5 239.4 L 314.0 239.4 L 314.0 84.6 L 262.5 84.6 Z M 262.5 239.4 " fill="#34A4DA"></path></g></g><g><clipPath id="clip-782"><path d="M 329.4 129.6 L 382.9 129.6 L 382.9 286.4 L 329.4 286.4 Z M 329.4 129.6 "></path></clipPath><g clip-path="url(#clip-782)"><path d="M 330.4 285.4 L 381.9 285.4 L 381.9 130.6 L 330.4 130.6 Z M 330.4 285.4 " fill="#34A4DA"></path></g></g></g></svg>