<?xml version="1.0" encoding="UTF-8" standalone="no"?><svg xmlns="http://www.w3.org/2000/svg" xmlns:xlink="http://www.w3.org/1999/xlink" clip-rule="evenodd" stroke-miterlimit="4.00" viewBox="0 0 926 652"><desc>SVG generated by Keynote</desc><defs></defs><g transform="matrix(1.00, 0.00, -0.00, -1.00, 0.0, 652.0)"><g><clipPath id="clip-759"><path d="M 0.7 0.4 L 507.7 0.4 L 507.7 651.2 L 0.7 651.2 Z M 0.7 0.4 "></path></clipPath><g clip-path="url(#clip-759)"><path d="M 29.8 650.2 L 478.6 650.2 C 486.6 650.2 490.7 650.2 495.1 648.9 C 499.8 647.1 503.6 643.4 505.3 638.6 C 506.7 634.3 506.7 630.2 506.7 622.0 L 506.7 29.4 C 506.7 21.4 506.7 17.3 505.3 13.0 C 503.6 8.2 499.8 4.5 495.1 2.7 C 490.7 1.4 486.6 1.4 478.5 1.4 L 29.8 1.4 C 21.7 1.4 17.6 1.4 13.3 2.7 C 8.5 4.5 4.8 8.2 3.0 13.0 C 1.7 17.3 1.7 21.4 1.7 29.6 L 1.7 622.1 C 1.7 630.2 1.7 634.3 3.0 638.6 C 4.8 643.4 8.5 647.1 13.3 648.9 C 17.6 650.2 21.7 650.2 29.9 650.2 Z M 29.8 650.2 " fill="#FEFFFE"></path></g></g><g><clipPath id="clip-760"><path d="M 171.9 428.7 L 925.0 428.7 L 925.0 434.7 L 171.9 434.7 Z M 171.9 428.7 "></path></clipPath><g clip-path="url(#clip-760)"><path d="M 0.0 0.0 L 751.1 0.0 " fill="none" stroke="#34A4DA" stroke-width="4.00" transform="matrix(1.00, 0.00, 0.00, -1.00, 172.9, 431.7)"></path></g></g><g><clipPath id="clip-761"><path d="M 73.4 390.6 L 201.4 390.6 L 201.4 518.6 L 73.4 518.6 Z M 73.4 390.6 "></path></clipPath><g clip-path="url(#clip-761)"><image xlink:href="../../086BAE0C-9FEE-462E-B83B-45C8DB5F32EC/assets/5AFC4BA718DEA63620C1A427076C5632.png" width="128.00" height="128.00" transform="matrix(1.00, 0.00, -0.00, -1.00, 73.0, 519.0)"></image></g></g><g><clipPath id="clip-762"><path d="M 341.9 406.7 L 399.9 406.7 L 399.9 456.7 L 341.9 456.7 Z M 341.9 406.7 "></path></clipPath><g clip-path="url(#clip-762)"><path d="M 342.9 455.7 L 398.9 455.7 L 398.9 407.7 L 342.9 407.7 Z M 342.9 455.7 " fill="#FEFFFE"></path></g></g><g><clipPath id="clip-763"><path d="M 306.9 390.6 L 434.9 390.6 L 434.9 518.6 L 306.9 518.6 Z M 306.9 390.6 "></path></clipPath><g clip-path="url(#clip-763)"><image xlink:href="../../086BAE0C-9FEE-462E-B83B-45C8DB5F32EC/assets/5AFC4BA718DEA63620C1A427076C5632.png" width="128.00" height="128.00" transform="matrix(1.00, 0.00, -0.00, -1.00, 307.0, 519.0)"></image></g></g><g><clipPath id="clip-764"><path d="M 418.3 415.2 L 925.0 415.2 L 925.0 421.2 L 418.3 421.2 Z M 418.3 415.2 "></path></clipPath><g clip-path="url(#clip-764)"><path d="M 0.0 0.0 L 504.7 0.0 " fill="none" stroke="#34A4DA" stroke-width="4.00" transform="matrix(1.00, 0.00, 0.00, -1.00, 419.3, 418.2)"></path></g></g><g><clipPath id="clip-765"><path d="M 170.9 295.9 L 925.0 295.9 L 925.0 301.9 L 170.9 301.9 Z M 170.9 295.9 "></path></clipPath><g clip-path="url(#clip-765)"><path d="M 0.0 0.0 L 752.1 0.0 " fill="none" stroke="#34A4DA" stroke-width="4.00" transform="matrix(1.00, 0.00, 0.00, -1.00, 171.9, 298.9)"></path></g></g><g><clipPath id="clip-766"><path d="M 72.4 263.8 L 200.4 263.8 L 200.4 391.8 L 72.4 391.8 Z M 72.4 263.8 "></path></clipPath><g clip-path="url(#clip-766)"><image xlink:href="../../086BAE0C-9FEE-462E-B83B-45C8DB5F32EC/assets/5AFC4BA718DEA63620C1A427076C5632.png" width="128.00" height="128.00" transform="matrix(1.00, 0.00, -0.00, -1.00, 72.0, 392.0)"></image></g></g><g><clipPath id="clip-767"><path d="M 340.9 279.9 L 398.9 279.9 L 398.9 329.9 L 340.9 329.9 Z M 340.9 279.9 "></path></clipPath><g clip-path="url(#clip-767)"><path d="M 341.9 328.9 L 397.9 328.9 L 397.9 280.9 L 341.9 280.9 Z M 341.9 328.9 " fill="#FEFFFE"></path></g></g><g><clipPath id="clip-768"><path d="M 396.1 282.4 L 925.0 282.4 L 925.0 288.4 L 396.1 288.4 Z M 396.1 282.4 "></path></clipPath><g clip-path="url(#clip-768)"><path d="M 0.0 0.0 L 526.9 0.0 " fill="none" stroke="#34A4DA" stroke-width="4.00" transform="matrix(1.00, 0.00, 0.00, -1.00, 397.1, 285.4)"></path></g></g><g><clipPath id="clip-769"><path d="M 305.9 263.8 L 433.9 263.8 L 433.9 391.8 L 305.9 391.8 Z M 305.9 263.8 "></path></clipPath><g clip-path="url(#clip-769)"><image xlink:href="../../086BAE0C-9FEE-462E-B83B-45C8DB5F32EC/assets/5AFC4BA718DEA63620C1A427076C5632.png" width="128.00" height="128.00" transform="matrix(1.00, 0.00, -0.00, -1.00, 306.0, 392.0)"></image></g></g></g></svg>