<?xml version="1.0" encoding="UTF-8" standalone="no"?><svg xmlns="http://www.w3.org/2000/svg" xmlns:xlink="http://www.w3.org/1999/xlink" clip-rule="evenodd" stroke-miterlimit="4.00" viewBox="0 0 509 652"><desc>SVG generated by Keynote</desc><defs></defs><g transform="matrix(1.00, 0.00, -0.00, -1.00, 0.0, 652.0)"><path d="M 29.8 650.2 L 478.6 650.2 C 486.6 650.2 490.7 650.2 495.1 648.9 C 499.8 647.1 503.6 643.4 505.3 638.6 C 506.7 634.3 506.7 630.2 506.7 622.0 L 506.7 29.4 C 506.7 21.4 506.7 17.3 505.3 13.0 C 503.6 8.2 499.8 4.5 495.1 2.7 C 490.7 1.4 486.6 1.4 478.5 1.4 L 29.8 1.4 C 21.7 1.4 17.6 1.4 13.3 2.7 C 8.5 4.5 4.8 8.2 3.0 13.0 C 1.7 17.3 1.7 21.4 1.7 29.6 L 1.7 622.1 C 1.7 630.2 1.7 634.3 3.0 638.6 C 4.8 643.4 8.5 647.1 13.3 648.9 C 17.6 650.2 21.7 650.2 29.9 650.2 Z M 29.8 650.2 " fill="#838786"></path></g></svg>