<?xml version="1.0" encoding="UTF-8" standalone="no"?><svg xmlns="http://www.w3.org/2000/svg" xmlns:xlink="http://www.w3.org/1999/xlink" clip-rule="evenodd" stroke-miterlimit="4.00" viewBox="0 0 381 53"><desc>SVG generated by Keynote</desc><defs></defs><g transform="matrix(1.00, 0.00, -0.00, -1.00, 0.0, 53.0)"><g><clipPath id="clip-757"><path d="M 0.0 0.0 L 381.0 0.0 L 381.0 51.4 L 0.0 51.4 Z M 0.0 0.0 "></path></clipPath><g clip-path="url(#clip-757)"><text xml:space="preserve" font-family="DINCondensed-Bold" font-weight="bold" font-size="68.9" fill="#34A4DA" transform="matrix(1.00, 0.00, -0.00, -1.00, -1.0, 2.0)">P</text><text xml:space="preserve" font-family="DINCondensed-Bold" font-weight="bold" font-size="68.9" fill="#34A4DA" transform="matrix(1.00, 0.00, -0.00, -1.00, 27.0, 2.0)">R</text><text xml:space="preserve" font-family="DINCondensed-Bold" font-weight="bold" font-size="68.9" fill="#34A4DA" transform="matrix(1.00, 0.00, -0.00, -1.00, 56.4, 2.0)">O</text><text xml:space="preserve" font-family="DINCondensed-Bold" font-weight="bold" font-size="68.9" fill="#34A4DA" transform="matrix(1.00, 0.00, -0.00, -1.00, 85.7, 2.0)">D</text><text xml:space="preserve" font-family="DINCondensed-Bold" font-weight="bold" font-size="68.9" fill="#34A4DA" transform="matrix(1.00, 0.00, -0.00, -1.00, 115.1, 2.0)">U</text><text xml:space="preserve" font-family="DINCondensed-Bold" font-weight="bold" font-size="68.9" fill="#34A4DA" transform="matrix(1.00, 0.00, -0.00, -1.00, 144.4, 2.0)">C</text><text xml:space="preserve" font-family="DINCondensed-Bold" font-weight="bold" font-size="68.9" fill="#34A4DA" transform="matrix(1.00, 0.00, -0.00, -1.00, 172.4, 2.0)">T</text><text xml:space="preserve" font-family="DINCondensed-Bold" font-weight="bold" font-size="68.9" fill="#34A4DA" transform="matrix(1.00, 0.00, -0.00, -1.00, 195.3, 2.0)"> </text><text xml:space="preserve" font-family="DINCondensed-Bold" font-weight="bold" font-size="68.9" fill="#34A4DA" transform="matrix(1.00, 0.00, -0.00, -1.00, 208.1, 2.0)">T</text><text xml:space="preserve" font-family="DINCondensed-Bold" font-weight="bold" font-size="68.9" fill="#34A4DA" transform="matrix(1.00, 0.00, -0.00, -1.00, 231.0, 2.0)">E</text><text xml:space="preserve" font-family="DINCondensed-Bold" font-weight="bold" font-size="68.9" fill="#34A4DA" transform="matrix(1.00, 0.00, -0.00, -1.00, 256.5, 2.0)">S</text><text xml:space="preserve" font-family="DINCondensed-Bold" font-weight="bold" font-size="68.9" fill="#34A4DA" transform="matrix(1.00, 0.00, -0.00, -1.00, 284.4, 2.0)">T</text><text xml:space="preserve" font-family="DINCondensed-Bold" font-weight="bold" font-size="68.9" fill="#34A4DA" transform="matrix(1.00, 0.00, -0.00, -1.00, 307.3, 2.0)">I</text><text xml:space="preserve" font-family="DINCondensed-Bold" font-weight="bold" font-size="68.9" fill="#34A4DA" transform="matrix(1.00, 0.00, -0.00, -1.00, 321.4, 2.0)">N</text><text xml:space="preserve" font-family="DINCondensed-Bold" font-weight="bold" font-size="68.9" fill="#34A4DA" transform="matrix(1.00, 0.00, -0.00, -1.00, 351.9, 2.0)">G</text></g></g></g></svg>