<?xml version="1.0" encoding="UTF-8" standalone="no"?><svg xmlns="http://www.w3.org/2000/svg" xmlns:xlink="http://www.w3.org/1999/xlink" clip-rule="evenodd" stroke-miterlimit="4.00" viewBox="0 0 358 32"><desc>SVG generated by Keynote</desc><defs></defs><g transform="matrix(1.00, 0.00, -0.00, -1.00, 0.0, 32.0)"><text xml:space="preserve" font-family="DINCondensed-Bold" font-weight="bold" font-size="38.0" fill="#000000" transform="matrix(1.00, 0.00, -0.00, -1.00, 2.0, 2.0)">V</text><text xml:space="preserve" font-family="DINCondensed-Bold" font-weight="bold" font-size="38.0" fill="#000000" transform="matrix(1.00, 0.00, -0.00, -1.00, 17.5, 2.0)">I</text><text xml:space="preserve" font-family="DINCondensed-Bold" font-weight="bold" font-size="38.0" fill="#000000" transform="matrix(1.00, 0.00, -0.00, -1.00, 25.2, 2.0)">R</text><text xml:space="preserve" font-family="DINCondensed-Bold" font-weight="bold" font-size="38.0" fill="#000000" transform="matrix(1.00, 0.00, -0.00, -1.00, 40.7, 2.0)">T</text><text xml:space="preserve" font-family="DINCondensed-Bold" font-weight="bold" font-size="38.0" fill="#000000" transform="matrix(1.00, 0.00, -0.00, -1.00, 53.3, 2.0)">U</text><text xml:space="preserve" font-family="DINCondensed-Bold" font-weight="bold" font-size="38.0" fill="#000000" transform="matrix(1.00, 0.00, -0.00, -1.00, 69.1, 2.0)">A</text><text xml:space="preserve" font-family="DINCondensed-Bold" font-weight="bold" font-size="38.0" fill="#000000" transform="matrix(1.00, 0.00, -0.00, -1.00, 84.5, 2.0)">L</text><text xml:space="preserve" font-family="DINCondensed-Bold" font-weight="bold" font-size="38.0" fill="#000000" transform="matrix(1.00, 0.00, -0.00, -1.00, 98.6, 2.0)">I</text><text xml:space="preserve" font-family="DINCondensed-Bold" font-weight="bold" font-size="38.0" fill="#000000" transform="matrix(1.00, 0.00, -0.00, -1.00, 106.3, 2.0)">Z</text><text xml:space="preserve" font-family="DINCondensed-Bold" font-weight="bold" font-size="38.0" fill="#000000" transform="matrix(1.00, 0.00, -0.00, -1.00, 119.0, 2.0)">E</text><text xml:space="preserve" font-family="DINCondensed-Bold" font-weight="bold" font-size="38.0" fill="#000000" transform="matrix(1.00, 0.00, -0.00, -1.00, 133.1, 2.0)">D</text><text xml:space="preserve" font-family="DINCondensed-Bold" font-weight="bold" font-size="38.0" fill="#000000" transform="matrix(1.00, 0.00, -0.00, -1.00, 149.2, 2.0)"> </text><text xml:space="preserve" font-family="DINCondensed-Bold" font-weight="bold" font-size="38.0" fill="#000000" transform="matrix(1.00, 0.00, -0.00, -1.00, 156.3, 2.0)">P</text><text xml:space="preserve" font-family="DINCondensed-Bold" font-weight="bold" font-size="38.0" fill="#000000" transform="matrix(1.00, 0.00, -0.00, -1.00, 171.8, 2.0)">H</text><text xml:space="preserve" font-family="DINCondensed-Bold" font-weight="bold" font-size="38.0" fill="#000000" transform="matrix(1.00, 0.00, -0.00, -1.00, 188.0, 2.0)">O</text><text xml:space="preserve" font-family="DINCondensed-Bold" font-weight="bold" font-size="38.0" fill="#000000" transform="matrix(1.00, 0.00, -0.00, -1.00, 204.2, 2.0)">N</text><text xml:space="preserve" font-family="DINCondensed-Bold" font-weight="bold" font-size="38.0" fill="#000000" transform="matrix(1.00, 0.00, -0.00, -1.00, 221.0, 2.0)">E</text><text xml:space="preserve" font-family="DINCondensed-Bold" font-weight="bold" font-size="38.0" fill="#000000" transform="matrix(1.00, 0.00, -0.00, -1.00, 235.1, 2.0)"> </text><text xml:space="preserve" font-family="DINCondensed-Bold" font-weight="bold" font-size="38.0" fill="#000000" transform="matrix(1.00, 0.00, -0.00, -1.00, 242.2, 2.0)">N</text><text xml:space="preserve" font-family="DINCondensed-Bold" font-weight="bold" font-size="38.0" fill="#000000" transform="matrix(1.00, 0.00, -0.00, -1.00, 259.0, 2.0)">E</text><text xml:space="preserve" font-family="DINCondensed-Bold" font-weight="bold" font-size="38.0" fill="#000000" transform="matrix(1.00, 0.00, -0.00, -1.00, 273.1, 2.0)">T</text><text xml:space="preserve" font-family="DINCondensed-Bold" font-weight="bold" font-size="38.0" fill="#000000" transform="matrix(1.00, 0.00, -0.00, -1.00, 285.7, 2.0)">W</text><text xml:space="preserve" font-family="DINCondensed-Bold" font-weight="bold" font-size="38.0" fill="#000000" transform="matrix(1.00, 0.00, -0.00, -1.00, 307.8, 2.0)">O</text><text xml:space="preserve" font-family="DINCondensed-Bold" font-weight="bold" font-size="38.0" fill="#000000" transform="matrix(1.00, 0.00, -0.00, -1.00, 324.0, 2.0)">R</text><text xml:space="preserve" font-family="DINCondensed-Bold" font-weight="bold" font-size="38.0" fill="#000000" transform="matrix(1.00, 0.00, -0.00, -1.00, 340.2, 2.0)">K</text></g></svg>