<?xml version="1.0" encoding="UTF-8" standalone="no"?><svg xmlns="http://www.w3.org/2000/svg" xmlns:xlink="http://www.w3.org/1999/xlink" clip-rule="evenodd" stroke-miterlimit="4.00" viewBox="0 0 219 44"><desc>SVG generated by Keynote</desc><defs></defs><g transform="matrix(1.00, 0.00, -0.00, -1.00, 0.0, 44.0)"><text xml:space="preserve" font-family="AvenirNext-Medium" font-size="53.2" fill="#FEFFFE" transform="matrix(1.00, 0.00, -0.00, -1.00, 1.0, 2.0)">s</text><text xml:space="preserve" font-family="AvenirNext-Medium" font-size="53.2" fill="#FEFFFE" transform="matrix(1.00, 0.00, -0.00, -1.00, 24.6, 2.0)">o</text><text xml:space="preserve" font-family="AvenirNext-Medium" font-size="53.2" fill="#FEFFFE" transform="matrix(1.00, 0.00, -0.00, -1.00, 57.1, 2.0)">l</text><text xml:space="preserve" font-family="AvenirNext-Medium" font-size="53.2" fill="#FEFFFE" transform="matrix(1.00, 0.00, -0.00, -1.00, 70.9, 2.0)">u</text><text xml:space="preserve" font-family="AvenirNext-Medium" font-size="53.2" fill="#FEFFFE" transform="matrix(1.00, 0.00, -0.00, -1.00, 101.9, 2.0)">t</text><text xml:space="preserve" font-family="AvenirNext-Medium" font-size="53.2" fill="#FEFFFE" transform="matrix(1.00, 0.00, -0.00, -1.00, 119.4, 2.0)">i</text><text xml:space="preserve" font-family="AvenirNext-Medium" font-size="53.2" fill="#FEFFFE" transform="matrix(1.00, 0.00, -0.00, -1.00, 133.1, 2.0)">o</text><text xml:space="preserve" font-family="AvenirNext-Medium" font-size="53.2" fill="#FEFFFE" transform="matrix(1.00, 0.00, -0.00, -1.00, 165.6, 2.0)">n</text><text xml:space="preserve" font-family="AvenirNext-Medium" font-size="53.2" fill="#FEFFFE" transform="matrix(1.00, 0.00, -0.00, -1.00, 196.6, 2.0)">s</text></g></svg>