<?xml version="1.0" encoding="UTF-8" standalone="no"?><svg xmlns="http://www.w3.org/2000/svg" xmlns:xlink="http://www.w3.org/1999/xlink" clip-rule="evenodd" stroke-miterlimit="4.00" viewBox="0 0 913 68"><desc>SVG generated by Keynote</desc><defs></defs><g transform="matrix(1.00, 0.00, -0.00, -1.00, 0.0, 68.0)"><text xml:space="preserve" font-family="LucidaGrande" font-size="55.9" fill="#34A4DA" transform="matrix(1.00, 0.00, -0.00, -1.00, 0.6, 13.2)">▸</text><text xml:space="preserve" font-family="AvenirNext-Medium" font-size="53.2" fill="#FEFFFE" transform="matrix(1.00, 0.00, -0.00, -1.00, 37.0, 18.0)">C</text><text xml:space="preserve" font-family="AvenirNext-Medium" font-size="53.2" fill="#FEFFFE" transform="matrix(1.00, 0.00, -0.00, -1.00, 74.7, 18.0)">r</text><text xml:space="preserve" font-family="AvenirNext-Medium" font-size="53.2" fill="#FEFFFE" transform="matrix(1.00, 0.00, -0.00, -1.00, 93.0, 18.0)">e</text><text xml:space="preserve" font-family="AvenirNext-Medium" font-size="53.2" fill="#FEFFFE" transform="matrix(1.00, 0.00, -0.00, -1.00, 123.1, 18.0)">a</text><text xml:space="preserve" font-family="AvenirNext-Medium" font-size="53.2" fill="#FEFFFE" transform="matrix(1.00, 0.00, -0.00, -1.00, 151.4, 18.0)">t</text><text xml:space="preserve" font-family="AvenirNext-Medium" font-size="53.2" fill="#FEFFFE" transform="matrix(1.00, 0.00, -0.00, -1.00, 168.9, 18.0)">i</text><text xml:space="preserve" font-family="AvenirNext-Medium" font-size="53.2" fill="#FEFFFE" transform="matrix(1.00, 0.00, -0.00, -1.00, 182.7, 18.0)">n</text><text xml:space="preserve" font-family="AvenirNext-Medium" font-size="53.2" fill="#FEFFFE" transform="matrix(1.00, 0.00, -0.00, -1.00, 213.7, 18.0)">g</text><text xml:space="preserve" font-family="AvenirNext-Medium" font-size="53.2" fill="#FEFFFE" transform="matrix(1.00, 0.00, -0.00, -1.00, 247.3, 18.0)"> </text><text xml:space="preserve" font-family="AvenirNext-Medium" font-size="53.2" fill="#FEFFFE" transform="matrix(1.00, 0.00, -0.00, -1.00, 260.6, 18.0)">s</text><text xml:space="preserve" font-family="AvenirNext-Medium" font-size="53.2" fill="#FEFFFE" transform="matrix(1.00, 0.00, -0.00, -1.00, 284.2, 18.0)">c</text><text xml:space="preserve" font-family="AvenirNext-Medium" font-size="53.2" fill="#FEFFFE" transform="matrix(1.00, 0.00, -0.00, -1.00, 310.5, 18.0)">a</text><text xml:space="preserve" font-family="AvenirNext-Medium" font-size="53.2" fill="#FEFFFE" transform="matrix(1.00, 0.00, -0.00, -1.00, 339.3, 18.0)">l</text><text xml:space="preserve" font-family="AvenirNext-Medium" font-size="53.2" fill="#FEFFFE" transform="matrix(1.00, 0.00, -0.00, -1.00, 353.2, 18.0)">a</text><text xml:space="preserve" font-family="AvenirNext-Medium" font-size="53.2" fill="#FEFFFE" transform="matrix(1.00, 0.00, -0.00, -1.00, 382.0, 18.0)">b</text><text xml:space="preserve" font-family="AvenirNext-Medium" font-size="53.2" fill="#FEFFFE" transform="matrix(1.00, 0.00, -0.00, -1.00, 415.8, 18.0)">l</text><text xml:space="preserve" font-family="AvenirNext-Medium" font-size="53.2" fill="#FEFFFE" transform="matrix(1.00, 0.00, -0.00, -1.00, 429.7, 18.0)">e</text><text xml:space="preserve" font-family="AvenirNext-Medium" font-size="53.2" fill="#FEFFFE" transform="matrix(1.00, 0.00, -0.00, -1.00, 460.2, 18.0)"> </text><text xml:space="preserve" font-family="AvenirNext-Medium" font-size="53.2" fill="#FEFFFE" transform="matrix(1.00, 0.00, -0.00, -1.00, 473.5, 18.0)">s</text><text xml:space="preserve" font-family="AvenirNext-Medium" font-size="53.2" fill="#FEFFFE" transform="matrix(1.00, 0.00, -0.00, -1.00, 497.1, 18.0)">y</text><text xml:space="preserve" font-family="AvenirNext-Medium" font-size="53.2" fill="#FEFFFE" transform="matrix(1.00, 0.00, -0.00, -1.00, 523.9, 18.0)">s</text><text xml:space="preserve" font-family="AvenirNext-Medium" font-size="53.2" fill="#FEFFFE" transform="matrix(1.00, 0.00, -0.00, -1.00, 547.5, 18.0)">t</text><text xml:space="preserve" font-family="AvenirNext-Medium" font-size="53.2" fill="#FEFFFE" transform="matrix(1.00, 0.00, -0.00, -1.00, 565.0, 18.0)">e</text><text xml:space="preserve" font-family="AvenirNext-Medium" font-size="53.2" fill="#FEFFFE" transform="matrix(1.00, 0.00, -0.00, -1.00, 595.5, 18.0)">m</text><text xml:space="preserve" font-family="AvenirNext-Medium" font-size="53.2" fill="#FEFFFE" transform="matrix(1.00, 0.00, -0.00, -1.00, 642.7, 18.0)">s</text><text xml:space="preserve" font-family="AvenirNext-Medium" font-size="53.2" fill="#FEFFFE" transform="matrix(1.00, 0.00, -0.00, -1.00, 666.3, 18.0)"> </text><text xml:space="preserve" font-family="AvenirNext-Medium" font-size="53.2" fill="#FEFFFE" transform="matrix(1.00, 0.00, -0.00, -1.00, 679.6, 18.0)">i</text><text xml:space="preserve" font-family="AvenirNext-Medium" font-size="53.2" fill="#FEFFFE" transform="matrix(1.00, 0.00, -0.00, -1.00, 693.4, 18.0)">s</text><text xml:space="preserve" font-family="AvenirNext-Medium" font-size="53.2" fill="#FEFFFE" transform="matrix(1.00, 0.00, -0.00, -1.00, 717.0, 18.0)"> </text><text xml:space="preserve" font-family="AvenirNext-Medium" font-size="53.2" fill="#FEFFFE" transform="matrix(1.00, 0.00, -0.00, -1.00, 730.3, 18.0)">d</text><text xml:space="preserve" font-family="AvenirNext-Medium" font-size="53.2" fill="#FEFFFE" transform="matrix(1.00, 0.00, -0.00, -1.00, 764.1, 18.0)">i</text><text xml:space="preserve" font-family="AvenirNext-Medium" font-size="53.2" fill="#FEFFFE" transform="matrix(1.00, 0.00, -0.00, -1.00, 777.9, 18.0)">f</text><text xml:space="preserve" font-family="AvenirNext-Medium" font-size="53.2" fill="#FEFFFE" transform="matrix(1.00, 0.00, -0.00, -1.00, 793.2, 18.0)">ﬁ</text><text xml:space="preserve" font-family="AvenirNext-Medium" font-size="53.2" fill="#FEFFFE" transform="matrix(1.00, 0.00, -0.00, -1.00, 823.8, 18.0)">c</text><text xml:space="preserve" font-family="AvenirNext-Medium" font-size="53.2" fill="#FEFFFE" transform="matrix(1.00, 0.00, -0.00, -1.00, 850.1, 18.0)">u</text><text xml:space="preserve" font-family="AvenirNext-Medium" font-size="53.2" fill="#FEFFFE" transform="matrix(1.00, 0.00, -0.00, -1.00, 881.0, 18.0)">l</text><text xml:space="preserve" font-family="AvenirNext-Medium" font-size="53.2" fill="#FEFFFE" transform="matrix(1.00, 0.00, -0.00, -1.00, 894.9, 18.0)">t</text></g></svg>