<?xml version="1.0" encoding="UTF-8" standalone="no"?><svg xmlns="http://www.w3.org/2000/svg" xmlns:xlink="http://www.w3.org/1999/xlink" clip-rule="evenodd" stroke-miterlimit="4.00" viewBox="0 0 1517 67"><desc>SVG generated by Keynote</desc><defs></defs><g transform="matrix(1.00, 0.00, -0.00, -1.00, 0.0, 67.0)"><text xml:space="preserve" font-family="LucidaGrande" font-size="55.9" fill="#34A4DA" transform="matrix(1.00, 0.00, -0.00, -1.00, 0.6, 12.2)">▸</text><text xml:space="preserve" font-family="AvenirNext-Medium" font-size="53.2" fill="#FEFFFE" transform="matrix(1.00, 0.00, -0.00, -1.00, 37.0, 17.0)">E</text><text xml:space="preserve" font-family="AvenirNext-Medium" font-size="53.2" fill="#FEFFFE" transform="matrix(1.00, 0.00, -0.00, -1.00, 69.0, 17.0)">x</text><text xml:space="preserve" font-family="AvenirNext-Medium" font-size="53.2" fill="#FEFFFE" transform="matrix(1.00, 0.00, -0.00, -1.00, 96.2, 17.0)">t</text><text xml:space="preserve" font-family="AvenirNext-Medium" font-size="53.2" fill="#FEFFFE" transform="matrix(1.00, 0.00, -0.00, -1.00, 113.7, 17.0)">e</text><text xml:space="preserve" font-family="AvenirNext-Medium" font-size="53.2" fill="#FEFFFE" transform="matrix(1.00, 0.00, -0.00, -1.00, 144.1, 17.0)">n</text><text xml:space="preserve" font-family="AvenirNext-Medium" font-size="53.2" fill="#FEFFFE" transform="matrix(1.00, 0.00, -0.00, -1.00, 175.1, 17.0)">d</text><text xml:space="preserve" font-family="AvenirNext-Medium" font-size="53.2" fill="#FEFFFE" transform="matrix(1.00, 0.00, -0.00, -1.00, 208.9, 17.0)">i</text><text xml:space="preserve" font-family="AvenirNext-Medium" font-size="53.2" fill="#FEFFFE" transform="matrix(1.00, 0.00, -0.00, -1.00, 222.7, 17.0)">n</text><text xml:space="preserve" font-family="AvenirNext-Medium" font-size="53.2" fill="#FEFFFE" transform="matrix(1.00, 0.00, -0.00, -1.00, 253.6, 17.0)">g</text><text xml:space="preserve" font-family="AvenirNext-Medium" font-size="53.2" fill="#FEFFFE" transform="matrix(1.00, 0.00, -0.00, -1.00, 287.3, 17.0)"> </text><text xml:space="preserve" font-family="AvenirNext-Medium" font-size="53.2" fill="#FEFFFE" transform="matrix(1.00, 0.00, -0.00, -1.00, 300.6, 17.0)">t</text><text xml:space="preserve" font-family="AvenirNext-Medium" font-size="53.2" fill="#FEFFFE" transform="matrix(1.00, 0.00, -0.00, -1.00, 318.1, 17.0)">o</text><text xml:space="preserve" font-family="AvenirNext-Medium" font-size="53.2" fill="#FEFFFE" transform="matrix(1.00, 0.00, -0.00, -1.00, 350.5, 17.0)"> </text><text xml:space="preserve" font-family="AvenirNext-Medium" font-size="53.2" fill="#FEFFFE" transform="matrix(1.00, 0.00, -0.00, -1.00, 363.8, 17.0)">m</text><text xml:space="preserve" font-family="AvenirNext-Medium" font-size="53.2" fill="#FEFFFE" transform="matrix(1.00, 0.00, -0.00, -1.00, 411.0, 17.0)">o</text><text xml:space="preserve" font-family="AvenirNext-Medium" font-size="53.2" fill="#FEFFFE" transform="matrix(1.00, 0.00, -0.00, -1.00, 443.4, 17.0)">b</text><text xml:space="preserve" font-family="AvenirNext-Medium" font-size="53.2" fill="#FEFFFE" transform="matrix(1.00, 0.00, -0.00, -1.00, 477.3, 17.0)">i</text><text xml:space="preserve" font-family="AvenirNext-Medium" font-size="53.2" fill="#FEFFFE" transform="matrix(1.00, 0.00, -0.00, -1.00, 491.1, 17.0)">l</text><text xml:space="preserve" font-family="AvenirNext-Medium" font-size="53.2" fill="#FEFFFE" transform="matrix(1.00, 0.00, -0.00, -1.00, 504.9, 17.0)">e</text><text xml:space="preserve" font-family="AvenirNext-Medium" font-size="53.2" fill="#FEFFFE" transform="matrix(1.00, 0.00, -0.00, -1.00, 535.4, 17.0)"> </text><text xml:space="preserve" font-family="AvenirNext-Medium" font-size="53.2" fill="#FEFFFE" transform="matrix(1.00, 0.00, -0.00, -1.00, 548.7, 17.0)">i</text><text xml:space="preserve" font-family="AvenirNext-Medium" font-size="53.2" fill="#FEFFFE" transform="matrix(1.00, 0.00, -0.00, -1.00, 562.5, 17.0)">n</text><text xml:space="preserve" font-family="AvenirNext-Medium" font-size="53.2" fill="#FEFFFE" transform="matrix(1.00, 0.00, -0.00, -1.00, 593.4, 17.0)">f</text><text xml:space="preserve" font-family="AvenirNext-Medium" font-size="53.2" fill="#FEFFFE" transform="matrix(1.00, 0.00, -0.00, -1.00, 609.9, 17.0)">r</text><text xml:space="preserve" font-family="AvenirNext-Medium" font-size="53.2" fill="#FEFFFE" transform="matrix(1.00, 0.00, -0.00, -1.00, 628.5, 17.0)">a</text><text xml:space="preserve" font-family="AvenirNext-Medium" font-size="53.2" fill="#FEFFFE" transform="matrix(1.00, 0.00, -0.00, -1.00, 657.3, 17.0)">s</text><text xml:space="preserve" font-family="AvenirNext-Medium" font-size="53.2" fill="#FEFFFE" transform="matrix(1.00, 0.00, -0.00, -1.00, 680.9, 17.0)">t</text><text xml:space="preserve" font-family="AvenirNext-Medium" font-size="53.2" fill="#FEFFFE" transform="matrix(1.00, 0.00, -0.00, -1.00, 698.4, 17.0)">r</text><text xml:space="preserve" font-family="AvenirNext-Medium" font-size="53.2" fill="#FEFFFE" transform="matrix(1.00, 0.00, -0.00, -1.00, 717.7, 17.0)">u</text><text xml:space="preserve" font-family="AvenirNext-Medium" font-size="53.2" fill="#FEFFFE" transform="matrix(1.00, 0.00, -0.00, -1.00, 748.7, 17.0)">c</text><text xml:space="preserve" font-family="AvenirNext-Medium" font-size="53.2" fill="#FEFFFE" transform="matrix(1.00, 0.00, -0.00, -1.00, 774.9, 17.0)">t</text><text xml:space="preserve" font-family="AvenirNext-Medium" font-size="53.2" fill="#FEFFFE" transform="matrix(1.00, 0.00, -0.00, -1.00, 792.4, 17.0)">u</text><text xml:space="preserve" font-family="AvenirNext-Medium" font-size="53.2" fill="#FEFFFE" transform="matrix(1.00, 0.00, -0.00, -1.00, 823.4, 17.0)">r</text><text xml:space="preserve" font-family="AvenirNext-Medium" font-size="53.2" fill="#FEFFFE" transform="matrix(1.00, 0.00, -0.00, -1.00, 841.7, 17.0)">e</text><text xml:space="preserve" font-family="AvenirNext-Medium" font-size="53.2" fill="#FEFFFE" transform="matrix(1.00, 0.00, -0.00, -1.00, 872.2, 17.0)"> </text><text xml:space="preserve" font-family="AvenirNext-Medium" font-size="53.2" fill="#FEFFFE" transform="matrix(1.00, 0.00, -0.00, -1.00, 885.5, 17.0)">r</text><text xml:space="preserve" font-family="AvenirNext-Medium" font-size="53.2" fill="#FEFFFE" transform="matrix(1.00, 0.00, -0.00, -1.00, 903.8, 17.0)">e</text><text xml:space="preserve" font-family="AvenirNext-Medium" font-size="53.2" fill="#FEFFFE" transform="matrix(1.00, 0.00, -0.00, -1.00, 934.3, 17.0)">q</text><text xml:space="preserve" font-family="AvenirNext-Medium" font-size="53.2" fill="#FEFFFE" transform="matrix(1.00, 0.00, -0.00, -1.00, 967.9, 17.0)">u</text><text xml:space="preserve" font-family="AvenirNext-Medium" font-size="53.2" fill="#FEFFFE" transform="matrix(1.00, 0.00, -0.00, -1.00, 998.9, 17.0)">i</text><text xml:space="preserve" font-family="AvenirNext-Medium" font-size="53.2" fill="#FEFFFE" transform="matrix(1.00, 0.00, -0.00, -1.00, 1012.7, 17.0)">r</text><text xml:space="preserve" font-family="AvenirNext-Medium" font-size="53.2" fill="#FEFFFE" transform="matrix(1.00, 0.00, -0.00, -1.00, 1031.0, 17.0)">e</text><text xml:space="preserve" font-family="AvenirNext-Medium" font-size="53.2" fill="#FEFFFE" transform="matrix(1.00, 0.00, -0.00, -1.00, 1061.5, 17.0)">s</text><text xml:space="preserve" font-family="AvenirNext-Medium" font-size="53.2" fill="#FEFFFE" transform="matrix(1.00, 0.00, -0.00, -1.00, 1085.1, 17.0)"> </text><text xml:space="preserve" font-family="AvenirNext-Medium" font-size="53.2" fill="#FEFFFE" transform="matrix(1.00, 0.00, -0.00, -1.00, 1098.4, 17.0)">m</text><text xml:space="preserve" font-family="AvenirNext-Medium" font-size="53.2" fill="#FEFFFE" transform="matrix(1.00, 0.00, -0.00, -1.00, 1145.6, 17.0)">o</text><text xml:space="preserve" font-family="AvenirNext-Medium" font-size="53.2" fill="#FEFFFE" transform="matrix(1.00, 0.00, -0.00, -1.00, 1178.0, 17.0)">r</text><text xml:space="preserve" font-family="AvenirNext-Medium" font-size="53.2" fill="#FEFFFE" transform="matrix(1.00, 0.00, -0.00, -1.00, 1196.3, 17.0)">e</text><text xml:space="preserve" font-family="AvenirNext-Medium" font-size="53.2" fill="#FEFFFE" transform="matrix(1.00, 0.00, -0.00, -1.00, 1226.8, 17.0)"> </text><text xml:space="preserve" font-family="AvenirNext-Medium" font-size="53.2" fill="#FEFFFE" transform="matrix(1.00, 0.00, -0.00, -1.00, 1240.1, 17.0)">c</text><text xml:space="preserve" font-family="AvenirNext-Medium" font-size="53.2" fill="#FEFFFE" transform="matrix(1.00, 0.00, -0.00, -1.00, 1266.4, 17.0)">u</text><text xml:space="preserve" font-family="AvenirNext-Medium" font-size="53.2" fill="#FEFFFE" transform="matrix(1.00, 0.00, -0.00, -1.00, 1297.4, 17.0)">s</text><text xml:space="preserve" font-family="AvenirNext-Medium" font-size="53.2" fill="#FEFFFE" transform="matrix(1.00, 0.00, -0.00, -1.00, 1321.0, 17.0)">t</text><text xml:space="preserve" font-family="AvenirNext-Medium" font-size="53.2" fill="#FEFFFE" transform="matrix(1.00, 0.00, -0.00, -1.00, 1338.5, 17.0)">o</text><text xml:space="preserve" font-family="AvenirNext-Medium" font-size="53.2" fill="#FEFFFE" transform="matrix(1.00, 0.00, -0.00, -1.00, 1370.9, 17.0)">m</text><text xml:space="preserve" font-family="AvenirNext-Medium" font-size="53.2" fill="#FEFFFE" transform="matrix(1.00, 0.00, -0.00, -1.00, 1418.1, 17.0)">i</text><text xml:space="preserve" font-family="AvenirNext-Medium" font-size="53.2" fill="#FEFFFE" transform="matrix(1.00, 0.00, -0.00, -1.00, 1431.9, 17.0)">z</text><text xml:space="preserve" font-family="AvenirNext-Medium" font-size="53.2" fill="#FEFFFE" transform="matrix(1.00, 0.00, -0.00, -1.00, 1456.5, 17.0)">e</text><text xml:space="preserve" font-family="AvenirNext-Medium" font-size="53.2" fill="#FEFFFE" transform="matrix(1.00, 0.00, -0.00, -1.00, 1487.0, 17.0)">d</text></g></svg>