<?xml version="1.0" encoding="UTF-8" standalone="no"?><svg xmlns="http://www.w3.org/2000/svg" xmlns:xlink="http://www.w3.org/1999/xlink" clip-rule="evenodd" stroke-miterlimit="4.00" viewBox="0 0 1548 150"><desc>SVG generated by Keynote</desc><defs></defs><g transform="matrix(1.00, 0.00, -0.00, -1.00, 0.0, 150.0)"><text xml:space="preserve" font-family="DINCondensed-Bold" font-weight="bold" font-size="202.3" fill="#FEFFFE" transform="matrix(1.00, 0.00, -0.00, -1.00, -8.0, 3.0)">R</text><text xml:space="preserve" font-family="DINCondensed-Bold" font-weight="bold" font-size="202.3" fill="#FEFFFE" transform="matrix(1.00, 0.00, -0.00, -1.00, 78.2, 3.0)">E</text><text xml:space="preserve" font-family="DINCondensed-Bold" font-weight="bold" font-size="202.3" fill="#FEFFFE" transform="matrix(1.00, 0.00, -0.00, -1.00, 153.0, 3.0)">L</text><text xml:space="preserve" font-family="DINCondensed-Bold" font-weight="bold" font-size="202.3" fill="#FEFFFE" transform="matrix(1.00, 0.00, -0.00, -1.00, 227.9, 3.0)">A</text><text xml:space="preserve" font-family="DINCondensed-Bold" font-weight="bold" font-size="202.3" fill="#FEFFFE" transform="matrix(1.00, 0.00, -0.00, -1.00, 299.1, 3.0)">T</text><text xml:space="preserve" font-family="DINCondensed-Bold" font-weight="bold" font-size="202.3" fill="#FEFFFE" transform="matrix(1.00, 0.00, -0.00, -1.00, 366.3, 3.0)">I</text><text xml:space="preserve" font-family="DINCondensed-Bold" font-weight="bold" font-size="202.3" fill="#FEFFFE" transform="matrix(1.00, 0.00, -0.00, -1.00, 407.5, 3.0)">V</text><text xml:space="preserve" font-family="DINCondensed-Bold" font-weight="bold" font-size="202.3" fill="#FEFFFE" transform="matrix(1.00, 0.00, -0.00, -1.00, 489.9, 3.0)">E</text><text xml:space="preserve" font-family="DINCondensed-Bold" font-weight="bold" font-size="202.3" fill="#FEFFFE" transform="matrix(1.00, 0.00, -0.00, -1.00, 564.7, 3.0)">L</text><text xml:space="preserve" font-family="DINCondensed-Bold" font-weight="bold" font-size="202.3" fill="#FEFFFE" transform="matrix(1.00, 0.00, -0.00, -1.00, 621.0, 3.0)">Y</text><text xml:space="preserve" font-family="DINCondensed-Bold" font-weight="bold" font-size="202.3" fill="#FEFFFE" transform="matrix(1.00, 0.00, -0.00, -1.00, 699.4, 3.0)"> </text><text xml:space="preserve" font-family="DINCondensed-Bold" font-weight="bold" font-size="202.3" fill="#FEFFFE" transform="matrix(1.00, 0.00, -0.00, -1.00, 737.1, 3.0)">I</text><text xml:space="preserve" font-family="DINCondensed-Bold" font-weight="bold" font-size="202.3" fill="#FEFFFE" transform="matrix(1.00, 0.00, -0.00, -1.00, 778.3, 3.0)">N</text><text xml:space="preserve" font-family="DINCondensed-Bold" font-weight="bold" font-size="202.3" fill="#FEFFFE" transform="matrix(1.00, 0.00, -0.00, -1.00, 868.2, 3.0)">E</text><text xml:space="preserve" font-family="DINCondensed-Bold" font-weight="bold" font-size="202.3" fill="#FEFFFE" transform="matrix(1.00, 0.00, -0.00, -1.00, 943.0, 3.0)">X</text><text xml:space="preserve" font-family="DINCondensed-Bold" font-weight="bold" font-size="202.3" fill="#FEFFFE" transform="matrix(1.00, 0.00, -0.00, -1.00, 1021.7, 3.0)">P</text><text xml:space="preserve" font-family="DINCondensed-Bold" font-weight="bold" font-size="202.3" fill="#FEFFFE" transform="matrix(1.00, 0.00, -0.00, -1.00, 1104.0, 3.0)">E</text><text xml:space="preserve" font-family="DINCondensed-Bold" font-weight="bold" font-size="202.3" fill="#FEFFFE" transform="matrix(1.00, 0.00, -0.00, -1.00, 1178.9, 3.0)">N</text><text xml:space="preserve" font-family="DINCondensed-Bold" font-weight="bold" font-size="202.3" fill="#FEFFFE" transform="matrix(1.00, 0.00, -0.00, -1.00, 1268.7, 3.0)">S</text><text xml:space="preserve" font-family="DINCondensed-Bold" font-weight="bold" font-size="202.3" fill="#FEFFFE" transform="matrix(1.00, 0.00, -0.00, -1.00, 1350.8, 3.0)">I</text><text xml:space="preserve" font-family="DINCondensed-Bold" font-weight="bold" font-size="202.3" fill="#FEFFFE" transform="matrix(1.00, 0.00, -0.00, -1.00, 1392.1, 3.0)">V</text><text xml:space="preserve" font-family="DINCondensed-Bold" font-weight="bold" font-size="202.3" fill="#FEFFFE" transform="matrix(1.00, 0.00, -0.00, -1.00, 1474.5, 3.0)">E</text></g></svg>