<?xml version="1.0" encoding="UTF-8" standalone="no"?><svg xmlns="http://www.w3.org/2000/svg" xmlns:xlink="http://www.w3.org/1999/xlink" clip-rule="evenodd" stroke-miterlimit="4.00" viewBox="0 0 1298 164"><desc>SVG generated by Keynote</desc><defs></defs><g transform="matrix(1.00, 0.00, -0.00, -1.00, 0.0, 164.0)"><text xml:space="preserve" font-family="DINCondensed-Bold" font-weight="bold" font-size="202.3" fill="#FEFFFE" transform="matrix(1.00, 0.00, -0.00, -1.00, 1.0, 16.0)">A</text><text xml:space="preserve" font-family="DINCondensed-Bold" font-weight="bold" font-size="202.3" fill="#FEFFFE" transform="matrix(1.00, 0.00, -0.00, -1.00, 72.2, 16.0)">T</text><text xml:space="preserve" font-family="DINCondensed-Bold" font-weight="bold" font-size="202.3" fill="#FEFFFE" transform="matrix(1.00, 0.00, -0.00, -1.00, 139.4, 16.0)"> </text><text xml:space="preserve" font-family="DINCondensed-Bold" font-weight="bold" font-size="202.3" fill="#FEFFFE" transform="matrix(1.00, 0.00, -0.00, -1.00, 177.0, 16.0)">S</text><text xml:space="preserve" font-family="DINCondensed-Bold" font-weight="bold" font-size="202.3" fill="#FEFFFE" transform="matrix(1.00, 0.00, -0.00, -1.00, 259.1, 16.0)">C</text><text xml:space="preserve" font-family="DINCondensed-Bold" font-weight="bold" font-size="202.3" fill="#FEFFFE" transform="matrix(1.00, 0.00, -0.00, -1.00, 341.5, 16.0)">A</text><text xml:space="preserve" font-family="DINCondensed-Bold" font-weight="bold" font-size="202.3" fill="#FEFFFE" transform="matrix(1.00, 0.00, -0.00, -1.00, 423.8, 16.0)">L</text><text xml:space="preserve" font-family="DINCondensed-Bold" font-weight="bold" font-size="202.3" fill="#FEFFFE" transform="matrix(1.00, 0.00, -0.00, -1.00, 498.7, 16.0)">E</text><text xml:space="preserve" font-family="DINCondensed-Bold" font-weight="bold" font-size="202.3" fill="#FEFFFE" transform="matrix(1.00, 0.00, -0.00, -1.00, 573.5, 16.0)">,</text><text xml:space="preserve" font-family="DINCondensed-Bold" font-weight="bold" font-size="202.3" fill="#FEFFFE" transform="matrix(1.00, 0.00, -0.00, -1.00, 611.1, 16.0)"> </text><text xml:space="preserve" font-family="DINCondensed-Bold" font-weight="bold" font-size="202.3" fill="#FEFFFE" transform="matrix(1.00, 0.00, -0.00, -1.00, 648.8, 16.0)">A</text><text xml:space="preserve" font-family="DINCondensed-Bold" font-weight="bold" font-size="202.3" fill="#FEFFFE" transform="matrix(1.00, 0.00, -0.00, -1.00, 731.1, 16.0)">S</text><text xml:space="preserve" font-family="DINCondensed-Bold" font-weight="bold" font-size="202.3" fill="#FEFFFE" transform="matrix(1.00, 0.00, -0.00, -1.00, 813.2, 16.0)">I</text><text xml:space="preserve" font-family="DINCondensed-Bold" font-weight="bold" font-size="202.3" fill="#FEFFFE" transform="matrix(1.00, 0.00, -0.00, -1.00, 854.5, 16.0)">C</text><text xml:space="preserve" font-family="DINCondensed-Bold" font-weight="bold" font-size="202.3" fill="#FEFFFE" transform="matrix(1.00, 0.00, -0.00, -1.00, 936.8, 16.0)">S</text><text xml:space="preserve" font-family="DINCondensed-Bold" font-weight="bold" font-size="202.3" fill="#FEFFFE" transform="matrix(1.00, 0.00, -0.00, -1.00, 1019.0, 16.0)"> </text><text xml:space="preserve" font-family="DINCondensed-Bold" font-weight="bold" font-size="202.3" fill="#FEFFFE" transform="matrix(1.00, 0.00, -0.00, -1.00, 1056.6, 16.0)">A</text><text xml:space="preserve" font-family="DINCondensed-Bold" font-weight="bold" font-size="202.3" fill="#FEFFFE" transform="matrix(1.00, 0.00, -0.00, -1.00, 1138.9, 16.0)">R</text><text xml:space="preserve" font-family="DINCondensed-Bold" font-weight="bold" font-size="202.3" fill="#FEFFFE" transform="matrix(1.00, 0.00, -0.00, -1.00, 1225.1, 16.0)">E</text></g></svg>