<?xml version="1.0" encoding="UTF-8" standalone="no"?><svg xmlns="http://www.w3.org/2000/svg" xmlns:xlink="http://www.w3.org/1999/xlink" clip-rule="evenodd" stroke-miterlimit="4.00" viewBox="0 0 1554 60"><desc>SVG generated by Keynote</desc><defs></defs><g transform="matrix(1.00, 0.00, -0.00, -1.00, 0.0, 60.0)"><text xml:space="preserve" font-family="DINCondensed-Bold" font-weight="bold" font-size="63.8" fill="#FEFFFE" transform="matrix(1.00, 0.00, -0.00, -1.00, -1.0, 7.0)">P</text><text xml:space="preserve" font-family="DINCondensed-Bold" font-weight="bold" font-size="63.8" fill="#FEFFFE" transform="matrix(1.00, 0.00, -0.00, -1.00, 24.9, 7.0)">O</text><text xml:space="preserve" font-family="DINCondensed-Bold" font-weight="bold" font-size="63.8" fill="#FEFFFE" transform="matrix(1.00, 0.00, -0.00, -1.00, 52.1, 7.0)">S</text><text xml:space="preserve" font-family="DINCondensed-Bold" font-weight="bold" font-size="63.8" fill="#FEFFFE" transform="matrix(1.00, 0.00, -0.00, -1.00, 78.0, 7.0)">S</text><text xml:space="preserve" font-family="DINCondensed-Bold" font-weight="bold" font-size="63.8" fill="#FEFFFE" transform="matrix(1.00, 0.00, -0.00, -1.00, 103.9, 7.0)">I</text><text xml:space="preserve" font-family="DINCondensed-Bold" font-weight="bold" font-size="63.8" fill="#FEFFFE" transform="matrix(1.00, 0.00, -0.00, -1.00, 116.9, 7.0)">B</text><text xml:space="preserve" font-family="DINCondensed-Bold" font-weight="bold" font-size="63.8" fill="#FEFFFE" transform="matrix(1.00, 0.00, -0.00, -1.00, 144.0, 7.0)">L</text><text xml:space="preserve" font-family="DINCondensed-Bold" font-weight="bold" font-size="63.8" fill="#FEFFFE" transform="matrix(1.00, 0.00, -0.00, -1.00, 167.6, 7.0)">E</text><text xml:space="preserve" font-family="DINCondensed-Bold" font-weight="bold" font-size="63.8" fill="#FEFFFE" transform="matrix(1.00, 0.00, -0.00, -1.00, 191.2, 7.0)"> </text><text xml:space="preserve" font-family="DINCondensed-Bold" font-weight="bold" font-size="63.8" fill="#FEFFFE" transform="matrix(1.00, 0.00, -0.00, -1.00, 203.1, 7.0)">T</text><text xml:space="preserve" font-family="DINCondensed-Bold" font-weight="bold" font-size="63.8" fill="#FEFFFE" transform="matrix(1.00, 0.00, -0.00, -1.00, 223.5, 7.0)">O</text><text xml:space="preserve" font-family="DINCondensed-Bold" font-weight="bold" font-size="63.8" fill="#FEFFFE" transform="matrix(1.00, 0.00, -0.00, -1.00, 250.6, 7.0)"> </text><text xml:space="preserve" font-family="DINCondensed-Bold" font-weight="bold" font-size="63.8" fill="#FEFFFE" transform="matrix(1.00, 0.00, -0.00, -1.00, 262.5, 7.0)">P</text><text xml:space="preserve" font-family="DINCondensed-Bold" font-weight="bold" font-size="63.8" fill="#FEFFFE" transform="matrix(1.00, 0.00, -0.00, -1.00, 288.4, 7.0)">R</text><text xml:space="preserve" font-family="DINCondensed-Bold" font-weight="bold" font-size="63.8" fill="#FEFFFE" transform="matrix(1.00, 0.00, -0.00, -1.00, 315.6, 7.0)">O</text><text xml:space="preserve" font-family="DINCondensed-Bold" font-weight="bold" font-size="63.8" fill="#FEFFFE" transform="matrix(1.00, 0.00, -0.00, -1.00, 342.7, 7.0)">D</text><text xml:space="preserve" font-family="DINCondensed-Bold" font-weight="bold" font-size="63.8" fill="#FEFFFE" transform="matrix(1.00, 0.00, -0.00, -1.00, 369.9, 7.0)">U</text><text xml:space="preserve" font-family="DINCondensed-Bold" font-weight="bold" font-size="63.8" fill="#FEFFFE" transform="matrix(1.00, 0.00, -0.00, -1.00, 397.1, 7.0)">C</text><text xml:space="preserve" font-family="DINCondensed-Bold" font-weight="bold" font-size="63.8" fill="#FEFFFE" transform="matrix(1.00, 0.00, -0.00, -1.00, 423.0, 7.0)">E</text><text xml:space="preserve" font-family="DINCondensed-Bold" font-weight="bold" font-size="63.8" fill="#FEFFFE" transform="matrix(1.00, 0.00, -0.00, -1.00, 446.6, 7.0)"> </text><text xml:space="preserve" font-family="DINCondensed-Bold" font-weight="bold" font-size="63.8" fill="#FEFFFE" transform="matrix(1.00, 0.00, -0.00, -1.00, 458.4, 7.0)">A</text><text xml:space="preserve" font-family="DINCondensed-Bold" font-weight="bold" font-size="63.8" fill="#FEFFFE" transform="matrix(1.00, 0.00, -0.00, -1.00, 484.4, 7.0)">S</text><text xml:space="preserve" font-family="DINCondensed-Bold" font-weight="bold" font-size="63.8" fill="#FEFFFE" transform="matrix(1.00, 0.00, -0.00, -1.00, 510.3, 7.0)">I</text><text xml:space="preserve" font-family="DINCondensed-Bold" font-weight="bold" font-size="63.8" fill="#FEFFFE" transform="matrix(1.00, 0.00, -0.00, -1.00, 523.3, 7.0)">C</text><text xml:space="preserve" font-family="DINCondensed-Bold" font-weight="bold" font-size="63.8" fill="#FEFFFE" transform="matrix(1.00, 0.00, -0.00, -1.00, 549.2, 7.0)">S</text><text xml:space="preserve" font-family="DINCondensed-Bold" font-weight="bold" font-size="63.8" fill="#FEFFFE" transform="matrix(1.00, 0.00, -0.00, -1.00, 575.1, 7.0)"> </text><text xml:space="preserve" font-family="DINCondensed-Bold" font-weight="bold" font-size="63.8" fill="#FEFFFE" transform="matrix(1.00, 0.00, -0.00, -1.00, 587.0, 7.0)">F</text><text xml:space="preserve" font-family="DINCondensed-Bold" font-weight="bold" font-size="63.8" fill="#FEFFFE" transform="matrix(1.00, 0.00, -0.00, -1.00, 610.6, 7.0)">O</text><text xml:space="preserve" font-family="DINCondensed-Bold" font-weight="bold" font-size="63.8" fill="#FEFFFE" transform="matrix(1.00, 0.00, -0.00, -1.00, 637.7, 7.0)">R</text><text xml:space="preserve" font-family="DINCondensed-Bold" font-weight="bold" font-size="63.8" fill="#FEFFFE" transform="matrix(1.00, 0.00, -0.00, -1.00, 664.9, 7.0)"> </text><text xml:space="preserve" font-family="DINCondensed-Bold" font-weight="bold" font-size="63.8" fill="#FEFFFE" transform="matrix(1.00, 0.00, -0.00, -1.00, 676.7, 7.0)">L</text><text xml:space="preserve" font-family="DINCondensed-Bold" font-weight="bold" font-size="63.8" fill="#FEFFFE" transform="matrix(1.00, 0.00, -0.00, -1.00, 700.3, 7.0)">E</text><text xml:space="preserve" font-family="DINCondensed-Bold" font-weight="bold" font-size="63.8" fill="#FEFFFE" transform="matrix(1.00, 0.00, -0.00, -1.00, 723.9, 7.0)">S</text><text xml:space="preserve" font-family="DINCondensed-Bold" font-weight="bold" font-size="63.8" fill="#FEFFFE" transform="matrix(1.00, 0.00, -0.00, -1.00, 749.8, 7.0)">S</text><text xml:space="preserve" font-family="DINCondensed-Bold" font-weight="bold" font-size="63.8" fill="#FEFFFE" transform="matrix(1.00, 0.00, -0.00, -1.00, 775.7, 7.0)"> </text><text xml:space="preserve" font-family="DINCondensed-Bold" font-weight="bold" font-size="63.8" fill="#FEFFFE" transform="matrix(1.00, 0.00, -0.00, -1.00, 787.5, 7.0)">T</text><text xml:space="preserve" font-family="DINCondensed-Bold" font-weight="bold" font-size="63.8" fill="#FEFFFE" transform="matrix(1.00, 0.00, -0.00, -1.00, 808.7, 7.0)">H</text><text xml:space="preserve" font-family="DINCondensed-Bold" font-weight="bold" font-size="63.8" fill="#FEFFFE" transform="matrix(1.00, 0.00, -0.00, -1.00, 835.8, 7.0)">A</text><text xml:space="preserve" font-family="DINCondensed-Bold" font-weight="bold" font-size="63.8" fill="#FEFFFE" transform="matrix(1.00, 0.00, -0.00, -1.00, 861.8, 7.0)">N</text><text xml:space="preserve" font-family="DINCondensed-Bold" font-weight="bold" font-size="63.8" fill="#FEFFFE" transform="matrix(1.00, 0.00, -0.00, -1.00, 890.1, 7.0)"> </text><text xml:space="preserve" font-family="DINCondensed-Bold" font-weight="bold" font-size="63.8" fill="#FEFFFE" transform="matrix(1.00, 0.00, -0.00, -1.00, 902.0, 7.0)">$</text><text xml:space="preserve" font-family="DINCondensed-Bold" font-weight="bold" font-size="63.8" fill="#FEFFFE" transform="matrix(1.00, 0.00, -0.00, -1.00, 925.7, 7.0)">1</text><text xml:space="preserve" font-family="DINCondensed-Bold" font-weight="bold" font-size="63.8" fill="#FEFFFE" transform="matrix(1.00, 0.00, -0.00, -1.00, 949.4, 7.0)">0</text><text xml:space="preserve" font-family="DINCondensed-Bold" font-weight="bold" font-size="63.8" fill="#FEFFFE" transform="matrix(1.00, 0.00, -0.00, -1.00, 973.1, 7.0)">/</text><text xml:space="preserve" font-family="DINCondensed-Bold" font-weight="bold" font-size="63.8" fill="#FEFFFE" transform="matrix(1.00, 0.00, -0.00, -1.00, 987.3, 7.0)">U</text><text xml:space="preserve" font-family="DINCondensed-Bold" font-weight="bold" font-size="63.8" fill="#FEFFFE" transform="matrix(1.00, 0.00, -0.00, -1.00, 1014.4, 7.0)">N</text><text xml:space="preserve" font-family="DINCondensed-Bold" font-weight="bold" font-size="63.8" fill="#FEFFFE" transform="matrix(1.00, 0.00, -0.00, -1.00, 1042.7, 7.0)">I</text><text xml:space="preserve" font-family="DINCondensed-Bold" font-weight="bold" font-size="63.8" fill="#FEFFFE" transform="matrix(1.00, 0.00, -0.00, -1.00, 1055.7, 7.0)">T</text><text xml:space="preserve" font-family="DINCondensed-Bold" font-weight="bold" font-size="63.8" fill="#FEFFFE" transform="matrix(1.00, 0.00, -0.00, -1.00, 1076.9, 7.0)"> </text><text xml:space="preserve" font-family="DINCondensed-Bold" font-weight="bold" font-size="63.8" fill="#FEFFFE" transform="matrix(1.00, 0.00, -0.00, -1.00, 1088.7, 7.0)">—</text><text xml:space="preserve" font-family="DINCondensed-Bold" font-weight="bold" font-size="63.8" fill="#FEFFFE" transform="matrix(1.00, 0.00, -0.00, -1.00, 1152.5, 7.0)"> </text><text xml:space="preserve" font-family="DINCondensed-Bold" font-weight="bold" font-size="63.8" fill="#FEFFFE" transform="matrix(1.00, 0.00, -0.00, -1.00, 1164.4, 7.0)">I</text><text xml:space="preserve" font-family="DINCondensed-Bold" font-weight="bold" font-size="63.8" fill="#FEFFFE" transform="matrix(1.00, 0.00, -0.00, -1.00, 1177.4, 7.0)">N</text><text xml:space="preserve" font-family="DINCondensed-Bold" font-weight="bold" font-size="63.8" fill="#FEFFFE" transform="matrix(1.00, 0.00, -0.00, -1.00, 1205.7, 7.0)">C</text><text xml:space="preserve" font-family="DINCondensed-Bold" font-weight="bold" font-size="63.8" fill="#FEFFFE" transform="matrix(1.00, 0.00, -0.00, -1.00, 1231.6, 7.0)">L</text><text xml:space="preserve" font-family="DINCondensed-Bold" font-weight="bold" font-size="63.8" fill="#FEFFFE" transform="matrix(1.00, 0.00, -0.00, -1.00, 1255.2, 7.0)">U</text><text xml:space="preserve" font-family="DINCondensed-Bold" font-weight="bold" font-size="63.8" fill="#FEFFFE" transform="matrix(1.00, 0.00, -0.00, -1.00, 1282.4, 7.0)">D</text><text xml:space="preserve" font-family="DINCondensed-Bold" font-weight="bold" font-size="63.8" fill="#FEFFFE" transform="matrix(1.00, 0.00, -0.00, -1.00, 1309.5, 7.0)">I</text><text xml:space="preserve" font-family="DINCondensed-Bold" font-weight="bold" font-size="63.8" fill="#FEFFFE" transform="matrix(1.00, 0.00, -0.00, -1.00, 1322.5, 7.0)">N</text><text xml:space="preserve" font-family="DINCondensed-Bold" font-weight="bold" font-size="63.8" fill="#FEFFFE" transform="matrix(1.00, 0.00, -0.00, -1.00, 1350.8, 7.0)">G</text><text xml:space="preserve" font-family="DINCondensed-Bold" font-weight="bold" font-size="63.8" fill="#FEFFFE" transform="matrix(1.00, 0.00, -0.00, -1.00, 1378.0, 7.0)"> </text><text xml:space="preserve" font-family="DINCondensed-Bold" font-weight="bold" font-size="63.8" fill="#FEFFFE" transform="matrix(1.00, 0.00, -0.00, -1.00, 1389.8, 7.0)">R</text><text xml:space="preserve" font-family="DINCondensed-Bold" font-weight="bold" font-size="63.8" fill="#FEFFFE" transform="matrix(1.00, 0.00, -0.00, -1.00, 1417.0, 7.0)">&amp;</text><text xml:space="preserve" font-family="DINCondensed-Bold" font-weight="bold" font-size="63.8" fill="#FEFFFE" transform="matrix(1.00, 0.00, -0.00, -1.00, 1447.7, 7.0)">D</text><text xml:space="preserve" font-family="DINCondensed-Bold" font-weight="bold" font-size="63.8" fill="#FEFFFE" transform="matrix(1.00, 0.00, -0.00, -1.00, 1474.8, 7.0)"> </text><text xml:space="preserve" font-family="DINCondensed-Bold" font-weight="bold" font-size="63.8" fill="#FEFFFE" transform="matrix(1.00, 0.00, -0.00, -1.00, 1486.7, 7.0)">—</text></g></svg>